<svg xmlns="http://www.w3.org/2000/svg" width="107.63" height="64.48" viewBox="0 0 107.63 64.48">
  <defs>
    <style>
      .cls-1, .cls-3, .cls-4, .cls-7, .cls-8, .cls-9 {
        fill: none;
      }

      .cls-1, .cls-10, .cls-7, .cls-8, .cls-9 {
        stroke: #fff;
      }

      .cls-1, .cls-10, .cls-3, .cls-8, .cls-9 {
        stroke-linecap: round;
      }

      .cls-1, .cls-3, .cls-4, .cls-7 {
        stroke-miterlimit: 10;
      }

      .cls-10, .cls-2 {
        fill: #fff;
      }

      .cls-3, .cls-4 {
        stroke: #e6e6e6;
      }

      .cls-5 {
        fill: #e6e6e6;
      }

      .cls-6 {
        fill: #878787;
      }

      .cls-7, .cls-8 {
        stroke-width: 0.5px;
      }

      .cls-10, .cls-8, .cls-9 {
        stroke-linejoin: round;
      }

      .cls-10, .cls-9 {
        stroke-width: 0.25px;
      }
    </style>
  </defs>
  <title>01Asset 27</title>
  <g id="Layer_2" data-name="Layer 2">
    <g id="Layer_1-2" data-name="Layer 1">
      <g>
        <line class="cls-1" x1="53.13" y1="28.01" x2="107.13" y2="28.01"/>
        <path class="cls-1" d="M59.13,28h41a0,0,0,0,1,0,0V44.92a9.59,9.59,0,0,1-9.59,9.59H68.72a9.59,9.59,0,0,1-9.59-9.59V28A0,0,0,0,1,59.13,28Z"/>
      </g>
      <polygon class="cls-2" points="69.2 58.6 66.29 63.65 72.12 63.65 69.2 58.6"/>
      <polygon class="cls-2" points="80.13 58.6 77.22 63.65 83.04 63.65 80.13 58.6"/>
      <polygon class="cls-2" points="91.05 58.6 88.14 63.65 93.96 63.65 91.05 58.6"/>
      <g>
        <line class="cls-3" x1="20.91" y1="45.79" x2="47.95" y2="45.79"/>
        <path class="cls-4" d="M.5,45.79H26.84a0,0,0,0,1,0,0v1.45a9.19,9.19,0,0,1-9.19,9.19h-8A9.19,9.19,0,0,1,.5,47.23V45.79A0,0,0,0,1,.5,45.79Z"/>
      </g>
      <polygon class="cls-5" points="3.91 61.02 1.91 64.48 5.91 64.48 3.91 61.02"/>
      <polygon class="cls-5" points="12.91 61.02 10.91 64.48 14.91 64.48 12.91 61.02"/>
      <polygon class="cls-5" points="20.91 61.02 18.91 64.48 22.91 64.48 20.91 61.02"/>
      <rect class="cls-2" x="4.91" y="37.33" width="2" height="2"/>
      <rect class="cls-2" x="8.91" y="40.33" width="2" height="2"/>
      <rect class="cls-2" x="12.91" y="36.33" width="2" height="2"/>
      <rect class="cls-2" x="81.05" y="12.24" width="2.94" height="2.94"/>
      <rect class="cls-2" x="86.93" y="16.65" width="2.94" height="2.94"/>
      <rect class="cls-2" x="92.8" y="10.77" width="2.94" height="2.94"/>
      <ellipse class="cls-6" cx="19.98" cy="27.13" rx="3.01" ry="1.39" transform="matrix(0.5, -0.87, 0.87, 0.5, -13.5, 30.87)"/>
      <ellipse class="cls-6" cx="21.49" cy="32.54" rx="2.71" ry="1.31" transform="translate(-16.18 42.61) rotate(-71.52)"/>
      <rect class="cls-7" x="67.14" y="2.94" width="2.41" height="12.69" transform="translate(0.51 -3.19) rotate(2.69)"/>
      <rect class="cls-7" x="61.64" y="0.41" width="2.41" height="12.69" transform="translate(0.2 15.13) rotate(-13.74)"/>
      <g>
        <path class="cls-8" d="M54.35,10.77a9.53,9.53,0,0,1,.41,5.08c-.63,2.33,1.17,5.34,5.4,3.65Z"/>
        <path class="cls-9" d="M55.35,12.31a7,7,0,0,1,.3,3.72c-.46,1.7.86,3.89,4,2.66Z"/>
        <path class="cls-9" d="M56.38,13.91a4.56,4.56,0,0,1,.2,2.42c-.3,1.11.56,2.54,2.57,1.73Z"/>
        <path class="cls-9" d="M57.09,15a2.71,2.71,0,0,1,.12,1.41c-.18.64.32,1.48,1.49,1Z"/>
        <line class="cls-9" x1="60.74" y1="19.99" x2="60.11" y2="19.2"/>
        <line class="cls-9" x1="60.28" y1="20.13" x2="60.17" y2="19.48"/>
        <line class="cls-8" x1="53.73" y1="11.34" x2="54.54" y2="11.69"/>
      </g>
      <path class="cls-10" d="M74.22,15a4.6,4.6,0,0,0,.57,2.18c.66,1.45-.19,3.59-3.12,2.95l1-1.15a5.32,5.32,0,0,0,1.12-2.19Z"/>
    </g>
  </g>
</svg>
