<svg class="forth"xmlns="http://www.w3.org/2000/svg" width="76.79" height="50.56" viewBox="0 0 76.79 50.56">
  <defs>
    <style>
      .cls-1000, .cls-5000 {
        fill: none;
        stroke-miterlimit: 10;
      }

      .cls-1000 {
        stroke: #fff;
        stroke-linecap: round;
      }

      .cls-2000 {
        fill: #fff;
      }

      .cls-3000 {
        fill: #878787;
      }

      .cls-4000 {
        fill: #e6e6e6;
      }

      .cls-5000 {
        stroke: #878787;
        stroke-width: 0.25px;
      }
    </style>
  </defs>
  <title>step3</title>
  <g id="Layer_2" data-name="Layer 2">
    <g id="Layer_1-2" data-name="Layer 1">
      <g>
        <line class="cls-1000" x1="22.29" y1="15.56" x2="76.29" y2="15.56"/>
        <path class="cls-1000" d="M28.29,15.56h41a0,0,0,0,1,0,0V32.47a9.59,9.59,0,0,1-9.59,9.59H37.88a9.59,9.59,0,0,1-9.59-9.59V15.56A0,0,0,0,1,28.29,15.56Z"/>
      </g>
      <polygon class="cls-2000" points="41.15 46.8 38.97 50.56 43.32 50.56 41.15 46.8"/>
      <polygon class="cls-2000" points="49.29 46.8 47.12 50.56 51.46 50.56 49.29 46.8"/>
      <polygon class="cls-2000" points="57.43 46.8 55.26 50.56 59.6 50.56 57.43 46.8"/>
      <ellipse class="cls-3000" cx="57.87" cy="26.28" rx="3.01" ry="1.39" transform="matrix(0.5, -0.87, 0.87, 0.5, 6.18, 63.25)"/>
      <ellipse class="cls-3000" cx="61.75" cy="30.48" rx="2.71" ry="1.31" transform="translate(13.27 79.38) rotate(-71.52)"/>
      <rect class="cls-4000" x="1.93" y="19.46" width="8.63" height="14.13" transform="translate(-7.7 3.11) rotate(-17.54)"/>
      <rect class="cls-5000" x="3.44" y="21.94" width="5.59" height="9.16" transform="translate(-7.7 3.11) rotate(-17.54)"/>
      <circle class="cls-4000" cx="38.97" cy="28.81" r="4.13"/>
      <circle class="cls-4000" cx="49.29" cy="32.45" r="4.13"/>
      <path class="cls-2000" d="M58.87,7.31A12.87,12.87,0,0,1,63,2.23a13.59,13.59,0,0,1,1.35-.88c.15-.08.7-.46.89-.35s.1.26.06.44a4.17,4.17,0,0,1-.64,1.26,13.81,13.81,0,0,1-1.06,1.45,15.13,15.13,0,0,1-2.55,2.38c-.46.34-.94.61-1.43.91l-.19,0q.09.21.12,0a3.77,3.77,0,0,0,.26-.39,7.45,7.45,0,0,1,.61-.65,16.62,16.62,0,0,1,2.74-2.2,10.57,10.57,0,0,1,3-1.52,1.54,1.54,0,0,1,.3,0c.22,0,.24,0,.23.18a2.91,2.91,0,0,1-.49,1,8.17,8.17,0,0,1-1,1.37A10.25,10.25,0,0,1,62.06,7.5l.61.79A15.43,15.43,0,0,1,66,5.65a9.76,9.76,0,0,1,1.83-.91,2.18,2.18,0,0,1,.72-.13c.25,0,.36,0,.23.2a12.86,12.86,0,0,1-5.92,5.37c-.58.28-.08,1.14.5.86a15.15,15.15,0,0,0,4.27-3,13.75,13.75,0,0,0,1.49-1.82c.36-.54,1-1.29.63-2-.62-1.26-2.62-.28-3.44.14A16.46,16.46,0,0,0,62,7.58a.5.5,0,0,0,.6.78,10.76,10.76,0,0,0,3.58-2.69A9.1,9.1,0,0,0,67.4,3.85c.29-.55.6-1.3.08-1.82-.93-.93-2.76.21-3.63.68A18.35,18.35,0,0,0,60,5.51a5,5,0,0,0-1.37,1.67.91.91,0,0,0,.69,1.29,3.21,3.21,0,0,0,2-.86,17,17,0,0,0,1.87-1.52,14.54,14.54,0,0,0,2.79-3.55A2.51,2.51,0,0,0,66.32.88,1.11,1.11,0,0,0,65.08,0a5.12,5.12,0,0,0-2.21,1.1,15.74,15.74,0,0,0-2,1.6A13.28,13.28,0,0,0,58,6.8c-.26.59.61,1.1.87.51Z" transform="translate(0 0)"/>
      <circle class="cls-2000" cx="31.38" cy="4.07" r="0.74"/>
      <circle class="cls-2000" cx="33.89" cy="6.29" r="0.74"/>
      <circle class="cls-2000" cx="35.77" cy="2.59" r="0.74"/>
      <circle class="cls-2000" cx="37.25" cy="6.8" r="0.74"/>
    </g>
  </g>
</svg>
