<svg xmlns="http://www.w3.org/2000/svg" width="189.39" height="32.94" viewBox="0 0 189.39 32.94">
  <defs>
    <style>
      .cls-8, .cls-9 {
        fill: none;
        stroke: #f2f2f2;
        stroke-miterlimit: 10;
      }

      .cls-8 {
        stroke-linecap: round;
      }

      .cls-10, .cls-12 {
        fill: #f2f2f2;
      }

      .cls-11 {
        fill: #e6e6e6;
      }

      .cls-12 {
        font-size: 3px;
        font-family: LibreBaskerville-Regular, Libre Baskerville;
      }

      .cls-13 {
        letter-spacing: -0.02em;
      }

      .cls-14 {
        letter-spacing: -0.03em;
      }
    </style>
  </defs>
  <title>4Asset 24</title>
  <g id="Layer_2" data-name="Layer 2">
    <g id="Layer_1-2" data-name="Layer 1">
      <g>
        <g>
          <line class="cls-8" x1="106.99" y1="15.22" x2="134.99" y2="15.22"/>
          <path class="cls-9" d="M66,15.22h41a0,0,0,0,1,0,0v0a9.59,9.59,0,0,1-9.59,9.59H75.58A9.59,9.59,0,0,1,66,15.22v0A0,0,0,0,1,66,15.22Z"/>
        </g>
        <polygon class="cls-10" points="78.99 29.41 76.99 32.88 80.99 32.88 78.99 29.41"/>
        <polygon class="cls-10" points="87.99 29.41 85.99 32.88 89.99 32.88 87.99 29.41"/>
        <polygon class="cls-10" points="95.99 29.41 93.99 32.88 97.99 32.88 95.99 29.41"/>
        <polygon class="cls-10" points="168.28 25.52 166.97 27.79 169.59 27.79 168.28 25.52"/>
        <polygon class="cls-10" points="176.8 25.52 175.49 27.79 178.11 27.79 176.8 25.52"/>
        <polygon class="cls-10" points="184.57 25.52 183.25 27.79 185.88 27.79 184.57 25.52"/>
        <rect class="cls-11" x="67.49" y="1.9" width="3.8" height="3.8"/>
        <rect class="cls-11" x="75.09" y="7.6" width="3.8" height="3.8"/>
        <rect class="cls-11" x="82.69" width="3.8" height="3.8"/>
        <path class="cls-10" d="M41.66,0h2c.1,0,.18.12.19.27,0,1.41.44,7.74,1.7,9.72a11.36,11.36,0,0,1,2.1,7.51V32.87l-9.27.07V16.6a14.68,14.68,0,0,1,1.84-6.93C41,8.06,41.46,4.72,41.53.19,41.53.09,41.59,0,41.66,0Z"/>
        <rect x="38.35" y="18.45" width="9.27" height="10.36"/>
        <g>
          <path class="cls-10" d="M21.82,0H24.7A.27.27,0,0,1,25,.27C25,1.68,25.62,8,27.45,10c3.49,3.76,3.08,5.92,3.07,7.51V32.87L17,32.94V16.6c0-2.73,1.1-4.71,2.69-6.93,1.16-1.61,1.85-4.95,1.95-9.48A.2.2,0,0,1,21.82,0Z"/>
          <rect x="16.99" y="18.45" width="13.53" height="10.36"/>
          <text class="cls-12" transform="translate(20.24 25.25)">wine</text>
        </g>
        <text class="cls-12" transform="translate(40.89 25.25)">s<tspan class="cls-13" x="1.36" y="0">o</tspan><tspan class="cls-14" x="3.26" y="0">y</tspan></text>
        <path class="cls-10" d="M0,19.1H11v10a3.77,3.77,0,0,1-3.79,3.77H3.75A3.77,3.77,0,0,1,0,29.14Z"/>
        <path d="M1.16,22.4H10v6.69a2.8,2.8,0,0,1-3,2.52H4.17a2.81,2.81,0,0,1-3-2.51Z"/>
        <path class="cls-10" d="M176.91,14.34c.82,2.92-.17,6-3.18,6-3.44,0-4-3.43-3.36-6.39s1.82-3.83,3.3-3.83S176.05,11.28,176.91,14.34Z"/>
        <path class="cls-10" d="M189.11,14.34c.83,2.92-.16,6-3.18,6-3.44,0-4-3.43-3.35-6.39s1.81-3.83,3.3-3.83S188.25,11.28,189.11,14.34Z"/>
        <polygon class="cls-10" points="161.64 18.55 158.87 17.2 156.23 18.77 156.62 15.66 154.34 13.57 157.34 12.99 158.58 10.12 160.05 12.88 163.09 13.2 161 15.48 161.64 18.55"/>
      </g>
    </g>
  </g>
</svg>
