<svg xmlns="http://www.w3.org/2000/svg" width="179.4" height="40.4" viewBox="0 0 179.4 40.4">
  <defs>
    <style>
      .cls-10, .cls-20, .cls-80, .cls-90 {
        fill: none;
      }

      .cls-10, .cls-20 {
        stroke: #f2f2f2;
        stroke-miterlimit: 10;
      }

      .cls-10 {
        stroke-linecap: round;
      }

      .cls-30, .cls-50 {
        fill: #f2f2f2;
      }

      .cls-40 {
        fill: #e6e6e6;
      }

      .cls-50 {
        font-size: 3px;
        font-family: LibreBaskerville-Regular, Libre Baskerville;
      }

      .cls-60 {
        letter-spacing: -0.02em;
      }

      .cls-70 {
        letter-spacing: -0.03em;
      }

      .cls-80, .cls-90 {
        stroke: #fff;
        stroke-linejoin: round;
      }

      .cls-90 {
        stroke-width: 0.75px;
      }
    </style>
  </defs>
  <title>step4</title>
  <g id="Layer_2" data-name="Layer 2">
    <g id="Layer_1-2" data-name="Layer 1">
      <g>
        <g>
          <line class="cls-10" x1="106.99" y1="22.68" x2="134.99" y2="22.68"/>
          <path class="cls-20" d="M66,22.68h41a0,0,0,0,1,0,0v0a9.59,9.59,0,0,1-9.59,9.59H75.58A9.59,9.59,0,0,1,66,22.68v0A0,0,0,0,1,66,22.68Z"/>
        </g>
        <polygon class="cls-30" points="78.99 36.87 76.99 40.33 80.99 40.33 78.99 36.87"/>
        <polygon class="cls-30" points="87.99 36.87 85.99 40.33 89.99 40.33 87.99 36.87"/>
        <polygon class="cls-30" points="95.99 36.87 93.99 40.33 97.99 40.33 95.99 36.87"/>
        <polygon class="cls-30" points="128.62 12.64 127.31 14.91 129.93 14.91 128.62 12.64"/>
        <polygon class="cls-30" points="137.14 12.64 135.83 14.91 138.45 14.91 137.14 12.64"/>
        <polygon class="cls-30" points="144.9 12.64 143.59 14.91 146.21 14.91 144.9 12.64"/>
        <rect class="cls-40" x="67.49" y="9.36" width="3.8" height="3.8"/>
        <rect class="cls-40" x="75.09" y="15.06" width="3.8" height="3.8"/>
        <rect class="cls-40" x="82.69" y="7.46" width="3.8" height="3.8"/>
        <path class="cls-30" d="M41.66,7.46h2c.1,0,.18.11.19.26,0,1.41.44,7.75,1.7,9.72A11.37,11.37,0,0,1,47.62,25V40.33l-9.27.07V24.05a14.64,14.64,0,0,1,1.84-6.92c.79-1.62,1.27-5,1.34-9.49C41.53,7.54,41.59,7.46,41.66,7.46Z"/>
        <rect x="38.35" y="25.9" width="9.27" height="10.36"/>
        <g>
          <path class="cls-30" d="M21.82,7.46H24.7a.26.26,0,0,1,.27.26c0,1.41.65,7.75,2.48,9.72,3.49,3.77,3.08,5.92,3.07,7.51V40.33L17,40.4V24.05c0-2.73,1.1-4.7,2.69-6.92,1.16-1.62,1.85-5,1.95-9.49A.19.19,0,0,1,21.82,7.46Z"/>
          <rect x="16.99" y="25.9" width="13.53" height="10.36"/>
          <text class="cls-50" transform="translate(20.24 32.71)">wine</text>
        </g>
        <text class="cls-50" transform="translate(40.89 32.71)">s<tspan class="cls-60" x="1.36" y="0">o</tspan><tspan class="cls-70" x="3.26" y="0">y</tspan></text>
        <path class="cls-30" d="M0,26.56H11V36.61a3.78,3.78,0,0,1-3.79,3.77l-3.46,0A3.77,3.77,0,0,1,0,36.59Z"/>
        <path d="M1.16,29.85H10v6.7a2.79,2.79,0,0,1-3,2.51H4.17a2.81,2.81,0,0,1-3-2.52Z"/>
        <path class="cls-30" d="M140.62,3.08c.6,2.13-.12,4.37-2.32,4.37-2.51,0-2.89-2.5-2.45-4.66S137.17,0,138.26,0,140,.85,140.62,3.08Z"/>
        <path class="cls-30" d="M149.53,3.08c.6,2.13-.13,4.37-2.33,4.37-2.5,0-2.89-2.5-2.44-4.66S146.08,0,147.16,0,148.9.85,149.53,3.08Z"/>
        <polygon class="cls-30" points="129.48 6.15 127.46 5.17 125.53 6.32 125.81 4.05 124.15 2.52 126.34 2.1 127.25 0.01 128.32 2.02 130.54 2.25 129.01 3.91 129.48 6.15"/>
      </g>
      <g>
        <path class="cls-80" d="M177.89,24.91H163.1s1-5.31,7.4-5.33C177,19.56,177.89,24.91,177.89,24.91Z"/>
        <path class="cls-80" d="M162.09,24.91H178.9s.32,8.71-8.4,8.71S162.09,24.91,162.09,24.91Z"/>
        <polyline class="cls-80" points="167.59 33.23 167.59 34.96 172.88 34.96 172.88 33.36"/>
        <line class="cls-90" x1="168.01" y1="22.72" x2="168.87" y2="22.72"/>
        <line class="cls-90" x1="171.55" y1="23.23" x2="172.33" y2="23.23"/>
        <line class="cls-90" x1="169.92" y1="21.61" x2="170.77" y2="21.61"/>
      </g>
    </g>
  </g>
</svg>
