<svg xmlns="http://www.w3.org/2000/svg" width="212.21" height="121.48" viewBox="0 0 212.21 121.48">
  <defs>
    <style>
      .cls-1 {
        fill: none;
        stroke: #000;
        stroke-miterlimit: 10;
      }
    </style>
  </defs>
  <title>chiaAsset 17</title>
  <g id="Layer_2" data-name="Layer 2">
    <g id="Layer_1-2" data-name="Layer 1">
      <path class="cls-1" d="M6.7,39.72c-2.3-1.6-5.3-.9-6,1.7s.6,5.2,1.5,7.8c3.3,9.9.1,20.7-.1,31.1-.1,3.3.2,6.8,2,9.6,3.3,5.5,10.7,6.9,17,5.8,12.2-2.1,21.7-11.4,31.5-18.9s22.6-14,34.2-9.6c7.1,2.7,12.3,9.2,14.9,16.4s2.8,15,2.3,22.6c-.2,3.6-.4,7.7,2.3,10.1,1.5,1.4,3.7,1.9,5.7,2.3a143,143,0,0,0,30.6,2.3l-.4-13.7c-.1-2.4-.1-5.2,1.7-6.9a9.62,9.62,0,0,1,4.2-2c6-2,11.3-5.7,16.5-9.4,9.6-6.8,19.3-13.6,27.1-22.4,2.8-3.2,5.5-6.7,9.4-8.5s9.4-2.3,10.5-6.5c-7-1.7-14.9.1-21.3-3.2-7.1-3.7-10-12.9-8.6-20.8.5-3,1.6-6.1.5-8.9a13.32,13.32,0,0,0-3.9-4.6c-2.5-2.2-5.2-4.4-8.5-5s-7.2,1.1-7.8,4.4c-.4,2,.2,4.9-1.8,5.6a3.81,3.81,0,0,1-1.5.1l-33.2-2.8c-4-.3-8.2-.7-11.9-2.3-6.8-2.9-11.5-9.4-18.3-12.1-10.2-4.1-21.8,1.3-29.9,8.6S51,27.22,41.9,33.42c-10.5,7.2-21.6,10-33.8,6.4Z"/>
    </g>
  </g>
</svg>
