<svg xmlns="http://www.w3.org/2000/svg" width="813.2" height="1492.93" viewBox="0 0 813.2 1492.93">
  <defs>
    <style>
      .cls-1 {
        fill: none;
        stroke: gray;
        stroke-miterlimit: 10;
        stroke-width: 5px;
      }
    </style>
  </defs>
  <title>chickAsset 20</title>
  <g id="Layer_2" data-name="Layer 2">
    <g id="Layer_1-2" data-name="Layer 1">
      <path class="cls-1" d="M517.45,77.25a30.9,30.9,0,0,0,21.24-7.54l50.8-44.08c12.12-10.52,25.41-21.56,41.44-23,44.94-3.95,68,65.91,113.05,65.47,10.72-.1,23.78-3.58,30.42,4.77,4.68,5.88,3.13,14.75,7,21.16,7.38,12.15,32,13.8,29,27.69-2.45,11.55-19.55,8.51-31.22,10.73-17.27,3.28-25.8,22.28-31.56,38.78-11.84,33.91-23.58,71.86-8.8,104.61,4.17,9.24,10.29,17.56,13.77,27.06,12.29,33.66-11.14,68.63-30.7,98.69-33.46,51.43-58.91,108.6-69.34,168.94-5.94,34.39-7,69.72-16.83,103.22-11,37.43-32.64,72-36.78,110.73-2.45,22.9,1.41,46.12-.93,69-2.76,27-14,52.34-25,77.15l-62.73,140.79c-9.86,22.14-20.59,45.36-40.45,59.41-16.1,11.39-36.89,15.67-51.38,29-7.92,7.31-13.38,16.84-18.38,26.36-48.52,92.26-66.6,200-50.85,302.88a551.37,551.37,0,0,0-67.59-19.31L280.41,1379c-.16-11.27-.38-22.87-4.8-33.25-5.13-12.06-15.33-21.15-25.23-29.81L115.75,1198c-7.29-6.39-14.73-13-19.47-21.4-5.61-10-6.92-21.74-8.7-33.06C79.46,1091.94,59.63,1043,40,994.51c-2.88-7.07-6.24-14.71-13-18.26-4.27-2.24-9.35-2.52-13.67-4.66C2.5,966.26.36,951.33,4.41,940.09s12.45-20.31,18.39-30.67c22.43-39.11,7-88,10.44-132.9,3-39.44,21-76,38.65-111.49,13.56-27.26,27.22-54.68,45.44-79.12,16.32-21.88,36.09-41.06,52.21-63.09,53.8-73.51,64.88-175.32,132.13-237,18.72-17.15,46.79-29.59,59.31-51.93,10-17.92,10.13-43.46,20.93-63C411.38,117.8,456.57,84.4,512.8,77.45a30.11,30.11,0,0,1,4.65-.2Z"/>
    </g>
  </g>
</svg>
