<svg xmlns="http://www.w3.org/2000/svg" width="158.19" height="45" viewBox="0 0 158.19 45">
  <defs>
    <style>
      .cls-1 {
        fill: none;
        stroke: #ccc;
        stroke-miterlimit: 10;
        stroke-width: 2px;
      }
    </style>
  </defs>
  <title>chickAsset 19</title>
  <g id="Layer_2" data-name="Layer 2">
    <g id="Layer_1-2" data-name="Layer 1">
      <path class="cls-1" d="M.05,29.82c10,.5,20.49.94,29.68-3.11,3.72-1.63,7.1-3.95,10.75-5.74C54.26,14.23,72,15,82.76,4a10.05,10.05,0,0,1,3.41-2.73,8.43,8.43,0,0,1,4.4.05c7.49,1.43,15.83,3.41,19.9,9.86,1.54,2.46,2.34,5.42,4.37,7.51,2.51,2.58,6.32,3.26,9.72,4.48,4.38,1.58,8.28,4.22,12.12,6.85l10.26,7c3.54,2.43,7.08,4.85,10.72,7.12"/>
    </g>
  </g>
</svg>
