<svg xmlns="http://www.w3.org/2000/svg" width="113.41" height="116.06" viewBox="0 0 113.41 116.06">
  <defs>
    <style>
      .cls-1 {
        fill: none;
        stroke: #000;
        stroke-miterlimit: 10;
      }
    </style>
  </defs>
  <title>chuaAsset 12</title>
  <g id="Layer_2" data-name="Layer 2">
    <g id="Layer_1-2" data-name="Layer 1">
      <path class="cls-1" d="M59.2,2.86A764.77,764.77,0,0,0,1.8,98a9,9,0,0,0-1.3,4.2c.1,2.4,2.2,4.4,4.5,5.1a17.47,17.47,0,0,0,7.2.1l29-3.4a20.47,20.47,0,0,1,7.8,0c3.2.8,5.8,3,8.7,4.8,10.7,6.6,24,6.8,36.6,6.8,7,0,15.5-.9,18.5-7.3-3.6-3.1-9.6-1.6-13.2-4.7-1.8-1.6-2.5-4-3.1-6.3a58.72,58.72,0,0,1,3.8-37.4c.9-2,2-4.1,2.1-6.4a12.77,12.77,0,0,0-1.8-6.1c-4-8.5-8.3-17.5-16.1-22.8-3.9-2.6-8.4-4.2-12.2-6.9-5.6-4.1-9.1-10.4-12.4-16.5Z"/>
    </g>
  </g>
</svg>
