<svg xmlns="http://www.w3.org/2000/svg" width="37.79" height="40.49" viewBox="0 0 37.79 40.49">
  <defs>
    <style>
      .cls-1 {
        fill: none;
        stroke: #000;
        stroke-miterlimit: 10;
      }
    </style>
  </defs>
  <title>hsccAsset 9</title>
  <g id="Layer_2" data-name="Layer 2">
    <g id="Layer_1-2" data-name="Layer 1">
      <path class="cls-1" d="M9.64,4c-3,1.9-2.5,4.6-3.4,8.1s-1,7-1.9,10.4c-1.3,5.1.6,4.3-3.5,7.7l13.4,8.9c-1.7-3.7.7-7.9,3.5-10.9,3.2-3.5,8.3-6.5,12.4-4.2a32.57,32.57,0,0,0,3.4,2.2c1.2.5,3,.4,3.6-.9a3.75,3.75,0,0,0,0-2.1,13,13,0,0,0-2.2-4.6c-5.6-7.1-11.6-15.1-20.2-18a2,2,0,0,0-2.4,1Z"/>
    </g>
  </g>
</svg>
