<svg xmlns="http://www.w3.org/2000/svg" width="204.25" height="356.83" viewBox="0 0 204.25 356.83">
  <defs>
    <style>
      .cls-1 {
        fill: none;
        stroke: #000;
        stroke-miterlimit: 10;
      }
    </style>
  </defs>
  <title>huaAsset 22</title>
  <g id="Layer_2" data-name="Layer 2">
    <g id="Layer_1-2" data-name="Layer 1">
      <path class="cls-1" d="M169.73,8.16,202,24.46a3.17,3.17,0,0,1,1.6,1.4c.5,1.2-.7,2.3-1.7,3.1-16.9,13.2-25.9,33.8-34.2,53.5-1.8,4.2-3.6,8.9-2,13.2.8,2.1,2.3,3.9,2.9,6.1a13.92,13.92,0,0,1-.4,6.4Q151.58,184.51,135,261c-.6,2.9-2.5,6.6-5.4,5.8a11.25,11.25,0,0,1-2.1-1.2c-5.5-3.7-13.4.4-16.4,6.4s-2.7,12.9-3.2,19.5c-1.7,21.2-12.4,40.6-25.4,57.3-3.8,4.9-10.5,10-15.5,6.3-1.8-1.4-2.7-3.6-3.7-5.7a51.69,51.69,0,0,0-25.1-25.2c-6.2-2.9-13.4-4.7-17.8-10.1-2.4-3-3.7-6.7-5.2-10.2a64,64,0,0,0-14.5-20.8c10.7-9.9,12-27.5,23.6-36.5,4.3-3.4,9.7-5.1,14-8.6,3.8-3.1,6.4-7.4,8.9-11.6,8.5-14.1,17.2-29,18.6-45.4.6-7.2-.2-14.4.4-21.6,1.2-13,7.1-25,11.5-37.2a157.27,157.27,0,0,0,8.8-56.9c-.1-3.3-.3-6.7.8-9.8,1.3-3.5,4.1-6.2,6.6-9.1,11.4-13,16.3-31.1,29-42.8a10.38,10.38,0,0,1,4.8-2.9c3.9-.9,7.5,2.1,9.9,5.4s4.1,7,7.5,9.1c4.4,2.7,10.1,1.7,14.7-.7a53.8,53.8,0,0,0,6.6-3.8Z"/>
    </g>
  </g>
</svg>
