<svg xmlns="http://www.w3.org/2000/svg" width="57.23" height="79.87" viewBox="0 0 57.23 79.87">
  <defs>
    <style>
      .cls-1, .cls-2, .cls-5 {
        fill: none;
      }

      .cls-1, .cls-2, .cls-5, .cls-6 {
        stroke: #fff;
        stroke-linejoin: round;
      }

      .cls-2, .cls-5, .cls-6 {
        stroke-linecap: round;
      }

      .cls-2 {
        stroke-width: 2px;
      }

      .cls-3 {
        fill: #878787;
      }

      .cls-4, .cls-6 {
        fill: #fff;
      }

      .cls-5, .cls-6 {
        stroke-width: 0.25px;
      }
    </style>
  </defs>
  <title>k1Asset 32</title>
  <g id="Layer_2" data-name="Layer 2">
    <g id="Layer_1-2" data-name="Layer 1">
      <path class="cls-1" d="M.5,54.63H43.87s1.56,20-21.69,20.05C.5,74.75.5,54.63.5,54.63Z"/>
      <line class="cls-1" x1="12.59" y1="79.37" x2="33.53" y2="79.37"/>
      <line class="cls-2" x1="56.23" y1="7" x2="20.14" y2="48.21"/>
      <g>
        <path class="cls-3" d="M33.68,28.78c0,5.28-1.71,15.62-13.85,20.48a2.43,2.43,0,0,1-3.31-2.08c-.39-4.9.73-14.59,14-20.48A2.26,2.26,0,0,1,33.68,28.78Z"/>
        <path class="cls-4" d="M21.69,40.89a.38.38,0,0,0,0-.75.38.38,0,0,0,0,.75Z"/>
        <path class="cls-4" d="M26.38,40.05a.38.38,0,0,0,0-.75.38.38,0,0,0,0,.75Z"/>
        <path class="cls-4" d="M25.57,35.67a.38.38,0,0,0,0-.75.38.38,0,0,0,0,.75Z"/>
        <path class="cls-4" d="M29,32.41a.38.38,0,0,0,0-.75.38.38,0,0,0,0,.75Z"/>
        <path class="cls-4" d="M22.15,45.06a.38.38,0,0,0,0-.75.38.38,0,0,0,0,.75Z"/>
        <path class="cls-4" d="M31.91,35.29a.38.38,0,0,0,0-.75.38.38,0,0,0,0,.75Z"/>
        <path class="cls-4" d="M25.28,43.8a.38.38,0,0,0,0-.75.38.38,0,0,0,0,.75Z"/>
        <path class="cls-4" d="M28.88,38.93a.38.38,0,0,0,0-.75.38.38,0,0,0,0,.75Z"/>
        <path class="cls-4" d="M28.66,41.47a.38.38,0,0,0,0-.75.38.38,0,0,0,0,.75Z"/>
        <path class="cls-4" d="M29.51,36.82a.38.38,0,0,0,0-.75.38.38,0,0,0,0,.75Z"/>
        <path class="cls-4" d="M23.17,42.74a.38.38,0,0,0,0-.75.38.38,0,0,0,0,.75Z"/>
        <path class="cls-4" d="M19.57,47.6a.38.38,0,0,0,0-.75.38.38,0,0,0,0,.75Z"/>
        <path class="cls-4" d="M20.84,43.8a.38.38,0,0,0,0-.75.38.38,0,0,0,0,.75Z"/>
        <path class="cls-4" d="M24,38.93a.38.38,0,0,0,0-.75.38.38,0,0,0,0,.75Z"/>
        <path class="cls-4" d="M26.34,37.66a.38.38,0,0,0,0-.75.38.38,0,0,0,0,.75Z"/>
        <path class="cls-4" d="M29.72,34.92a.38.38,0,0,0,0-.75.38.38,0,0,0,0,.75Z"/>
        <path class="cls-4" d="M32.05,33.22a.38.38,0,0,0,0-.75.38.38,0,0,0,0,.75Z"/>
        <path class="cls-4" d="M27,43.37a.38.38,0,0,0,0-.75.38.38,0,0,0,0,.75Z"/>
        <path class="cls-4" d="M22.74,47a.38.38,0,0,0,0-.75.38.38,0,0,0,0,.75Z"/>
        <path class="cls-4" d="M19.15,45.49a.38.38,0,0,0,0-.75.38.38,0,0,0,0,.75Z"/>
        <path class="cls-4" d="M19.57,42.74a.38.38,0,0,0,0-.75.38.38,0,0,0,0,.75Z"/>
        <path class="cls-4" d="M23.59,45.28a.38.38,0,0,0,0-.75.38.38,0,0,0,0,.75Z"/>
        <path class="cls-4" d="M21.69,39.36a.38.38,0,0,0,0-.75.38.38,0,0,0,0,.75Z"/>
        <path class="cls-4" d="M22.53,37a.38.38,0,0,0,0-.75.38.38,0,0,0,0,.75Z"/>
        <path class="cls-4" d="M24.22,41.05a.38.38,0,0,0,0-.75.38.38,0,0,0,0,.75Z"/>
        <path class="cls-4" d="M27.61,35.76a.38.38,0,0,0,0-.75.38.38,0,0,0,0,.75Z"/>
        <path class="cls-4" d="M30.78,38.09a.38.38,0,0,0,0-.75.38.38,0,0,0,0,.75Z"/>
        <path class="cls-4" d="M18.51,44a.38.38,0,0,0,0-.75.38.38,0,0,0,0,.75Z"/>
      </g>
      <line class="cls-2" x1="48.26" y1="1" x2="19.96" y2="44.76"/>
      <path class="cls-5" d="M34,61.07a4.46,4.46,0,0,0,.57,2.18c.66,1.44-.19,3.59-3.12,2.94l1-1.15a5.36,5.36,0,0,0,1.13-2.18Z"/>
      <path class="cls-6" d="M8.29,70.64,38,69.56s-7.22,5-13.91,5.15A29.83,29.83,0,0,1,8.29,70.64Z"/>
      <path class="cls-4" d="M8.37,63.32a1.5,1.5,0,0,0,0-3,1.5,1.5,0,0,0,0,3Z"/>
      <path class="cls-4" d="M12.17,66.28a1.5,1.5,0,0,0,0-3,1.5,1.5,0,0,0,0,3Z"/>
      <path class="cls-4" d="M16,63.32a1.5,1.5,0,0,0,0-3,1.5,1.5,0,0,0,0,3Z"/>
      <path class="cls-4" d="M18.94,67.12a1.5,1.5,0,0,0,0-3,1.5,1.5,0,0,0,0,3Z"/>
    </g>
  </g>
</svg>
