<svg class="second" xmlns="http://www.w3.org/2000/svg" width="42" height="64.22" viewBox="0 0 42 64.22">
  <defs>
    <style>
      .cls-10, .cls-30, .cls-60 {
        fill: none;
        stroke: #fff;
      }

      .cls-10, .cls-30 {
        stroke-linecap: round;
      }

      .cls-10, .cls-60 {
        stroke-miterlimit: 10;
      }

      .cls-20 {
        fill: #b3b3b3;
      }

      .cls-30 {
        stroke-linejoin: round;
        stroke-width: 0.75px;
      }

      .cls-40 {
        fill: #878787;
      }

      .cls-50 {
        fill: #fff;
      }

      .cls-60 {
        stroke-width: 0.25px;
      }
    </style>
  </defs>
  <title>step2</title>
  <g id="Layer_2" data-name="Layer 2">
    <g id="Layer_1-2" data-name="Layer 1">
      <path class="cls-10" d="M.5,27.19h41a0,0,0,0,1,0,0V44.1a9.59,9.59,0,0,1-9.59,9.59H10.09A9.59,9.59,0,0,1,.5,44.1V27.19A0,0,0,0,1,.5,27.19Z"/>
      <polygon class="cls-20" points="13 60.76 11 64.22 15 64.22 13 60.76"/>
      <polygon class="cls-20" points="22 60.76 20 64.22 24 64.22 22 60.76"/>
      <polygon class="cls-20" points="30 60.76 28 64.22 32 64.22 30 60.76"/>
      <line class="cls-30" x1="39.18" y1="0.38" x2="34.73" y2="41.15"/>
      <line class="cls-30" x1="36.07" y1="1.97" x2="33.5" y2="39.55"/>
      <path class="cls-40" d="M36.88,43.29c-2.56,2.84-8.45,7.61-17.33,4.38A1.75,1.75,0,0,1,18.76,45c2.14-2.84,7.42-7.53,17.41-4.32A1.64,1.64,0,0,1,36.88,43.29Z"/>
      <path class="cls-50" d="M24.75,44.22a.38.38,0,0,0,0-.75.38.38,0,0,0,0,.75Z"/>
      <path class="cls-50" d="M27.69,46a.38.38,0,0,0,0-.75.38.38,0,0,0,0,.75Z"/>
      <path class="cls-50" d="M29.36,43.28a.38.38,0,0,0,0-.75.38.38,0,0,0,0,.75Z"/>
      <path class="cls-50" d="M32.8,43.19a.38.38,0,0,0,0-.75.38.38,0,0,0,0,.75Z"/>
      <path class="cls-50" d="M23,46.7A.38.38,0,0,0,23,46a.38.38,0,0,0,0,.75Z"/>
      <path class="cls-50" d="M33,46.12a.38.38,0,0,0,0-.75.38.38,0,0,0,0,.75Z"/>
      <path class="cls-50" d="M25.29,47.52a.38.38,0,0,0,0-.75.38.38,0,0,0,0,.75Z"/>
      <path class="cls-50" d="M29.58,46.63a.38.38,0,0,0,0-.75.38.38,0,0,0,0,.75Z"/>
      <path class="cls-50" d="M28.24,47.89a.38.38,0,0,0,0-.75.38.38,0,0,0,0,.75Z"/>
      <path class="cls-50" d="M30.94,45.79a.38.38,0,0,0,0-.75.38.38,0,0,0,0,.75Z"/>
      <path class="cls-50" d="M24.66,45.93a.38.38,0,0,0,0-.75.38.38,0,0,0,0,.75Z"/>
      <path class="cls-50" d="M20.38,46.82a.38.38,0,0,0,0-.75.38.38,0,0,0,0,.75Z"/>
      <path class="cls-50" d="M22.9,45.38a.38.38,0,0,0,0-.75.38.38,0,0,0,0,.75Z"/>
      <path class="cls-50" d="M27,44.28a.38.38,0,0,0,0-.75.38.38,0,0,0,0,.75Z"/>
      <path class="cls-50" d="M28.82,44.72a.38.38,0,0,0,0-.75.38.38,0,0,0,0,.75Z"/>
      <path class="cls-50" d="M32,44.87a.38.38,0,0,0,0-.75.38.38,0,0,0,0,.75Z"/>
      <path class="cls-50" d="M34,45.07a.38.38,0,0,0,0-.75.38.38,0,0,0,0,.75Z"/>
      <path class="cls-50" d="M26.41,48.11a.38.38,0,0,0,0-.75.38.38,0,0,0,0,.75Z"/>
      <path class="cls-50" d="M22.4,48a.38.38,0,0,0,0-.75.38.38,0,0,0,0,.75Z"/>
      <path class="cls-50" d="M21.17,45.48a.38.38,0,0,0,0-.75.38.38,0,0,0,0,.75Z"/>
      <path class="cls-50" d="M22.72,44.2a.38.38,0,0,0,0-.75.38.38,0,0,0,0,.75Z"/>
      <path class="cls-50" d="M23.67,47.5a.38.38,0,0,0,0-.75.38.38,0,0,0,0,.75Z"/>
      <path class="cls-50" d="M25.49,43.39a.38.38,0,0,0,0-.75.38.38,0,0,0,0,.75Z"/>
      <path class="cls-50" d="M27.07,42.54a.38.38,0,0,0,0-.75.38.38,0,0,0,0,.75Z"/>
      <path class="cls-50" d="M26.05,45.53a.38.38,0,0,0,0-.75.38.38,0,0,0,0,.75Z"/>
      <path class="cls-50" d="M30.42,44.3a.38.38,0,0,0,0-.75.38.38,0,0,0,0,.75Z"/>
      <path class="cls-50" d="M31,47.09a.38.38,0,0,0,0-.75.38.38,0,0,0,0,.75Z"/>
      <path class="cls-50" d="M21.54,44.38a.38.38,0,0,0,0-.75.38.38,0,0,0,0,.75Z"/>
      <g>
        <path class="cls-40" d="M7.39,34.42a9.39,9.39,0,0,0,9.77,5A1.08,1.08,0,0,0,18,37.92c-.9-2-3.41-5.53-9.83-5A1,1,0,0,0,7.39,34.42Z"/>
        <path class="cls-50" d="M14.57,36.58a.15.15,0,0,0,0-.3.15.15,0,0,0,0,.3Z"/>
        <path class="cls-50" d="M12.56,37.25a.15.15,0,0,0,0-.3.15.15,0,0,0,0,.3Z"/>
        <path class="cls-50" d="M11.94,35.38a.15.15,0,0,0,0-.3.15.15,0,0,0,0,.3Z"/>
        <path class="cls-50" d="M9.89,34.85a.15.15,0,0,0,0-.3.15.15,0,0,0,0,.3Z"/>
        <path class="cls-50" d="M15.28,38.3a.15.15,0,0,0,0-.3.15.15,0,0,0,0,.3Z"/>
        <path class="cls-50" d="M9.39,36.58a.15.15,0,0,0,0-.3.15.15,0,1,0,0,.3Z"/>
        <path class="cls-50" d="M13.79,38.48a.15.15,0,0,0,0-.3.15.15,0,0,0,0,.3Z"/>
        <path class="cls-50" d="M11.35,37.35a.15.15,0,0,0,0-.3.15.15,0,0,0,0,.3Z"/>
        <path class="cls-50" d="M12,38.3a.15.15,0,0,0,0-.3.15.15,0,1,0,0,.3Z"/>
        <path class="cls-50" d="M10.65,36.66a.15.15,0,0,0,0-.3.15.15,0,0,0,0,.3Z"/>
        <path class="cls-50" d="M14.39,37.61a.15.15,0,0,0,0-.3.15.15,0,0,0,0,.3Z"/>
        <path class="cls-50" d="M16.83,38.74a.15.15,0,0,0,0-.3.15.15,0,0,0,0,.3Z"/>
        <path class="cls-50" d="M15.52,37.53a.15.15,0,0,0,0-.3.15.15,0,0,0,0,.3Z"/>
        <path class="cls-50" d="M13.24,36.31a.15.15,0,1,0,0-.3.15.15,0,0,0,0,.3Z"/>
        <path class="cls-50" d="M12.07,36.32a.15.15,0,0,0,0-.3.15.15,0,0,0,0,.3Z"/>
        <path class="cls-50" d="M10.16,36a.15.15,0,0,0,0-.3.15.15,0,0,0,0,.3Z"/>
        <path class="cls-50" d="M8.89,35.81a.15.15,0,0,0,0-.3.15.15,0,0,0,0,.3Z"/>
        <path class="cls-50" d="M13,38.68a.15.15,0,0,0,0-.3.15.15,0,0,0,0,.3Z"/>
        <path class="cls-50" d="M15.46,39.17a.15.15,0,0,0,0-.3.15.15,0,0,0,0,.3Z"/>
        <path class="cls-50" d="M16.54,37.83a.15.15,0,0,0,0-.3.15.15,0,0,0,0,.3Z"/>
        <path class="cls-50" d="M15.79,36.85a.15.15,0,0,0,0-.3.15.15,0,0,0,0,.3Z"/>
        <path class="cls-50" d="M14.77,38.69a.15.15,0,0,0,0-.3.15.15,0,1,0,0,.3Z"/>
        <path class="cls-50" d="M14.24,36a.15.15,0,0,0,0-.3.15.15,0,0,0,0,.3Z"/>
        <path class="cls-50" d="M13.41,35.25a.15.15,0,1,0,0-.3.15.15,0,0,0,0,.3Z"/>
        <path class="cls-50" d="M13.62,37.18a.15.15,0,0,0,0-.3.15.15,0,1,0,0,.3Z"/>
        <path class="cls-50" d="M11.17,35.85a.15.15,0,0,0,0-.3.15.15,0,1,0,0,.3Z"/>
        <path class="cls-50" d="M10.43,37.43a.15.15,0,0,0,0-.3.15.15,0,0,0,0,.3Z"/>
        <path class="cls-50" d="M16.47,37.11a.15.15,0,1,0,0-.3.15.15,0,0,0,0,.3Z"/>
      </g>
      <path class="cls-50" d="M2.56,19.73a8,8,0,0,0,2.83,2.83,6.41,6.41,0,0,0-.48-4.15A6.43,6.43,0,0,0,1.6,15.85,8,8,0,0,0,2.56,19.73Z"/>
      <path class="cls-50" d="M10.35,16.14a10.22,10.22,0,0,1-2.3,4.24,7.92,7.92,0,0,1-.7-5,7.87,7.87,0,0,1,2.9-4.09A10.12,10.12,0,0,1,10.35,16.14Z"/>
      <circle class="cls-60" cx="5.54" cy="44.49" r="1.07"/>
      <circle class="cls-60" cx="8.89" cy="47.52" r="0.75"/>
      <circle class="cls-60" cx="10.16" cy="43.02" r="1.4"/>
    </g>
  </g>
</svg>
