<svg xmlns="http://www.w3.org/2000/svg" xmlns:xlink="http://www.w3.org/1999/xlink" width="95.91" height="23.09" viewBox="0 0 95.91 23.09">
  <defs>
    <style>
      .cls-100, .cls-300, .cls-400, .cls-600, .cls-700 {
        fill: none;
      }

      .cls-200 {
        fill: #fff;
      }

      .cls-300, .cls-400, .cls-600, .cls-700 {
        stroke: #f2f2f2;
        stroke-miterlimit: 10;
      }

      .cls-300 {
        stroke-linecap: round;
      }

      .cls-500 {
        clip-path: url(#clip-path);
      }

      .cls-600 {
        stroke-width: 0.25px;
      }

      .cls-700 {
        stroke-width: 0.75px;
      }

      .cls-800 {
        fill: #f2f2f2;
      }

      .cls-900 {
        fill: #878787;
      }
    </style>
    <clipPath id="clip-path">
      <path class="cls-100" d="M2.26,7h41a0,0,0,0,1,0,0V7a9.59,9.59,0,0,1-9.59,9.59H11.85A9.59,9.59,0,0,1,2.26,7V7a0,0,0,0,1,0,0Z"/>
    </clipPath>
  </defs>
  <title>k3Asset 34</title>
  <g id="Layer_2" data-name="Layer 2">
    <g id="Layer_1-2" data-name="Layer 1">
      <path class="cls-200" d="M41.45,4.8a15.26,15.26,0,0,1-15.82,8.33,1.76,1.76,0,0,1-1.4-2.45c1.42-3.26,5.45-9.06,15.91-8.28A1.63,1.63,0,0,1,41.45,4.8Z"/>
      <path class="cls-200" d="M13.53,5a9.85,9.85,0,0,1,8.16,8.23,1.16,1.16,0,0,1-1.3,1.31c-2.34-.29-6.76-1.72-8.16-8.3A1.07,1.07,0,0,1,13.53,5Z"/>
      <g>
        <line class="cls-300" x1="43.26" y1="6.96" x2="71.26" y2="6.96"/>
        <path class="cls-400" d="M2.26,7h41a0,0,0,0,1,0,0V7a9.59,9.59,0,0,1-9.59,9.59H11.85A9.59,9.59,0,0,1,2.26,7V7a0,0,0,0,1,0,0Z"/>
      </g>
      <g class="cls-500">
        <g>
          <rect class="cls-600" x="0.13" y="0.13" width="45.67" height="22.84"/>
          <line class="cls-600" x1="0.13" y1="21.82" x2="45.8" y2="21.82"/>
          <line class="cls-600" x1="0.13" y1="20.68" x2="45.8" y2="20.68"/>
          <line class="cls-600" x1="0.13" y1="19.54" x2="45.8" y2="19.54"/>
          <line class="cls-600" x1="0.13" y1="18.39" x2="45.8" y2="18.39"/>
          <line class="cls-600" x1="0.13" y1="17.25" x2="45.8" y2="17.25"/>
          <line class="cls-600" x1="0.13" y1="16.11" x2="45.8" y2="16.11"/>
          <line class="cls-600" x1="0.13" y1="14.97" x2="45.8" y2="14.97"/>
          <line class="cls-600" x1="0.13" y1="13.83" x2="45.8" y2="13.83"/>
          <line class="cls-600" x1="0.13" y1="12.69" x2="45.8" y2="12.69"/>
          <line class="cls-600" x1="0.13" y1="11.54" x2="45.8" y2="11.54"/>
          <line class="cls-600" x1="0.13" y1="10.4" x2="45.8" y2="10.4"/>
          <line class="cls-600" x1="0.13" y1="9.26" x2="45.8" y2="9.26"/>
          <line class="cls-600" x1="0.13" y1="8.12" x2="45.8" y2="8.12"/>
          <line class="cls-600" x1="0.13" y1="6.98" x2="45.8" y2="6.98"/>
          <line class="cls-600" x1="0.13" y1="5.83" x2="45.8" y2="5.83"/>
          <line class="cls-600" x1="0.13" y1="4.69" x2="45.8" y2="4.69"/>
          <line class="cls-600" x1="0.13" y1="3.55" x2="45.8" y2="3.55"/>
          <line class="cls-600" x1="0.13" y1="2.41" x2="45.8" y2="2.41"/>
          <line class="cls-600" x1="0.13" y1="1.27" x2="45.8" y2="1.27"/>
          <line class="cls-600" x1="43.52" y1="0.13" x2="43.52" y2="22.96"/>
          <line class="cls-600" x1="41.23" y1="0.13" x2="41.23" y2="22.96"/>
          <line class="cls-600" x1="38.95" y1="0.13" x2="38.95" y2="22.96"/>
          <line class="cls-600" x1="36.66" y1="0.13" x2="36.66" y2="22.96"/>
          <line class="cls-600" x1="34.38" y1="0.13" x2="34.38" y2="22.96"/>
          <line class="cls-600" x1="32.1" y1="0.13" x2="32.1" y2="22.96"/>
          <line class="cls-600" x1="29.81" y1="0.13" x2="29.81" y2="22.96"/>
          <line class="cls-600" x1="27.53" y1="0.13" x2="27.53" y2="22.96"/>
          <line class="cls-600" x1="25.25" y1="0.13" x2="25.25" y2="22.96"/>
          <line class="cls-600" x1="22.96" y1="0.13" x2="22.96" y2="22.96"/>
          <line class="cls-600" x1="20.68" y1="0.13" x2="20.68" y2="22.96"/>
          <line class="cls-600" x1="18.39" y1="0.13" x2="18.39" y2="22.96"/>
          <line class="cls-600" x1="16.11" y1="0.13" x2="16.11" y2="22.96"/>
          <line class="cls-600" x1="13.83" y1="0.13" x2="13.83" y2="22.96"/>
          <line class="cls-600" x1="11.54" y1="0.13" x2="11.54" y2="22.96"/>
          <line class="cls-600" x1="9.26" y1="0.13" x2="9.26" y2="22.96"/>
          <line class="cls-600" x1="6.98" y1="0.13" x2="6.98" y2="22.96"/>
          <line class="cls-600" x1="4.69" y1="0.13" x2="4.69" y2="22.96"/>
          <line class="cls-600" x1="2.41" y1="0.13" x2="2.41" y2="22.96"/>
        </g>
      </g>
      <path class="cls-700" d="M92.4,5.15a1.12,1.12,0,0,0,0-.32,1.57,1.57,0,0,0-.9-1.42,1.49,1.49,0,0,0,0-1,1.59,1.59,0,0,0-2-1,2.93,2.93,0,0,0-.65.33,2.15,2.15,0,0,0-3.16-.18,2.11,2.11,0,0,0-.9,2,1.58,1.58,0,0,0-1.21,1.6H92.4Z"/>
      <path class="cls-800" d="M82.54,4.85h11V14.9a3.76,3.76,0,0,1-3.78,3.76H86.29a3.77,3.77,0,0,1-3.75-3.77Z"/>
      <ellipse class="cls-700" cx="92.66" cy="9" rx="2.87" ry="2.04"/>
      <path class="cls-900" d="M83.64,8.64h8.8v6.7a2.81,2.81,0,0,1-3,2.52H86.64a2.8,2.8,0,0,1-3-2.52Z"/>
    </g>
  </g>
</svg>
