<svg xmlns="http://www.w3.org/2000/svg" width="229.67" height="281.31" viewBox="0 0 229.67 281.31">
  <defs>
    <style>
      .cls-1 {
        fill: none;
        stroke: #000;
        stroke-miterlimit: 10;
      }
    </style>
  </defs>
  <title>khiuAsset 19</title>
  <g id="Layer_2" data-name="Layer 2">
    <g id="Layer_1-2" data-name="Layer 1">
      <path class="cls-1" d="M214.64,32.14c-1.4-2.5,1.3-5.3,3.9-6.5s5.8-2,7-4.5c.9-2.1.2-4.5-.6-6.6-1.9-5.3-4.3-11.2-9.5-13.3-5.8-2.3-12.1,1.2-17.3,4.5-18.4,11.7-37.1,23.7-50.9,40.5-3.7,4.5-8.4,9.8-14,8.5-2.4-.5-5-2.2-7-.8-1.4,1.1-1.5,3.2-1.4,4.9.3,16.8-5.7,34-17.4,46.1-4.4,4.5-9.4,8.4-14,12.7-11.3,10.9-19.2,24.6-29.8,35.9-2.6,2.8-5.4,5.4-8.8,6.9-6.1,2.7-13,1.5-19.6.5a199,199,0,0,0-24.3-2c-3.9-.1-8.8.6-10.1,4.2-.7,1.9-.2,3.9.4,5.8,5.2,18,14,35.2,16.2,53.9.5,4.6.7,9.4,2.5,13.7a37.2,37.2,0,0,0,5.7,8.5,232,232,0,0,0,37.3,35.5c8.1-17.3,8-37.2,10.5-56.2,1.7-12.8,4.7-25.3,7.7-37.8.4-1.6.8-3.3,2.2-4.3,1.6-1.2,3.8-.8,5.7-.8,11.8.4,20.9-10.3,32.3-13.5,18.5-5.1,36.8,10.5,56,9.7a7.51,7.51,0,0,0,2.6-.5c2.6-1.2,3-4.9,1.8-7.6s-3.4-4.6-5-7c-4-5.9-3.8-13.8-1.8-20.6s5.6-13.1,8.1-19.7c5-13,5.7-27.3,9.7-40.7s12.8-26.8,26.4-30c4.1-1,9.6-2,10-6.2.8-7.5-15.7-7.6-14.5-15.1"/>
    </g>
  </g>
</svg>
