<svg xmlns="http://www.w3.org/2000/svg" width="46.48" height="37.78" viewBox="0 0 46.48 37.78">
  <defs>
    <style>
      .cls-1 {
        fill: #fff;
      }
    </style>
  </defs>
  <title>klAsset 2</title>
  <g id="Layer_2" data-name="Layer 2">
    <g id="Layer_1-2" data-name="Layer 1">
      <g>
        <path class="cls-1" d="M3.49,16.76a2.66,2.66,0,0,1-2.9-2.3,2.54,2.54,0,0,1,1.1-2.4c1-.7,2.4-.6,3.6-.7a13,13,0,0,0,10.5-6.6c.9-1.6,1.6-3.5,3.4-3.8s3.1,1.2,4.3,2.5c5.6,5.5,14.1,6.6,21.1,10.1.7.4,1.5.9,1.5,1.7a1.85,1.85,0,0,1-.5,1.2c-2.2,2.8-6.8.7-10.2,1.9s-4.8,6.4-2.1,9c1,1.1,2.6,1.9,2.8,3.3s-1.2,2.5-2.5,3-2.8.7-3.9,1.5-2,2.3-3.4,2.3-2.3-1.4-3.1-2.6a13.91,13.91,0,0,0-5.6-4.6c-2.2-1-4.6-1.3-6.8-2.3a11.9,11.9,0,0,1-6.6-10.6"/>
        <path d="M3.49,16.26a2.12,2.12,0,0,1-2.4-1.7,2.21,2.21,0,0,1,1.6-2.5,19.53,19.53,0,0,1,3.4-.3,16.28,16.28,0,0,0,3-.7,13.46,13.46,0,0,0,5.1-3.4,12.42,12.42,0,0,0,1.9-2.6,17.36,17.36,0,0,1,1.5-2.6,2.28,2.28,0,0,1,2.6-1,7.27,7.27,0,0,1,2.6,2,21.19,21.19,0,0,0,5.1,3.8c3.9,2.1,8.2,3.3,12.4,5,1,.4,2.1.8,3.1,1.3.8.4,2.6,1,2.1,2.1-.8,1.9-3.4,1.8-5.1,1.8-1.9,0-3.9-.2-5.7.5a6.11,6.11,0,0,0-3,3.5,5.93,5.93,0,0,0,2,6.8c.7.6,1.7,1.3,1.8,2.2s-.9,2-1.7,2.4-2.2.7-3.2,1.1a7.25,7.25,0,0,0-2.5,1.8c-.7.7-1.6,1.4-2.6.9a6.59,6.59,0,0,1-2.1-2.3,12.56,12.56,0,0,0-2.2-2.4,16.05,16.05,0,0,0-6.1-3.1c-2.4-.7-4.7-1.4-6.6-3.1a11.56,11.56,0,0,1-3.4-5.3,11.27,11.27,0,0,1-.5-3.2.47.47,0,0,0-.5-.5.47.47,0,0,0-.5.5,12.39,12.39,0,0,0,6.8,11c2.5,1.2,5.3,1.5,7.7,2.8a17.32,17.32,0,0,1,3.1,2.2c.8.9,1.5,1.8,2.2,2.7a4,4,0,0,0,2.4,1.8,3.19,3.19,0,0,0,2.6-1,9.51,9.51,0,0,1,2.8-2,14,14,0,0,0,3.4-1.3,4.15,4.15,0,0,0,1.9-2.4,3,3,0,0,0-.9-2.7c-.8-.7-1.6-1.4-2.4-2.2a5.38,5.38,0,0,1-.9-2.5,6,6,0,0,1,2.1-4.8c1.7-1.2,4-.9,6-.8s4,0,5.4-1.6a2.14,2.14,0,0,0,.3-2.8,6.83,6.83,0,0,0-2.8-1.7c-4.4-2-9.1-3.2-13.5-5.3a25.16,25.16,0,0,1-5.9-3.9c-1.5-1.4-3.3-3.5-5.6-2.5-2,.9-2.6,3.3-3.7,5a12.08,12.08,0,0,1-5.4,4.3,10.64,10.64,0,0,1-3.5.9,19.53,19.53,0,0,0-3.4.3,3.16,3.16,0,0,0-2.2,3.8,3.14,3.14,0,0,0,3.3,2.3c.6-.1.6-1.1,0-1Z"/>
      </g>
    </g>
  </g>
</svg>
