<svg xmlns="http://www.w3.org/2000/svg" width="44.1" height="36.22" viewBox="0 0 44.1 36.22">
  <defs>
    <style>
      .cls-1 {
        fill: none;
        stroke: #000;
        stroke-miterlimit: 10;
      }
    </style>
  </defs>
  <title>klAsset 3</title>
  <g id="Layer_2" data-name="Layer 2">
    <g id="Layer_1-2" data-name="Layer 1">
      <path class="cls-1" d="M5.4,23.85C9.19,28.46,16.23,29,20.58,33.09a13.93,13.93,0,0,0,2.24,2c2.44,1.45,5.56.25,8-1.18.73-.42,1.44-.86,2.15-1.32a2.81,2.81,0,0,0,.6-4.17,13.19,13.19,0,0,1-2.8-6,3.88,3.88,0,0,1,.27-2.65c.67-1.1,2.11-1.4,3.39-1.59l6.76-1A2.79,2.79,0,0,0,42,11.84l-.06,0a10.41,10.41,0,0,0-3.37-.72A2.69,2.69,0,0,1,37,10.32c-1.33-1.23-3.6-1.27-5.51-1.56a13.55,13.55,0,0,1-7.57-3.83A38.61,38.61,0,0,0,20.11,1a2.76,2.76,0,0,0-3.72.41L13.32,4.91A24.46,24.46,0,0,1,7.73,10c-1.82,1.06-5.33.77-6.67,2.25C-1.17,14.75,3.85,22,5.4,23.85Z"/>
    </g>
  </g>
</svg>
