<svg xmlns="http://www.w3.org/2000/svg" width="165.98" height="126.82" viewBox="0 0 165.98 126.82">
  <defs>
    <style>
      .cls-1 {
        fill: none;
        stroke: #000;
        stroke-miterlimit: 10;
      }
    </style>
  </defs>
  <title>mlAsset 10</title>
  <g id="Layer_2" data-name="Layer 2">
    <g id="Layer_1-2" data-name="Layer 1">
      <path class="cls-1" d="M69.78.71c14.6,14.1,29.8,27.9,44.4,41.9a16.43,16.43,0,0,1,4.1,5.3c1.4,3.7-.1,7.7-1,11.6s-.5,8.7,3,10.5a8.37,8.37,0,0,0,5.2.5,31,31,0,0,0,10.6-3.2c2.6-1.3,5-2.9,7.8-3.7s6.1-.4,8,1.8,1.8,5.3,3.2,7.8,4.1,4,6.4,5.7,4.5,4.4,3.9,7.2a10.25,10.25,0,0,1-2.6,4.2l-7.7,8.5a19.28,19.28,0,0,1-3,2.7,21.81,21.81,0,0,1-4.5,1.6,52.3,52.3,0,0,0-11.4,4.9,215.18,215.18,0,0,0-23.4,14.3,11.63,11.63,0,0,1-5,2.4c-3.2.4-5.9-2-8.4-3.9a40.1,40.1,0,0,0-20.5-7.6,4.22,4.22,0,0,0-2.9.5c-1.1.8-1.2,2.4-1.6,3.8-1.3,5.3-6.9,8.6-12.3,8.8s-10.6-2.1-15.4-4.7c-17.6-9.7-31.8-24.3-45.9-38.7a40,40,0,0,0,15.8-21c2.3-7.2,2.5-15.2,6.6-21.5,4.4-6.9,12.4-10.4,19.5-14.6A75.94,75.94,0,0,0,68,2.61Z"/>
    </g>
  </g>
</svg>
