<svg xmlns="http://www.w3.org/2000/svg" width="192.35" height="226.75" viewBox="0 0 192.35 226.75">
  <defs>
    <style>
      .cls-1 {
        fill: none;
        stroke: #000;
        stroke-miterlimit: 10;
      }
    </style>
  </defs>
  <title>ntAsset 14</title>
  <g id="Layer_2" data-name="Layer 2">
    <g id="Layer_1-2" data-name="Layer 1">
      <path class="cls-1" d="M164.69,123.65c0-.1,2.12-3.32,2.12-3.42,8-11.7,8.68-18.13,13.48-31.53,1.7-4.8,3.1-9.8,2.8-14.8-.4-5.8-3.3-11.6-1.9-17.2s7-9.8,8.2-15.6c.9-4.2-.6-8.3-3.1-12-2.8-4.2-3.95-7.35-.35-11L190,16.39c.9-.9,2-1.89,1.86-3.19,0-.1-.46-4.1-.56-4.2-.6-1-5.4-2.4-6.1-2.8-9.7-9.5-16.1-4.6-25.4-3.1s-16.7,7.3-25.2,11.1c-9.1,4.1-18.4,8.3-26.2,14.5-4.5,3.6-9.2,8.1-15,7.7-3.8-.2-7.1-2.6-10.7-3.5-7.8-2.1-16.1,2.2-21.7,8s-9.7,13-15.2,18.9S32.39,70.5,24.39,69c-2.8-.5-5.6-1.8-8.4-1.9-4.8,0-9,3.4-11.2,7.6s-2.9,9-3.4,13.8c-.8,6.8-1.6,13.7.2,20.3s-2.6,18,4.2,18.5c1.4.1,6.4,1,7.4,2.3a.6.6,0,0,1,.1.4c.3,4.7,1.1,5.4.6,6.3-5.8,10.6-3.9,12.5-3.8,24.6,0,4,.5,8.2,2.9,11.3,7.4,9.8,24.7,1.8,34.5,9.3,9.1,7,5.8,23,14.4,30.6,11.4,10,33.1-2.7,42.8,8.9,1.5,1.8,2.7,4.2,4.9,5,3.1,1.1,6.4-1.6,7.7-4.7s1.5-6.5,3.1-9.5c4.7-9,18.6-8.8,24.4-17,1.6-2.3,2.4-5.1,3.6-7.7a94.15,94.15,0,0,1,5.8-9.6c9.12-14.68,14.62-24.37,11.16-40.52a7.91,7.91,0,0,0-1.28-3,6.72,6.72,0,0,1-.63-6.69Z"/>
    </g>
  </g>
</svg>
