<svg xmlns="http://www.w3.org/2000/svg" width="188.46" height="174.25" viewBox="0 0 188.46 174.25">
  <defs>
    <style>
      .cls-1 {
        fill: none;
        stroke: #000;
        stroke-miterlimit: 10;
      }
    </style>
  </defs>
  <title>ntpAsset 5</title>
  <g id="Layer_2" data-name="Layer 2">
    <g id="Layer_1-2" data-name="Layer 1">
      <path class="cls-1" d="M179.17,77.6c-4.7-.7-8.3-5-9.9-9.5s-1.7-9.4-2.2-14.2c-.2-1.8-.5-3.8-1.9-5-1.8-1.6-4.4-1.3-6.8-1.1a37.56,37.56,0,0,1-21-4.7c-5.4-3-10.3-7.4-16.5-8.2-1.47-.19-4.76,2.19-7.17-1.87.39.45,3.34,2.26,3.74,2.66A13.53,13.53,0,0,0,125,39.52c1.91.28,4.18.33,5.51,1.56a2.86,2.86,0,0,0,1.66.78,10.36,10.36,0,0,1,3.36.72h0a2.77,2.77,0,0,1-.71,5.27l-6.82,1c-1.28.19-2.72.49-3.39,1.59a3.79,3.79,0,0,0-.26,2.64,13.16,13.16,0,0,0,2.79,6,2.8,2.8,0,0,1-.6,4.16c-.7.46-1.42.91-2.15,1.33-2.45,1.42-5.58,2.63-8,1.18a13.45,13.45,0,0,1-2.23-2c-4.36-4.09-11.4-4.63-15.19-9.24-1.55-1.89-6.57-9.1-4.33-11.58,1.33-1.48,4.85-1.2,6.66-2.26a24.24,24.24,0,0,0,5.6-5.1l3.06-3.46c1.27-1.7,3,.66,3.76.82a.06.06,0,0,0,.07-.08c-.5-1.1-2.58-3.88-2.8-5-1.1-4.1-4.5-7-7.9-9.6-5.3-4.1-10.9-8.1-16.5-11.9-3.3-2.2-6.8-4.4-10.7-5.4-10.2-2.6-20.7,3.6-27.6,11.5s-11.6,17.6-18.8,25.3-18.1,13.4-28,10l.4.5A251.68,251.68,0,0,1,28,68.5c2.1,1.9,4.2,3.8,5.4,6.4s1.2,5.9-.8,7.9c-2.7,2.8-7.3,2-10.9,3.3-4.6,1.7-7.2,6.8-7.5,11.7s1.4,9.7,3,14.3l3.2,9.1a11.85,11.85,0,0,0,2.1,4.2c3,3.6,8.6,3.1,13,4.7,6.5,2.3,10.3,10.3,8,16.9a16.72,16.72,0,0,0-1.5,4.8c-.1,2.1,1,4,2.1,5.8a163.52,163.52,0,0,0,11.2,16l19-10.7c3.3-1.8,6.8-4,8.1-7.5,1.1-3,.3-6.5,1.2-9.6,1.1-4.1,4.8-7,8.5-9.2,12.6-7.5,27.6-10.9,38.7-20.5,2.2-1.9,4.3-4.1,6.9-5.6,4.1-2.4,9.7-3.3,11.4-7.7.8-2,.5-4.4,1.5-6.3,1.6-3.2,5.8-4,9.3-4.7a78.1,78.1,0,0,0,28-11C186.87,77.7,182.47,78.2,179.17,77.6Zm-84.6-5a1.89,1.89,0,0,1-1.2,1.4,26.78,26.78,0,0,0-5.7,3.2c-3.8,2.8-4.4,9.6-.3,12.1-2.3,3.5-7.8,2.7-11,.1s-5.1-6.5-8.2-9.4S60,75.6,57,78.5c-1.7-1.3-1.5-4-.5-5.8s2.8-3.3,3.7-5.2a8.17,8.17,0,0,0-3.9-10.7c-2.8-1.2-6.3-1-7.7-4.5a6.91,6.91,0,0,1,2.2-7.5c4-3.3,8.7-5.9,10.8-8l1.8-1.9,7.2-7.3c1.4-1.4,3-3,5.6-1.8a6.45,6.45,0,0,1,3.2,3.5c3.1,7.9,6.2,15.8,9.2,23.7,1,2.5,2,5.1,1.6,7.7-.3,2.2-1.5,4.2-1.2,6.4s2,2.9,4.1,3.3A1.86,1.86,0,0,1,94.57,72.6Z"/>
    </g>
  </g>
</svg>
