<svg xmlns="http://www.w3.org/2000/svg" width="128.54" height="264.11" viewBox="0 0 128.54 264.11">
  <defs>
    <style>
      .cls-1 {
        fill: none;
        stroke: #000;
        stroke-miterlimit: 10;
      }
    </style>
  </defs>
  <title>pitAsset 20</title>
  <g id="Layer_2" data-name="Layer 2">
    <g id="Layer_1-2" data-name="Layer 1">
      <path class="cls-1" d="M117.83,11.39c4.9,6.7,4.2,6.7,8,14.1,1.3,2.5,2.6,5.4,2.1,8.2a12.55,12.55,0,0,1-3,5.4c-6.1,7.3-14.2,12.7-21.5,18.9s-14.1,13.6-16.3,22.9c-3.5,14.7,5.3,29.9,3.2,44.9-.5,3.5-1.6,7-1.4,10.5a26.43,26.43,0,0,0,2.3,8.2l5.4,13.9c2,5.1,4.3,10.5,9,13.2,4,2.2,9.1,2,12.9,4.4,5.6,3.6,6.5,11.2,6.9,17.8.8,13.4,1.6,27.2-3.4,39.7-3.9,9.8-11.4,18.5-11.7,29.1-2.7,1.8-6.4,1-9.1-.7s-5.2-3.9-8.1-5.3a14.76,14.76,0,0,0-11.3-.4c-1,.4-2.1.8-2.9.3a3.33,3.33,0,0,1-1.1-2.1,67.55,67.55,0,0,1-1.1-18.5c.5-5.8,1.7-11.5,2-17.4,1.1-20.6-9.5-39.8-20.3-57.4-10.6-17.3-23-35.5-42.3-41.9-6.5-2.2-15-4.4-15.6-11.2-.3-3.2,1.4-6.1,2.6-9.1,3.8-9.2,2.8-19.6,3.3-29.5.8-18.5,6.7-36.3,12.4-53.9.9-2.6,1.8-5.4,4-7.2C27,4.89,33,6.89,38.43,7c7.2.1,13.8-3.6,20.8-5.3,17.3-4.2,35.3,4.2,53,2.3Z"/>
    </g>
  </g>
</svg>
