<svg xmlns="http://www.w3.org/2000/svg" width="512.16" height="939.82" viewBox="0 0 512.16 939.82">
  <defs>
    <style>
      .cls-1, .cls-2, .cls-3 {
        fill: #fff;
      }

      .cls-1 {
        stroke: #000;
        stroke-miterlimit: 10;
      }

      .cls-2 {
        stroke: #1a1a1a;
        stroke-linejoin: round;
      }
    </style>
  </defs>
  <title>taiwanAsset 1</title>
  <g id="Layer_2" data-name="Layer 2">
    <g id="Layer_1-2" data-name="Layer 1">
      <g id="Layer_2-2" data-name="Layer 2-2">
        <path class="cls-1" d="M325.56,48.4a251.68,251.68,0,0,1,26.1,20.1c2.1,1.9,4.2,3.8,5.4,6.4s1.2,5.9-.8,7.9c-2.7,2.8-7.3,2-10.9,3.3-4.6,1.7-7.2,6.8-7.5,11.7s1.4,9.7,3,14.3l3.2,9.1a11.85,11.85,0,0,0,2.1,4.2c3,3.6,8.6,3.1,13,4.7,6.5,2.3,10.3,10.3,8,16.9a16.72,16.72,0,0,0-1.5,4.8c-.1,2.1,1,4,2.1,5.8a163.52,163.52,0,0,0,11.2,16l19-10.7c3.3-1.8,6.8-4,8.1-7.5,1.1-3,.3-6.5,1.2-9.6,1.1-4.1,4.8-7,8.5-9.2,12.6-7.5,27.6-10.9,38.7-20.5,2.2-1.9,4.3-4.1,6.9-5.6,4.1-2.4,9.7-3.3,11.4-7.7.8-2,.5-4.4,1.5-6.3,1.6-3.2,5.8-4,9.3-4.7a78.1,78.1,0,0,0,28-11c-1-3.1-5.4-2.6-8.7-3.2-4.7-.7-8.3-5-9.9-9.5s-1.7-9.4-2.2-14.2c-.2-1.8-.5-3.8-1.9-5-1.8-1.6-4.4-1.3-6.8-1.1a37.56,37.56,0,0,1-21-4.7c-5.4-3-10.3-7.4-16.5-8.2-3.1-.4-7-.1-8.7-2.8a11.45,11.45,0,0,1-1.2-4.1c-1.1-4.1-4.5-7-7.9-9.6-5.3-4.1-10.9-8.1-16.5-11.9-3.3-2.2-6.8-4.4-10.7-5.4-10.2-2.6-20.7,3.6-27.6,11.5s-11.6,17.6-18.8,25.3-18.1,13.4-28,10"/>
        <path class="cls-2" d="M387.06,34.9l7.2-7.3c1.4-1.4,3-3,5.6-1.8a6.45,6.45,0,0,1,3.2,3.5c3.1,7.9,6.2,15.8,9.2,23.7,1,2.5,2,5.1,1.6,7.7-.3,2.2-1.5,4.2-1.2,6.4s2,2.9,4.1,3.3a1.86,1.86,0,0,1,1.5,2.2,1.89,1.89,0,0,1-1.2,1.4,26.78,26.78,0,0,0-5.7,3.2c-3.8,2.8-4.4,9.6-.3,12.1-2.3,3.5-7.8,2.7-11,.1s-5.1-6.5-8.2-9.4-8.2-4.4-11.2-1.5c-1.7-1.3-1.5-4-.5-5.8s2.8-3.3,3.7-5.2A8.17,8.17,0,0,0,380,56.8c-2.8-1.2-6.3-1-7.7-4.5a6.91,6.91,0,0,1,2.2-7.5c4-3.3,8.7-5.9,10.8-8Z"/>
        <g>
          <path class="cls-3" d="M419.86,47.2a2.66,2.66,0,0,1-2.9-2.3,2.54,2.54,0,0,1,1.1-2.4c1-.7,2.4-.6,3.6-.7a13,13,0,0,0,10.5-6.6c.9-1.6,1.6-3.5,3.4-3.8s3.1,1.2,4.3,2.5c5.6,5.5,14.1,6.6,21.1,10.1.7.4,1.5.9,1.5,1.7a1.85,1.85,0,0,1-.5,1.2c-2.2,2.8-6.8.7-10.2,1.9s-4.8,6.4-2.1,9c1,1.1,2.6,1.9,2.8,3.3s-1.2,2.5-2.5,3-2.8.7-3.9,1.5-2,2.3-3.4,2.3-2.3-1.4-3.1-2.6a13.91,13.91,0,0,0-5.6-4.6c-2.2-1-4.6-1.3-6.8-2.3a11.9,11.9,0,0,1-6.6-10.6"/>
          <path d="M419.86,46.7a2.12,2.12,0,0,1-2.4-1.7,2.21,2.21,0,0,1,1.6-2.5,19.53,19.53,0,0,1,3.4-.3,16.28,16.28,0,0,0,3-.7,13.46,13.46,0,0,0,5.1-3.4,12.42,12.42,0,0,0,1.9-2.6,17.36,17.36,0,0,1,1.5-2.6,2.28,2.28,0,0,1,2.6-1,7.27,7.27,0,0,1,2.6,2,21.19,21.19,0,0,0,5.1,3.8c3.9,2.1,8.2,3.3,12.4,5,1,.4,2.1.8,3.1,1.3.8.4,2.6,1,2.1,2.1-.8,1.9-3.4,1.8-5.1,1.8-1.9,0-3.9-.2-5.7.5a6.11,6.11,0,0,0-3,3.5,5.93,5.93,0,0,0,2,6.8c.7.6,1.7,1.3,1.8,2.2s-.9,2-1.7,2.4-2.2.7-3.2,1.1a7.25,7.25,0,0,0-2.5,1.8c-.7.7-1.6,1.4-2.6.9a6.59,6.59,0,0,1-2.1-2.3,12.56,12.56,0,0,0-2.2-2.4,16.05,16.05,0,0,0-6.1-3.1c-2.4-.7-4.7-1.4-6.6-3.1a11.56,11.56,0,0,1-3.4-5.3,11.27,11.27,0,0,1-.5-3.2.5.5,0,1,0-1,0,12.39,12.39,0,0,0,6.8,11c2.5,1.2,5.3,1.5,7.7,2.8a17.32,17.32,0,0,1,3.1,2.2c.8.9,1.5,1.8,2.2,2.7a4,4,0,0,0,2.4,1.8,3.19,3.19,0,0,0,2.6-1,9.51,9.51,0,0,1,2.8-2,14,14,0,0,0,3.4-1.3,4.15,4.15,0,0,0,1.9-2.4,3,3,0,0,0-.9-2.7c-.8-.7-1.6-1.4-2.4-2.2a5.38,5.38,0,0,1-.9-2.5,6,6,0,0,1,2.1-4.8c1.7-1.2,4-.9,6-.8s4,0,5.4-1.6a2.14,2.14,0,0,0,.3-2.8,6.83,6.83,0,0,0-2.8-1.7c-4.4-2-9.1-3.2-13.5-5.3a25.16,25.16,0,0,1-5.9-3.9c-1.5-1.4-3.3-3.5-5.6-2.5-2,.9-2.6,3.3-3.7,5a12.08,12.08,0,0,1-5.4,4.3,10.64,10.64,0,0,1-3.5.9,19.53,19.53,0,0,0-3.4.3,3.11,3.11,0,0,0,1.1,6.1c.6-.1.6-1.1,0-1Z"/>
        </g>
        <path class="cls-1" d="M251.06,98.1c5.6-1.5,8.4-7.8,10-13.4s3.5-11.9,8.6-14.6c2.8-1.5,6-1.6,9.2-1.9a57.37,57.37,0,0,0,25.3-8.9c6.8-4.4,14.4-10.6,22.1-8,3.4,1.1,6,3.8,8.9,6,4.8,3.8,10.6,6.4,15,10.7s7.4,11.1,4.6,16.6a7.1,7.1,0,0,1-1,1.4,7.49,7.49,0,0,1-3.5,1.6c-9.1,3.2-14.3,14.5-10.7,23.5,1.1,2.7,2.8,5.1,3.8,7.8s1.5,6.1,3.8,8.1,5.6,1.7,8.5,2.3a14.13,14.13,0,0,1,10.5,10.8c.9,4.3-.4,8.8.3,13.1,1.1,7.2,7.2,12.6,10.1,19.3a18.56,18.56,0,0,1,.8,13.7,13.18,13.18,0,0,1-10,8.8c-2.4.4-5,0-7.4.7-1.7.5-3.2,1.6-5,1.4-2.3-.2-3.8-2.5-5-4.5l-15.3-26.9a37.74,37.74,0,0,1-3.5-7.3c-1.4-4.2-1.5-9-4.2-12.5-1.8-2.4-4.6-3.8-7.3-5.1l-24.8-12.4a5.5,5.5,0,0,1-3-2.6c-.6-1.3,0-2.9,0-4.3,0-4.9-5.4-7.8-10.1-9s-10.2-2.4-12.4-6.8c-.9-1.9-1.2-4.3-2.9-5.5a7.62,7.62,0,0,0-4.2-.9l-12.7.1"/>
        <path class="cls-1" d="M249.76,101.2c-3.9,6-7.7,12.2-11.2,18.5-1,1.7-2,3.8-1.3,5.6.5,1.4,1.8,1.5,3,2.3,4.9,3,9.6,6.2,14.2,9.6,4.4,3.5,8,8.4,8.3,14-3.7,1.7-7.8-1.1-10.6-4-.7-.7-1.6-1.5-2.5-1.3a2.93,2.93,0,0,0-1.6,1.3l-9.2,12.3a3.37,3.37,0,0,0-.8,1.7c0,2.6,4.4,1.3,6.4,2.9a5.22,5.22,0,0,1,1.4,2.5c5.1,13.6,25,17.3,29.3,31.2,1.9,6.2.1,12.8-1.5,19a5,5,0,0,0-.2,2.7c.6,2,3.1,2.6,5.2,2.6,10.3-.1,20-5.9,30.3-5.4a10,10,0,0,1,5.5,1.6c6,4.2,1.7,14.5,6.1,20.3a4.3,4.3,0,0,0,2.4,1.8,7.69,7.69,0,0,0,3-.3c18.3-5.7,31.9-24,32.1-43.2-3.4,0-6.3-2.8-8-5.8s-2.5-6.4-4-9.5c-3-5.9-8.6-10.2-11.5-16.1-2.5-5-2.9-10.8-5.5-15.7-5.8-11-19.8-13.9-30.3-20.4a15.15,15.15,0,0,1-5-4.4c-1.3-1.8-1.8-4.1-3-6-1.8-3-4.9-4.8-7.9-6.6L270,104.8c-5.8-3.4-11.9-6.9-18.6-7Z"/>
        <path class="cls-1" d="M235.06,127.6c-3,1.9-2.5,4.6-3.4,8.1s-1,7-1.9,10.4c-1.3,5.1.6,4.3-3.5,7.7l13.4,8.9c-1.7-3.7.7-7.9,3.5-10.9,3.2-3.5,8.3-6.5,12.4-4.2a32.57,32.57,0,0,0,3.4,2.2c1.2.5,3,.4,3.6-.9a3.75,3.75,0,0,0,0-2.1,13,13,0,0,0-2.2-4.6c-5.6-7.1-11.6-15.1-20.2-18a2,2,0,0,0-2.4,1Z"/>
        <path class="cls-1" d="M226.36,153.8c14.6,14.1,29.8,27.9,44.4,41.9a16.43,16.43,0,0,1,4.1,5.3c1.4,3.7-.1,7.7-1,11.6s-.5,8.7,3,10.5a8.37,8.37,0,0,0,5.2.5,31,31,0,0,0,10.6-3.2c2.6-1.3,5-2.9,7.8-3.7s6.1-.4,8,1.8,1.8,5.3,3.2,7.8,4.1,4,6.4,5.7,4.5,4.4,3.9,7.2a10.25,10.25,0,0,1-2.6,4.2l-7.7,8.5a19.28,19.28,0,0,1-3,2.7,21.81,21.81,0,0,1-4.5,1.6,52.3,52.3,0,0,0-11.4,4.9,215.18,215.18,0,0,0-23.4,14.3,11.63,11.63,0,0,1-5,2.4c-3.2.4-5.9-2-8.4-3.9a40.1,40.1,0,0,0-20.5-7.6,4.22,4.22,0,0,0-2.9.5c-1.1.8-1.2,2.4-1.6,3.8-1.3,5.3-6.9,8.6-12.3,8.8s-10.6-2.1-15.4-4.7c-17.6-9.7-31.8-24.3-45.9-38.7a40,40,0,0,0,15.8-21c2.3-7.2,2.5-15.2,6.6-21.5,4.4-6.9,12.4-10.4,19.5-14.6a75.94,75.94,0,0,0,25.3-23.2Z"/>
        <path class="cls-1" d="M156.46,243c-12.2,18-21.8,31-34,49-2.8,4.1-5.7,8.7-4.8,13.6.5,3.1,2.5,5.7,4.5,8.2,4.4,5.6,8.9,11.3,15.1,14.8,4.9,2.8,10.9,4.1,14.7,8.3,3.3,3.7,4.3,9,6.9,13.3,5,8,15.1,11,24.4,12.2a12.65,12.65,0,0,0,5.8-.2c2.3-.8,4-2.8,5.4-4.8,3.9-5.5,6.8-11.7,10.8-17.1s9.4-10.3,16.1-11.4c7.3-1.2,14.9,2.1,22.1.3,4.1-1.1,7.6-3.8,11.1-6.3a123.5,123.5,0,0,1,42-19.3c5.9-1.5,11.8-2.5,17.7-3.5,8.8-1.5,18.4-2.9,26.1,1.5,1.1.6,2.4,1.4,3.6,1s1.9-2.1,2.2-3.5c3.8-14.8,16.1-25.6,23.9-38.7.7-1.2,1.4-2.8.6-4-1-1.3-3-.9-4.6-.5a23.17,23.17,0,0,1-25.3-11.4c-1.4-2.7-2.4-5.9-5-7.5-3-1.9-7.2-.8-10,1.4s-4.8,5.3-7.2,8c-12.5,14-34.7,14.9-48.6,27.6-2.4,2.2-5,4.9-8.2,4.8-2.4-.1-4.5-1.8-6.2-3.5-3.6-3.6-6.9-7.8-11.6-9.8s-11.3-.8-13,4c-.5,1.5-.5,3.2-1.2,4.6-1.1,2.1-3.5,3.2-5.9,3.7-8,1.7-16.4-1-23.3-5.3s-12.8-10.1-19-15.5a174.33,174.33,0,0,0-24.4-17.4Z"/>
        <path class="cls-1" d="M119.86,307.5a764.77,764.77,0,0,0-57.4,95.1,9,9,0,0,0-1.3,4.2c.1,2.4,2.2,4.4,4.5,5.1a17.47,17.47,0,0,0,7.2.1l29-3.4a20.47,20.47,0,0,1,7.8,0c3.2.8,5.8,3,8.7,4.8,10.7,6.6,24,6.8,36.6,6.8,7,0,15.5-.9,18.5-7.3-3.6-3.1-9.6-1.6-13.2-4.7-1.8-1.6-2.5-4-3.1-6.3a58.72,58.72,0,0,1,3.8-37.4c.9-2,2-4.1,2.1-6.4a12.77,12.77,0,0,0-1.8-6.1c-4-8.5-8.3-17.5-16.1-22.8-3.9-2.6-8.4-4.2-12.2-6.9-5.6-4.1-9.1-10.4-12.4-16.5Z"/>
        <path class="cls-1" d="M62.56,411.4c-6.8,1.1-12.5,5.9-16.2,11.7s-5.9,12.4-7.8,18.9c-4.7,15.9-8.8,31.9-12.3,48.2a5.45,5.45,0,0,0,0,3.1,3.9,3.9,0,0,0,2,2c8,5.1,18.6,4.7,27.4,1s16-10.1,22.7-16.9c6.4-6.5,12.8-13.5,21.3-16.6,9.6-3.4,20.5-1,29.2,4.4,3.6,2.2,6.9,4.9,10.8,6.4a44,44,0,0,0,10.2,2.1l32,3.8a3.66,3.66,0,0,0,2.5-.3c1.4-.9,1.1-2.9.6-4.5-.9-3-2-6.2-4.7-7.9-3.8-2.4-8.7-.4-13.1.5s-10.5-.8-10.4-5.2a13.1,13.1,0,0,1,.6-2.7,121.78,121.78,0,0,0,5.7-30.4,15.86,15.86,0,0,0-.6-6.5c-1.7-4.4-6.9-6.4-11.6-6.6s-9.4.9-14.1.6c-8.4-.5-15.9-5.4-24.2-7.3-8-1.8-16.3-.6-24.4.6-9.2,1.3-13.5-.4-22.6,1Z"/>
        <path class="cls-1" d="M29.26,498.1c-2.3-1.6-5.3-.9-6,1.7s.6,5.2,1.5,7.8c3.3,9.9.1,20.7-.1,31.1-.1,3.3.2,6.8,2,9.6,3.3,5.5,10.7,6.9,17,5.8,12.2-2.1,21.7-11.4,31.5-18.9s22.6-14,34.2-9.6c7.1,2.7,12.3,9.2,14.9,16.4s2.8,15,2.3,22.6c-.2,3.6-.4,7.7,2.3,10.1,1.5,1.4,3.7,1.9,5.7,2.3a143,143,0,0,0,30.6,2.3l-.4-13.7c-.1-2.4-.1-5.2,1.7-6.9a9.62,9.62,0,0,1,4.2-2c6-2,11.3-5.7,16.5-9.4,9.6-6.8,19.3-13.6,27.1-22.4,2.8-3.2,5.5-6.7,9.4-8.5s9.4-2.3,10.5-6.5c-7-1.7-14.9.1-21.3-3.2-7.1-3.7-10-12.9-8.6-20.8.5-3,1.6-6.1.5-8.9a13.32,13.32,0,0,0-3.9-4.6c-2.5-2.2-5.2-4.4-8.5-5s-7.2,1.1-7.8,4.4c-.4,2,.2,4.9-1.8,5.6a3.81,3.81,0,0,1-1.5.1l-33.2-2.8c-4-.3-8.2-.7-11.9-2.3-6.8-2.9-11.5-9.4-18.3-12.1-10.2-4.1-21.8,1.3-29.9,8.6s-14.4,16.7-23.5,22.9c-10.5,7.2-21.6,10-33.8,6.4Z"/>
        <path class="cls-1" d="M23.06,543.2c-5.2,4.8-4.5,13-5.2,20.1-1.7,18.8-15,35-17.2,53.8a10.27,10.27,0,0,0,.4,5.2c.8,2,2.7,3.4,4.4,4.7A100.93,100.93,0,0,1,28,651.5c2.4,3.6,4.6,7.5,8,10.2s8,3.8,12.4,4.6a111.78,111.78,0,0,0,38.7-.1c4.6-.8,9.4-2.1,12.6-5.4,2.3-2.3,3.6-5.4,5-8.3,13.2-26.1,43.6-40.2,56.7-66.4a8.39,8.39,0,0,0,1.1-4.1c-.2-2.3-2.4-4-4.7-4.6s-4.6-.2-7-.1a34.82,34.82,0,0,1-16.8-3.5,9,9,0,0,1-4.2-3.5c-1.4-2.7-.1-5.8.5-8.8,1.6-7.5-1.8-15.4-7-21.1s-12-9.6-18.6-13.5c-3-1.7-6.1-3.5-9.5-3.4a17.57,17.57,0,0,0-7.1,2,88.12,88.12,0,0,0-25.3,17.9c-6.4,6.5-13.7,14.7-22.6,13-7.3-1.3-11.6-8.6-14.9-15.3Z"/>
        <path class="cls-1" d="M250.06,538.7c-1.4-2.5,1.3-5.3,3.9-6.5s5.8-2,7-4.5c.9-2.1.2-4.5-.6-6.6-1.9-5.3-4.3-11.2-9.5-13.3-5.8-2.3-12.1,1.2-17.3,4.5-18.4,11.7-37.1,23.7-50.9,40.5-3.7,4.5-8.4,9.8-14,8.5-2.4-.5-5-2.2-7-.8-1.4,1.1-1.5,3.2-1.4,4.9.3,16.8-5.7,34-17.4,46.1-4.4,4.5-9.4,8.4-14,12.7-11.3,10.9-19.2,24.6-29.8,35.9-2.6,2.8-5.4,5.4-8.8,6.9-6.1,2.7-13,1.5-19.6.5a199,199,0,0,0-24.3-2c-3.9-.1-8.8.6-10.1,4.2-.7,1.9-.2,3.9.4,5.8,5.2,18,14,35.2,16.2,53.9.5,4.6.7,9.4,2.5,13.7a37.2,37.2,0,0,0,5.7,8.5,232,232,0,0,0,37.3,35.5c8.1-17.3,8-37.2,10.5-56.2,1.7-12.8,4.7-25.3,7.7-37.8.4-1.6.8-3.3,2.2-4.3,1.6-1.2,3.8-.8,5.7-.8,11.8.4,20.9-10.3,32.3-13.5,18.5-5.1,36.8,10.5,56,9.7a7.51,7.51,0,0,0,2.6-.5c2.6-1.2,3-4.9,1.8-7.6s-3.4-4.6-5-7c-4-5.9-3.8-13.8-1.8-20.6s5.6-13.1,8.1-19.7c5-13,5.7-27.3,9.7-40.7s12.8-26.8,26.4-30c4.1-1,9.6-2,10-6.2.8-7.5-15.7-7.6-14.5-15.1"/>
        <path class="cls-1" d="M215.86,687.1c4.9,6.7,4.2,6.7,8,14.1,1.3,2.5,2.6,5.4,2.1,8.2a12.55,12.55,0,0,1-3,5.4c-6.1,7.3-14.2,12.7-21.5,18.9s-14.1,13.6-16.3,22.9c-3.5,14.7,5.3,29.9,3.2,44.9-.5,3.5-1.6,7-1.4,10.5a26.43,26.43,0,0,0,2.3,8.2l5.4,13.9c2,5.1,4.3,10.5,9,13.2,4,2.2,9.1,2,12.9,4.4,5.6,3.6,6.5,11.2,6.9,17.8.8,13.4,1.6,27.2-3.4,39.7-3.9,9.8-11.4,18.5-11.7,29.1-2.7,1.8-6.4,1-9.1-.7s-5.2-3.9-8.1-5.3a14.76,14.76,0,0,0-11.3-.4c-1,.4-2.1.8-2.9.3a3.33,3.33,0,0,1-1.1-2.1,67.55,67.55,0,0,1-1.1-18.5c.5-5.8,1.7-11.5,2-17.4,1.1-20.6-9.5-39.8-20.3-57.4-10.6-17.3-23-35.5-42.3-41.9-6.5-2.2-15-4.4-15.6-11.2-.3-3.2,1.4-6.1,2.6-9.1,3.8-9.2,2.8-19.6,3.3-29.5.8-18.5,6.7-36.3,12.4-53.9.9-2.6,1.8-5.4,4-7.2,4.2-3.4,10.2-1.4,15.6-1.3,7.2.1,13.8-3.6,20.8-5.3,17.3-4.2,35.3,4.2,53,2.3Z"/>
        <path class="cls-1" d="M384.46,523.9c-1.5-5.3-8.6-7.2-13.7-5.2s-8.6,6.6-11.9,11c-1.3,1.7-2.6,3.6-2.8,5.8s.9,4,1.4,6c1.6,5.9-.8,12-3.2,17.6l-14.9,35.5c-2.7,6.5-6.8,14-13.8,14.4-4.8.3-9.1-3-12.1-6.8s-5.2-8.2-8.7-11.4c-10.7-10.1-31.3-8.5-37-22-1.1-2.6-1.5-5.5-3.2-7.8-2.5-3.4-7.5-4.2-11.6-2.9s-7.3,4.2-10.2,7.4c-24.1,25.8-29.5,63.5-33.7,98.6-.8,6.6-1.6,13.5.9,19.6,4,9.9,15.9,18.1,12.6,28.2-1,3.1-3.4,5.5-5.6,7.9a287.6,287.6,0,0,0-20.8,24.6c-3.6,4.8-7.2,9.8-8.5,15.7-2.1,9.7,2.3,19.5,3,29.4.6,9.2-2,18.4-.9,27.5,2.2,17.7,17.6,30.3,31.8,41,1.7-9.4,3.4-18.8,5.7-28.1,6.9-28.5,18.7-55.6,30.4-82.5,3-6.8,6-13.7,11.2-19,9.7-9.9,25.7-13,32.6-25,4.6-8,3.9-18.5,9.2-26.1,2.7-3.9,6.8-6.7,10.4-9.9,9-8,15.1-18.7,21-29.2,5.7-10.2,11.5-20.4,15.1-31.5,2.9-8.8,4.4-17.9,6.5-26.9,4.6-20,10.3-35.6,20.3-53.5Z"/>
        <path class="cls-1" d="M312.56,418.2c0-.1.1-.2.1-.3,8-11.7,11.9-23.2,16.7-36.6,1.7-4.8,3.1-9.8,2.8-14.8-.4-5.8-3.3-11.6-1.9-17.2s7-9.8,8.2-15.6c.9-4.2-.6-8.3-3.1-12a10.63,10.63,0,0,1,1.5-13.4h0c.9-.9,2.3-3.1,2.2-4.4a.37.37,0,0,0-.1-.3,30.67,30.67,0,0,0-4.7-4.8c-9.7-9.5-16.1-4.6-25.4-3.1s-16.7,7.3-25.2,11.1c-9.1,4.1-18.4,8.3-26.2,14.5-4.5,3.6-9.2,8.1-15,7.7-3.8-.2-7.1-2.6-10.7-3.5-7.8-2.1-16.1,2.2-21.7,8s-9.7,13-15.2,18.9-13.4,10.7-21.4,9.2c-2.8-.5-5.6-1.8-8.4-1.9-4.8,0-9,3.4-11.2,7.6s-2.9,9-3.4,13.8c-.8,6.8-1.6,13.7.2,20.3s-2.6,18,4.2,18.5c1.4.1,6.4,1,7.4,2.3a.6.6,0,0,1,.1.4c.3,4.7,1.1,5.4.6,6.3-5.8,10.6-3.9,12.5-3.8,24.6,0,4,.5,8.2,2.9,11.3,7.4,9.8,24.7,1.8,34.5,9.3,9.1,7,5.8,23,14.4,30.6,11.4,10,33.1-2.7,42.8,8.9,1.5,1.8,2.7,4.2,4.9,5,3.1,1.1,6.4-1.6,7.7-4.7s1.5-6.5,3.1-9.5c4.7-9,18.6-8.8,24.4-17,1.6-2.3,2.4-5.1,3.6-7.7a94.15,94.15,0,0,1,5.8-9.6c9.5-15.3,13.3-33.1,8.9-50.5v-.5Z"/>
        <path class="cls-1" d="M418.46,261.6l32.3,16.3a3.17,3.17,0,0,1,1.6,1.4c.5,1.2-.7,2.3-1.7,3.1-16.9,13.2-25.9,33.8-34.2,53.5-1.8,4.2-3.6,8.9-2,13.2.8,2.1,2.3,3.9,2.9,6.1a13.92,13.92,0,0,1-.4,6.4Q400.31,438,383.76,514.4c-.6,2.9-2.5,6.6-5.4,5.8a11.25,11.25,0,0,1-2.1-1.2c-5.5-3.7-13.4.4-16.4,6.4s-2.7,12.9-3.2,19.5c-1.7,21.2-12.4,40.6-25.4,57.3-3.8,4.9-10.5,10-15.5,6.3-1.8-1.4-2.7-3.6-3.7-5.7A51.69,51.69,0,0,0,287,577.6c-6.2-2.9-13.4-4.7-17.8-10.1-2.4-3-3.7-6.7-5.2-10.2a64,64,0,0,0-14.5-20.8c10.7-9.9,12-27.5,23.6-36.5,4.3-3.4,9.7-5.1,14-8.6,3.8-3.1,6.4-7.4,8.9-11.6,8.5-14.1,17.2-29,18.6-45.4.6-7.2-.2-14.4.4-21.6,1.2-13,7.1-25,11.5-37.2a157.27,157.27,0,0,0,8.8-56.9c-.1-3.3-.3-6.7.8-9.8,1.3-3.5,4.1-6.2,6.6-9.1,11.4-13,16.3-31.1,29-42.8a10.38,10.38,0,0,1,4.8-2.9c3.9-.9,7.5,2.1,9.9,5.4s4.1,7,7.5,9.1c4.4,2.7,10.1,1.7,14.7-.7a53.8,53.8,0,0,0,6.6-3.8Z"/>
        <path class="cls-1" d="M502.56,88c-26,14.4-41.9,45.3-38.6,74.8.8,6.6,2.5,13.3,6.4,18.8,4.4,6.2,11.8,11.3,11.9,18.8a22.23,22.23,0,0,1-1.8,7.6,744.68,744.68,0,0,1-30.3,69.9A104,104,0,0,0,417,261.1c-3.2-.9-6.7-1.7-9.6-.2-3.2,1.7-4.8,5.6-8,7.2-3.6,1.8-8,0-11-2.6s-5.4-6-8.6-8.4c-6.6-4.8-15.4-4.4-23.4-5.8s-17-6.7-16.6-14.9c.3-6.7,6.6-11.2,10.4-16.7,5-7.3,5.7-17.1,11.7-23.6,5.1-5.5,13.5-7.6,17.5-14,3.4-5.4,3.2-13,8.1-17.1,3.2-2.6,7.6-3,11-5.3,7-4.7,7.2-15.5,13.7-20.8,2.6-2.1,6-3.1,9.3-4.1,10.1-3.1,20.3-6.8,28.6-13.3,7.4-5.8,12.9-13.7,19.8-20.1,9.9-9.2,19.6-13.9,33-15.9.8.8,3,.9,1.9.8Z"/>
      </g>
    </g>
  </g>
</svg>
