<svg xmlns="http://www.w3.org/2000/svg" width="254.52" height="127.62" viewBox="0 0 254.52 127.62">
  <defs>
    <style>
      .cls-1 {
        fill: none;
        stroke: #000;
        stroke-miterlimit: 10;
      }
    </style>
  </defs>
  <title>mlAsset 11</title>
  <g id="Layer_2" data-name="Layer 2">
    <g id="Layer_1-2" data-name="Layer 1">
      <path class="cls-1" d="M39.47,7.47c-12.2,18-21.8,31-34,49-2.8,4.1-5.7,8.7-4.8,13.6.5,3.1,2.5,5.7,4.5,8.2,4.4,5.6,8.9,11.3,15.1,14.8,4.9,2.8,10.9,4.1,14.7,8.3,3.3,3.7,4.3,9,6.9,13.3,5,8,15.1,11,24.4,12.2a12.65,12.65,0,0,0,5.8-.2c2.3-.8,4-2.8,5.4-4.8,3.9-5.5,6.8-11.7,10.8-17.1s9.4-10.3,16.1-11.4c7.3-1.2,14.9,2.1,22.1.3,4.1-1.1,7.6-3.8,11.1-6.3a123.5,123.5,0,0,1,42-19.3c5.9-1.5,11.8-2.5,17.7-3.5,8.8-1.5,18.4-2.9,26.1,1.5,1.1.6,2.4,1.4,3.6,1s1.9-2.1,2.2-3.5c3.8-14.8,16.1-25.6,23.9-38.7.7-1.2,1.4-2.8.6-4-1-1.3-3-.9-4.6-.5A23.17,23.17,0,0,1,223.77,9c-1.4-2.7-2.4-5.9-5-7.5-3-1.9-7.2-.8-10,1.4s-4.8,5.3-7.2,8c-12.5,14-34.7,14.9-48.6,27.6-2.4,2.2-5,4.9-8.2,4.8-2.4-.1-4.5-1.8-6.2-3.5-3.6-3.6-6.9-7.8-11.6-9.8s-11.3-.8-13,4c-.5,1.5-.5,3.2-1.2,4.6-1.1,2.1-3.5,3.2-5.9,3.7-8,1.7-16.4-1-23.3-5.3s-12.8-10.1-19-15.5a174.33,174.33,0,0,0-24.4-17.4Z"/>
    </g>
  </g>
</svg>
