<svg xmlns="http://www.w3.org/2000/svg" width="162.96" height="145.44" viewBox="0 0 162.96 145.44">
  <defs>
    <style>
      .cls-1 {
        fill: none;
        stroke: #000;
        stroke-miterlimit: 10;
      }
    </style>
  </defs>
  <title>tnanAsset 18</title>
  <g id="Layer_2" data-name="Layer 2">
    <g id="Layer_1-2" data-name="Layer 1">
      <path class="cls-1" d="M23.06,20.2c-5.2,4.8-4.5,13-5.2,20.1-1.7,18.8-15,35-17.2,53.8a10.27,10.27,0,0,0,.4,5.2c.8,2,2.7,3.4,4.4,4.7A100.93,100.93,0,0,1,28,128.5c2.4,3.6,4.6,7.5,8,10.2s8,3.8,12.4,4.6a111.78,111.78,0,0,0,38.7-.1c4.6-.8,9.4-2.1,12.6-5.4,2.3-2.3,3.6-5.4,5-8.3,13.2-26.1,43.6-40.2,56.7-66.4a8.39,8.39,0,0,0,1.1-4.1c-.2-2.3-2.4-4-4.7-4.6s-4.6-.2-7-.1A34.82,34.82,0,0,1,134,50.8a9,9,0,0,1-4.2-3.5c-1.4-2.7-.1-5.8.5-8.8,1.6-7.5-1.8-15.4-7-21.1s-12-9.6-18.6-13.5c-3-1.7-6.1-3.5-9.5-3.4a17.57,17.57,0,0,0-7.1,2,88.12,88.12,0,0,0-25.3,17.9c-6.4,6.5-13.7,14.7-22.6,13-7.3-1.3-11.6-8.6-14.9-15.3Z"/>
    </g>
  </g>
</svg>
