<?xml version="1.0" encoding="utf-8"?>
<!-- Generator: Adobe Illustrator 23.1.1, SVG Export Plug-In . SVG Version: 6.00 Build 0)  -->
<svg version="1.1" id="Layer_1" xmlns="http://www.w3.org/2000/svg" xmlns:xlink="http://www.w3.org/1999/xlink" x="0px" y="0px"
	 viewBox="0 0 47.4 67.3" style="enable-background:new 0 0 47.4 67.3;" xml:space="preserve">
<style type="text/css">
	.st0{fill:none;stroke:#1A1A1A;stroke-linejoin:round;}
</style>
<path class="st0" d="M15.6,10l7.2-7.3c1.4-1.4,3-3,5.6-1.8c1.5,0.7,2.6,2,3.2,3.5c3.1,7.9,6.2,15.8,9.2,23.7c1,2.5,2,5.1,1.6,7.7
	c-0.3,2.2-1.5,4.2-1.2,6.4s2,2.9,4.1,3.3c1,0.2,1.7,1.1,1.5,2.2c0,0,0,0,0,0c-0.1,0.6-0.6,1.2-1.2,1.4c-2,0.8-3.9,1.9-5.7,3.2
	c-3.8,2.8-4.4,9.6-0.3,12.1c-2.3,3.5-7.8,2.7-11,0.1s-5.1-6.5-8.2-9.4s-8.2-4.4-11.2-1.5c-1.7-1.3-1.5-4-0.5-5.8s2.8-3.3,3.7-5.2
	c1.8-4,0.1-8.8-3.9-10.7c-2.8-1.2-6.3-1-7.7-4.5c-0.9-2.7,0-5.7,2.2-7.5c4-3.3,8.7-5.9,10.8-8L15.6,10z"/>
</svg>
