<svg xmlns="http://www.w3.org/2000/svg" width="198.38" height="341.47" viewBox="0 0 198.38 341.47">
  <defs>
    <style>
      .cls-1 {
        fill: none;
        stroke: #000;
        stroke-miterlimit: 10;
      }
    </style>
  </defs>
  <title>ttAsset 21</title>
  <g id="Layer_2" data-name="Layer 2">
    <g id="Layer_1-2" data-name="Layer 1">
      <path class="cls-1" d="M197.86,6.48c-1.5-5.3-8.6-7.2-13.7-5.2s-8.6,6.6-11.9,11c-1.3,1.7-2.6,3.6-2.8,5.8s.9,4,1.4,6c1.6,5.9-.8,12-3.2,17.6l-14.9,35.5c-2.7,6.5-6.8,14-13.8,14.4-4.8.3-9.1-3-12.1-6.8s-5.2-8.2-8.7-11.4c-10.7-10.1-31.3-8.5-37-22-1.1-2.6-1.5-5.5-3.2-7.8-2.5-3.4-7.5-4.2-11.6-2.9s-7.3,4.2-10.2,7.4c-24.1,25.8-29.5,63.5-33.7,98.6-.8,6.6-1.6,13.5.9,19.6,4,9.9,15.9,18.1,12.6,28.2-1,3.1-3.4,5.5-5.6,7.9A287.6,287.6,0,0,0,9.56,227c-3.6,4.8-7.2,9.8-8.5,15.7-2.1,9.7,2.3,19.5,3,29.4.6,9.2-2,18.4-.9,27.5,2.2,17.7,17.6,30.3,31.8,41,1.7-9.4,3.4-18.8,5.7-28.1,6.9-28.5,18.7-55.6,30.4-82.5,3-6.8,6-13.7,11.2-19,9.7-9.9,25.7-13,32.6-25,4.6-8,3.9-18.5,9.2-26.1,2.7-3.9,6.8-6.7,10.4-9.9,9-8,15.1-18.7,21-29.2,5.7-10.2,11.5-20.4,15.1-31.5,2.9-8.8,4.4-17.9,6.5-26.9,4.6-20,10.3-35.6,20.3-53.5Z"/>
    </g>
  </g>
</svg>
