<svg xmlns="http://www.w3.org/2000/svg" width="196.36" height="357.55" viewBox="0 0 196.36 357.55">
  <defs>
    <style>
      .cls-1 {
        fill: none;
        stroke: #000;
        stroke-miterlimit: 10;
      }
    </style>
  </defs>
  <title>twAsset 3</title>
  <g id="Layer_2" data-name="Layer 2">
    <g id="Layer_3" data-name="Layer 3">
      <path class="cls-1" d="M132.81,12c3.49-3.28,5.87-7.84,10.09-10.1a11.84,11.84,0,0,1,10.88-.07c6.38,3.32,6,11.14,12.61,14.86,5.66,3.17,10.76.43,16,2.48,3.66,1.44,1,4.67,2.82,6.79,2.68,3.06,6.77,3.71,10.66,5,.08,2-2.14,3.12-4,3.77C179.55,39,172.08,53.46,174.94,66.3c1.31,5.89,4.58,11.49,4.15,17.52-.54,7.44-6.51,13.24-9.35,20.15-1.08,2.64-1.71,5.46-3,8-1.44,2.82-3.64,5.16-5.43,7.77C154,130.38,154,144.18,152.65,157a170.73,170.73,0,0,1-6.27,31c-6.25,20.91-16.1,40.54-25.9,60-3.24,6.45-6.51,12.95-10.89,18.7-7.21,9.46-17.3,16.72-23,27.18-9.21,17-4.62,37.81-6.17,57.09-.22,2.85-1.78,6.59-4.56,6-2-.47-2.81-3.09-4.72-3.88-1.34-.57-2.94-.09-4.3-.62-2.6-1-2.62-4.62-2.41-7.4a49,49,0,0,0-14.7-38.34c-8.9-8.56-21.15-13.82-27.71-24.28s-6.16-24.67-13.62-34.69C6.11,244.65,3,242,1.55,238.38c-2.61-6.3.24-13.35,2.14-19.9,2.87-9.88,3.52-20.25,5.66-30.31,4.42-20.79,15-39.66,25.47-58.17l9.25-16.37c6.83-12.1,13.71-24.26,22.4-35.11C76,66.67,87.76,56.14,93.37,42c2.17-5.46,3.9-12,9.23-14.45,3.12-1.44,8.42-1.66,10.66-4.4,1-1.23,1.7-2.73,2.92-3.76a11.69,11.69,0,0,1,5-2c3.76-.9,7.55-2.13,10.57-4.54C132.1,12.6,132.46,12.28,132.81,12Z"/>
    </g>
  </g>
</svg>
