<svg xmlns="http://www.w3.org/2000/svg" width="799.43" height="975.85" viewBox="0 0 799.43 975.85">
  <defs>
    <style>
      .cls-1, .cls-2, .cls-3 {
        fill: #fff;
      }

      .cls-1, .cls-4 {
        stroke: #000;
        stroke-miterlimit: 10;
      }

      .cls-2 {
        stroke: #1a1a1a;
        stroke-linejoin: round;
      }

      .cls-4 {
        fill: none;
      }
    </style>
  </defs>
  <title>twallAsset 6</title>
  <g id="Layer_2" data-name="Layer 2">
    <g id="Layer_2-2" data-name="Layer 2">
      <path class="cls-1" d="M612.74,84.59a261.4,261.4,0,0,1,26.07,20.08c2.12,1.85,4.26,3.82,5.43,6.37s1.17,5.86-.76,7.9c-2.65,2.81-7.27,2-10.9,3.32-4.61,1.67-7.24,6.77-7.48,11.66s1.41,9.65,3,14.27l3.23,9.1a13.45,13.45,0,0,0,2.07,4.19c3,3.62,8.62,3.07,13,4.66a13.74,13.74,0,0,1,8,16.86c-.56,1.6-1.44,3.14-1.54,4.84-.11,2.09,1,4,2.09,5.83a158.1,158.1,0,0,0,11.26,16L685.27,199c3.27-1.84,6.78-4,8.08-7.48,1.12-3,.32-6.46,1.15-9.59,1.11-4.14,4.83-7,8.52-9.2,12.58-7.44,27.61-10.81,38.67-20.37,2.24-1.94,4.3-4.13,6.86-5.62,4.07-2.36,9.67-3.32,11.41-7.7.8-2,.53-4.38,1.49-6.33,1.61-3.25,5.77-4,9.34-4.68a78.62,78.62,0,0,0,28.05-11c-1-3.14-5.43-2.64-8.67-3.16-4.73-.74-8.27-5-9.86-9.49s-1.67-9.4-2.19-14.16c-.2-1.81-.54-3.78-1.9-5-1.75-1.57-4.41-1.29-6.76-1.12a38.4,38.4,0,0,1-21-4.65c-5.41-3-10.35-7.37-16.47-8.17-3.13-.41-7-.14-8.68-2.78-.79-1.21-.87-2.73-1.24-4.13-1.07-4.07-4.53-7-7.85-9.57q-8.07-6.24-16.54-11.93c-3.34-2.24-6.79-4.44-10.68-5.45-10.17-2.61-20.68,3.64-27.6,11.54s-11.64,17.56-18.77,25.26-18.11,13.41-28,10"/>
      <path class="cls-2" d="M674.21,71l7.23-7.3c1.42-1.43,3-3,5.59-1.79a6.33,6.33,0,0,1,3.16,3.52q4.63,11.84,9.25,23.68c1,2.47,1.95,5.08,1.58,7.71-.3,2.16-1.51,4.22-1.2,6.38s2,2.92,4.09,3.32a1.86,1.86,0,0,1,.32,3.57,26.52,26.52,0,0,0-5.68,3.25c-3.81,2.84-4.41,9.64-.32,12-2.29,3.47-7.82,2.75-11,.12s-5.14-6.53-8.16-9.38-8.18-4.38-11.16-1.48c-1.73-1.27-1.52-4-.46-5.86s2.75-3.32,3.71-5.24a8.23,8.23,0,0,0-3.85-10.73c-2.77-1.24-6.34-1-7.67-4.51a6.83,6.83,0,0,1,2.23-7.53c4-3.33,8.68-5.91,10.77-8Z"/>
      <g>
        <path class="cls-3" d="M707,83.38a2.61,2.61,0,0,1-1.87-4.72c1-.71,2.35-.62,3.58-.68a12.93,12.93,0,0,0,10.51-6.61c.85-1.57,1.66-3.55,3.42-3.84S725.76,68.77,727,70c5.6,5.49,14.06,6.6,21.06,10.15.71.36,1.49.88,1.54,1.67a1.76,1.76,0,0,1-.47,1.2c-2.25,2.77-6.83.74-10.21,1.87s-4.76,6.39-2.16,9c1,1,2.63,1.87,2.77,3.35s-1.16,2.54-2.47,3.05-2.78.71-3.92,1.54-2,2.27-3.38,2.29-2.32-1.42-3.13-2.57A13.47,13.47,0,0,0,721,97c-2.2-1-4.63-1.31-6.79-2.35a11.91,11.91,0,0,1-6.59-10.57"/>
        <path d="M707,82.88a2.18,2.18,0,0,1-2.44-1.69,2.21,2.21,0,0,1,1.65-2.48,21.74,21.74,0,0,1,3.42-.31,13.43,13.43,0,0,0,3-.74,13.77,13.77,0,0,0,5.1-3.4,12.79,12.79,0,0,0,1.88-2.56,19.07,19.07,0,0,1,1.47-2.56,2.39,2.39,0,0,1,2.64-1,7,7,0,0,1,2.62,2,23.25,23.25,0,0,0,5.13,3.79c3.9,2.13,8.21,3.35,12.34,5,1,.4,2.08.83,3.1,1.31.77.37,2.56,1,2.07,2.14-.78,1.86-3.43,1.81-5.07,1.77-1.88-.05-3.92-.25-5.68.55a5.9,5.9,0,0,0-3,3.55,6.38,6.38,0,0,0,.24,4.78,6.45,6.45,0,0,0,1.72,2c.71.59,1.69,1.26,1.84,2.25s-.85,2-1.73,2.44-2.19.7-3.24,1.13a7.9,7.9,0,0,0-2.48,1.8c-.71.67-1.57,1.38-2.57.87a6.55,6.55,0,0,1-2.06-2.31,14.21,14.21,0,0,0-2.23-2.42,16.42,16.42,0,0,0-6.12-3.1c-2.39-.71-4.73-1.38-6.62-3.08a11.66,11.66,0,0,1-3.39-5.32,10.87,10.87,0,0,1-.46-3.15.5.5,0,0,0-1,0,12.43,12.43,0,0,0,6.84,11c2.46,1.19,5.25,1.5,7.68,2.77a13,13,0,0,1,3.09,2.26,22.6,22.6,0,0,1,2.17,2.71,4.07,4.07,0,0,0,2.39,1.78,3.12,3.12,0,0,0,2.6-1,8.93,8.93,0,0,1,2.8-2,18,18,0,0,0,3.42-1.27A3.81,3.81,0,0,0,740,98a3,3,0,0,0-.91-2.67,27.18,27.18,0,0,1-2.35-2.2,4.58,4.58,0,0,1-.84-2.47A5.48,5.48,0,0,1,738,85.87c1.71-1.19,4-.88,6-.83s4,0,5.36-1.56a2.09,2.09,0,0,0,.28-2.78A7.4,7.4,0,0,0,746.83,79c-4.41-2-9.13-3.19-13.47-5.3a22.6,22.6,0,0,1-5.87-3.93c-1.49-1.43-3.35-3.51-5.63-2.51-2,.87-2.59,3.33-3.72,5a12.47,12.47,0,0,1-5.35,4.31,11.83,11.83,0,0,1-3.49.91,16.32,16.32,0,0,0-3.42.33A3.12,3.12,0,0,0,707,83.88c.63-.07.64-1.07,0-1Z"/>
      </g>
      <path class="cls-1" d="M538.19,134.27c5.64-1.52,8.36-7.8,10-13.4s3.46-11.94,8.63-14.65c2.78-1.45,6-1.55,9.16-1.87a57.94,57.94,0,0,0,25.32-8.86c6.84-4.4,14.36-10.57,22.08-8,3.41,1.14,6,3.82,8.85,6,4.85,3.81,10.61,6.41,15.06,10.67s7.38,11.11,4.59,16.6a5.35,5.35,0,0,1-1,1.44,9,9,0,0,1-3.47,1.64c-9.09,3.15-14.3,14.53-10.75,23.46,1.07,2.7,2.78,5.1,3.79,7.82s1.45,6.14,3.77,8,5.59,1.69,8.49,2.34a14.1,14.1,0,0,1,10.47,10.75c.85,4.28-.36,8.75.31,13.06,1.12,7.24,7.22,12.62,10.16,19.34a18.79,18.79,0,0,1,.83,13.66,13.43,13.43,0,0,1-10,8.81c-2.44.4-5,0-7.35.73-1.67.51-3.25,1.56-5,1.39-2.32-.22-3.81-2.49-5-4.51L621.9,201.83a41.73,41.73,0,0,1-3.52-7.28c-1.39-4.21-1.51-9-4.22-12.51-1.84-2.37-4.61-3.79-7.3-5.13l-24.75-12.39c-1.21-.61-2.52-1.31-3-2.56s-.06-2.86-.06-4.32c0-4.87-5.41-7.76-10.13-9s-10.23-2.39-12.4-6.75c-1-1.89-1.19-4.31-2.91-5.54a7.06,7.06,0,0,0-4.2-.86l-12.68.06"/>
      <path class="cls-1" d="M536.93,137.34q-5.91,9-11.18,18.49c-1,1.74-2,3.76-1.27,5.63.49,1.36,1.78,1.5,3,2.28,4.7,3,9.81,6.16,14.19,9.64s8.05,8.39,8.31,14c-3.68,1.68-7.78-1.14-10.64-4-.7-.69-1.56-1.46-2.52-1.26a2.9,2.9,0,0,0-1.59,1.31L526,195.73a3,3,0,0,0-.77,1.67c0,2.55,4.44,1.28,6.43,2.86a5.42,5.42,0,0,1,1.41,2.52c5.09,13.62,25,17.32,29.32,31.21,1.89,6.17.1,12.79-1.5,19a5.24,5.24,0,0,0-.2,2.71c.57,2,3.12,2.59,5.21,2.57,10.31-.08,20-5.89,30.33-5.4a10.4,10.4,0,0,1,5.5,1.55c6,4.19,1.66,14.54,6.08,20.33a4.56,4.56,0,0,0,2.45,1.77,6,6,0,0,0,3-.34c18.32-5.66,31.93-24,32.06-43.17-3.45,0-6.32-2.77-8-5.79s-2.47-6.43-4-9.5c-3-5.9-8.6-10.16-11.55-16.08-2.49-5-2.94-10.78-5.54-15.69-5.8-11-19.76-13.95-30.34-20.42a15.9,15.9,0,0,1-5-4.36c-1.27-1.85-1.85-4.09-3-6-1.84-2.95-4.94-4.82-7.93-6.58L557,141c-5.79-3.42-11.92-6.94-18.64-7.05Z"/>
      <path class="cls-1" d="M522.23,163.74c-3,1.91-2.51,4.62-3.35,8.07s-1,7-1.92,10.44c-1.35,5.09.55,4.32-3.47,7.71l13.35,8.9c-1.67-3.69.72-7.93,3.48-10.89,3.21-3.46,8.28-6.46,12.42-4.2,1.2.66,2.16,1.7,3.4,2.25s3,.39,3.58-.85a3.29,3.29,0,0,0,0-2.08,11.89,11.89,0,0,0-2.25-4.56c-5.58-7.05-11.65-15.07-20.19-18a1.9,1.9,0,0,0-2.38,1Z"/>
      <path class="cls-1" d="M513.49,190c14.6,14.06,29.81,27.87,44.41,41.93a15.41,15.41,0,0,1,4.09,5.29c1.41,3.67-.12,7.72-1,11.57s-.47,8.73,3,10.5a9.05,9.05,0,0,0,5.16.54,32.37,32.37,0,0,0,10.57-3.16c2.57-1.28,5-2.92,7.79-3.67s6.11-.42,8,1.75,1.81,5.31,3.19,7.77,4.13,4,6.44,5.71,4.46,4.41,3.89,7.24a9.33,9.33,0,0,1-2.62,4.17l-7.73,8.47a13.69,13.69,0,0,1-3,2.68,17.45,17.45,0,0,1-4.49,1.56,56.74,56.74,0,0,0-11.4,4.88,220.81,220.81,0,0,0-23.41,14.26,11.45,11.45,0,0,1-5,2.39c-3.16.35-5.89-2-8.44-3.86a39.63,39.63,0,0,0-20.47-7.59,4.28,4.28,0,0,0-2.89.5c-1.12.82-1.25,2.4-1.57,3.75-1.26,5.28-6.9,8.62-12.32,8.81s-10.61-2.1-15.36-4.72c-17.58-9.71-31.85-24.3-45.85-38.68a40,40,0,0,0,15.74-21c2.26-7.2,2.54-15.17,6.62-21.52,4.43-6.89,12.41-10.44,19.46-14.62a76.42,76.42,0,0,0,25.31-23.17Z"/>
      <path class="cls-1" d="M443.55,279.14c-12.2,18-21.77,31-34,49-2.76,4.08-5.65,8.71-4.8,13.57.54,3.1,2.54,5.72,4.47,8.2,4.38,5.59,8.92,11.34,15.12,14.82,4.94,2.77,10.89,4.09,14.67,8.31,3.34,3.74,4.29,9,6.95,13.26,5,8,15.09,11,24.44,12.19a12.6,12.6,0,0,0,5.83-.23c2.3-.83,4-2.83,5.38-4.83,3.88-5.5,6.76-11.67,10.74-17.1s9.44-10.27,16.08-11.39c7.3-1.24,14.94,2.15,22.1.28,4.15-1.08,7.63-3.81,11.12-6.29a124.08,124.08,0,0,1,42-19.3c5.85-1.45,11.8-2.48,17.74-3.5,8.79-1.51,18.39-2.88,26.14,1.52,1.12.64,2.38,1.41,3.6,1,1.39-.46,1.87-2.13,2.23-3.54,3.79-14.76,16.08-25.59,23.85-38.7.72-1.22,1.4-2.8.57-4-.95-1.33-3-.91-4.57-.52a23.14,23.14,0,0,1-25.3-11.45c-1.41-2.71-2.43-5.9-5-7.51-3-1.89-7.15-.78-10,1.42s-4.78,5.29-7.16,8c-12.47,14-34.68,14.94-48.58,27.55-2.41,2.19-5,4.9-8.23,4.78-2.44-.08-4.5-1.77-6.24-3.48-3.62-3.58-6.91-7.78-11.57-9.83s-11.33-.78-13,4c-.51,1.5-.48,3.18-1.19,4.61-1.06,2.13-3.52,3.18-5.85,3.68-8,1.72-16.38-1-23.33-5.29S475,298.32,468.81,293a163.22,163.22,0,0,0-24.43-17.34Z"/>
      <path class="cls-1" d="M407,343.64a757,757,0,0,0-57.4,95.11,8.9,8.9,0,0,0-1.3,4.2c.1,2.41,2.21,4.36,4.52,5.06a17.57,17.57,0,0,0,7.19.14l29-3.44a21.87,21.87,0,0,1,7.78,0c3.21.8,5.86,3,8.67,4.76,10.68,6.64,24,6.82,36.58,6.81,7,0,15.53-.92,18.49-7.29-3.61-3.06-9.64-1.58-13.19-4.71-1.77-1.56-2.52-3.95-3.06-6.25A58.21,58.21,0,0,1,448,400.68c.95-2.05,2-4.13,2.08-6.39a14.4,14.4,0,0,0-1.79-6.14c-4-8.54-8.28-17.51-16.08-22.78-3.86-2.62-8.39-4.17-12.17-6.92-5.61-4.07-9.09-10.37-12.38-16.46Z"/>
      <path class="cls-1" d="M349.7,447.62c-6.76,1.14-12.47,5.91-16.24,11.63s-5.88,12.35-7.84,18.91q-7.08,23.83-12.27,48.18a5.25,5.25,0,0,0,0,3.09,4.71,4.71,0,0,0,2,2c8,5.07,18.61,4.67,27.38,1s16-10.13,22.68-16.89c6.38-6.47,12.76-13.55,21.33-16.57,9.61-3.39,20.56-1,29.23,4.38,3.56,2.2,6.87,4.89,10.77,6.43a40.51,40.51,0,0,0,10.2,2.11l32,3.82a3.75,3.75,0,0,0,2.48-.27c1.37-.86,1.06-2.91.59-4.46-.91-3-2-6.24-4.66-7.91-3.79-2.38-8.66-.42-13,.49s-10.49-.75-10.43-5.23a9.16,9.16,0,0,1,.6-2.66,119.13,119.13,0,0,0,5.7-30.45,15.33,15.33,0,0,0-.64-6.54c-1.74-4.37-6.88-6.41-11.58-6.62s-9.39.9-14.08.62c-8.43-.51-15.94-5.43-24.18-7.27-8-1.79-16.32-.61-24.43.58-9.14,1.34-13.45-.36-22.6,1Z"/>
      <path class="cls-1" d="M316.44,534.25c-2.28-1.58-5.31-.91-6,1.68s.6,5.24,1.45,7.79c3.33,9.91.07,20.69-.11,31.15-.06,3.32.24,6.79,2,9.63,3.27,5.45,10.68,6.93,16.94,5.83,12.2-2.13,21.68-11.35,31.49-18.92s22.61-14,34.18-9.62c7.12,2.71,12.31,9.24,14.88,16.41s2.81,15,2.35,22.59c-.21,3.58-.37,7.71,2.27,10.14,1.53,1.41,3.69,1.88,5.74,2.26a144.24,144.24,0,0,0,30.63,2.3l-.46-13.68c-.08-2.43-.05-5.18,1.68-6.89a10.52,10.52,0,0,1,4.21-2c6-2,11.29-5.7,16.48-9.35,9.59-6.77,19.28-13.61,27.09-22.37,2.83-3.18,5.55-6.7,9.42-8.47s9.4-2.33,10.5-6.47c-7-1.72-14.9.11-21.32-3.22-7.12-3.7-10-12.9-8.54-20.8.54-3,1.56-6.1.45-8.91a12.67,12.67,0,0,0-3.91-4.65c-2.53-2.17-5.23-4.42-8.5-5s-7.24,1.13-7.83,4.4c-.37,2.05.21,4.92-1.76,5.6a3.82,3.82,0,0,1-1.51.08L435,510.93c-4.05-.34-8.17-.7-11.91-2.28-6.75-2.86-11.47-9.36-18.26-12.12-10.15-4.12-21.77,1.31-29.89,8.65s-14.46,16.7-23.5,22.87c-10.51,7.16-21.6,10-33.78,6.36Z"/>
      <path class="cls-1" d="M310.22,579.36c-5.18,4.85-4.53,13-5.18,20.07-1.72,18.84-15.06,35-17.19,53.84a10.53,10.53,0,0,0,.38,5.21c.83,2,2.66,3.39,4.38,4.72a100.86,100.86,0,0,1,22.51,24.48c2.38,3.64,4.6,7.53,8.05,10.16s8,3.79,12.42,4.56a111.28,111.28,0,0,0,38.57-.08c4.58-.82,9.37-2.06,12.63-5.39,2.28-2.32,3.55-5.39,5-8.29,13.21-26.13,43.58-40.24,56.69-66.42a7.62,7.62,0,0,0,1.11-4.11c-.23-2.32-2.44-4-4.71-4.56s-4.64-.2-7-.09a34.72,34.72,0,0,1-16.77-3.5,8.66,8.66,0,0,1-4.17-3.5c-1.35-2.67-.06-5.83.54-8.77,1.55-7.54-1.82-15.41-7-21.12s-12-9.62-18.64-13.45c-3-1.71-6.12-3.46-9.54-3.42a17.29,17.29,0,0,0-7.06,2A88.27,88.27,0,0,0,350,579.64c-6.4,6.48-13.7,14.68-22.65,13-7.28-1.35-11.59-8.72-14.89-15.35Z"/>
      <path class="cls-1" d="M537.15,574.88c-1.36-2.49,1.27-5.35,3.87-6.5s5.79-2,7-4.55c.94-2.06.2-4.45-.55-6.59-1.87-5.32-4.29-11.24-9.54-13.31-5.77-2.28-12.07,1.17-17.31,4.5C502.2,560.12,483.49,572.1,469.7,589c-3.67,4.48-8.38,9.84-14,8.55-2.39-.54-5-2.22-7-.78-1.45,1.06-1.48,3.15-1.45,4.94.33,16.85-5.69,34-17.36,46.11-4.36,4.54-9.42,8.36-14,12.72-11.21,10.73-19.06,24.5-29.66,35.84-2.58,2.76-5.39,5.42-8.84,6.94-6.07,2.68-13,1.46-19.62.51a203.82,203.82,0,0,0-24.3-2c-3.93-.09-8.81.55-10.15,4.25-.67,1.86-.16,3.91.39,5.81,5.26,18,14,35.22,16.16,53.87.54,4.64.69,9.43,2.53,13.73a34.35,34.35,0,0,0,5.72,8.46,235.47,235.47,0,0,0,37.33,35.52c8.14-17.33,8-37.21,10.54-56.18,1.72-12.76,4.73-25.3,7.74-37.81.38-1.59.84-3.31,2.15-4.28,1.58-1.18,3.77-.84,5.74-.78,11.78.41,20.9-10.29,32.26-13.46,18.47-5.15,36.8,10.49,56,9.67a7,7,0,0,0,2.63-.5c2.62-1.21,3-4.94,1.84-7.58s-3.41-4.63-5-7c-4-5.9-3.79-13.75-1.79-20.57s5.58-13.08,8.1-19.73c4.95-13.06,5.69-27.33,9.71-40.71s12.8-26.82,26.39-30c4.12-1,9.6-2,10-6.21.77-7.51-15.74-7.61-14.48-15.06"/>
      <path class="cls-1" d="M503,723.25c4.89,6.7,4.24,6.74,8,14.13,1.3,2.55,2.57,5.36,2,8.18a12.2,12.2,0,0,1-2.95,5.36c-6.12,7.34-14.21,12.72-21.53,18.88s-14.18,13.64-16.39,22.94c-3.51,14.69,5.33,29.92,3.2,44.87-.51,3.51-1.61,7-1.38,10.52a28.47,28.47,0,0,0,2.27,8.24l5.42,13.89c2,5.07,4.28,10.53,9,13.16,4,2.21,9.07,2,12.92,4.44,5.57,3.57,6.53,11.16,6.94,17.76.82,13.36,1.56,27.25-3.45,39.66-3.95,9.77-11.41,18.55-11.67,29.08-2.7,1.76-6.36.95-9.16-.65s-5.17-3.91-8.09-5.27a14.51,14.51,0,0,0-11.29-.37c-.95.37-2.07.85-2.95.32a3,3,0,0,1-1.09-2.11,66,66,0,0,1-1.08-18.5c.49-5.81,1.74-11.55,2-17.37,1.09-20.58-9.52-39.78-20.26-57.36-10.56-17.3-23-35.47-42.26-41.88-6.48-2.15-15-4.43-15.63-11.23-.31-3.16,1.39-6.12,2.6-9.06,3.77-9.23,2.83-19.58,3.29-29.54.86-18.46,6.67-36.29,12.43-53.86.86-2.63,1.82-5.4,4-7.15,4.15-3.4,10.26-1.39,15.62-1.31,7.17.09,13.78-3.6,20.75-5.27,17.29-4.16,35.33,4.25,53,2.34Z"/>
      <path class="cls-1" d="M671.63,560c-1.51-5.28-8.56-7.18-13.67-5.17s-8.65,6.61-11.93,11c-1.29,1.73-2.64,3.6-2.78,5.76s.85,4,1.38,6c1.57,5.88-.84,12-3.2,17.62l-14.94,35.46c-2.73,6.48-6.79,14-13.8,14.41-4.8.31-9.1-3-12.1-6.77s-5.23-8.15-8.74-11.44c-10.71-10.09-31.27-8.46-37-22-1.09-2.6-1.47-5.55-3.16-7.81-2.55-3.39-7.53-4.22-11.58-2.93s-7.33,4.25-10.23,7.35c-24.13,25.85-29.5,63.5-33.73,98.6-.79,6.58-1.54,13.49.91,19.64C501,729.66,513,737.84,509.65,748c-1,3.09-3.34,5.53-5.58,7.9a309.56,309.56,0,0,0-20.86,24.59c-3.64,4.79-7.22,9.86-8.51,15.73-2.13,9.69,2.32,19.52,3,29.41.62,9.16-2,18.36-.9,27.47,2.2,17.66,17.59,30.29,31.82,41,1.7-9.4,3.41-18.82,5.65-28.12,6.88-28.55,18.69-55.64,30.45-82.55,3-6.77,6-13.71,11.19-19,9.67-9.87,25.73-13,32.57-25,4.58-8,3.88-18.48,9.17-26.08,2.73-3.93,6.79-6.69,10.36-9.86,9-8,15.06-18.67,21-29.15,5.73-10.18,11.48-20.44,15.14-31.53,2.89-8.76,4.43-17.9,6.52-26.89,4.64-20,10.32-35.58,20.25-53.5Z"/>
      <path class="cls-1" d="M597.21,455.54a161.85,161.85,0,0,0,19.29-38c1.68-4.77,3.15-9.76,2.77-14.81-.43-5.8-3.29-11.56-1.87-17.2s7-9.82,8.21-15.61c1.47-6.92-3.63-13.36-8.38-18.62l6.82-6.73c.91-.91,1.9-2.06,1.61-3.31a3.55,3.55,0,0,0-1.48-1.86c-7.44-5.69-17.52-7-26.77-5.54s-17.93,5.33-26.47,9.17c-9.13,4.12-18.37,8.3-26.22,14.52-4.52,3.58-9.24,8.07-15,7.73-3.77-.23-7.08-2.56-10.73-3.55-7.82-2.11-16.06,2.23-21.73,8s-9.68,13-15.2,18.94-13.4,10.69-21.37,9.22c-2.84-.53-5.55-1.83-8.44-1.86-4.76-.05-9,3.44-11.21,7.64s-2.85,9.05-3.43,13.77c-.83,6.77-1.64,13.75.25,20.3s7.23,12.59,14,13.12c1.47.12,3.32.2,3.88,1.57.39,1-.15,2-.65,2.95a71,71,0,0,0-8.73,34.49c0,4,.48,8.17,2.86,11.34,7.37,9.81,24.75,1.83,34.46,9.32,9.11,7,5.82,23,14.46,30.58,11.35,10,33.12-2.66,42.83,8.92,1.51,1.81,2.66,4.17,4.88,5,3.13,1.14,6.42-1.63,7.74-4.68s1.53-6.53,3.07-9.48c4.67-9,18.59-8.78,24.36-17.05,1.63-2.33,2.43-5.12,3.64-7.7,1.57-3.38,3.83-6.39,5.82-9.56a66.51,66.51,0,0,0,7.9-51.36"/>
      <path class="cls-1" d="M705.57,297.74,737.9,314a3.05,3.05,0,0,1,1.63,1.42c.44,1.2-.72,2.34-1.73,3.12-16.9,13.16-25.9,33.76-34.24,53.48-1.78,4.21-3.59,8.94-2,13.22.78,2.1,2.33,3.89,2.87,6.06a14.07,14.07,0,0,1-.39,6.37q-16.6,76.41-33.22,152.81c-.62,2.89-2.51,6.6-5.34,5.76A8,8,0,0,1,663.4,555c-5.52-3.72-13.44.44-16.43,6.39s-2.68,12.92-3.21,19.55c-1.68,21.15-12.42,40.6-25.43,57.35-3.81,4.9-10.52,10-15.46,6.29-1.82-1.38-2.71-3.63-3.66-5.71a51.59,51.59,0,0,0-25.11-25.18c-6.24-2.88-13.41-4.74-17.75-10.07-2.43-3-3.68-6.69-5.2-10.21a64,64,0,0,0-14.48-20.77c10.7-9.94,12-27.55,23.54-36.51,4.33-3.36,9.73-5.15,14-8.64,3.78-3.12,6.39-7.39,8.92-11.59,8.53-14.13,17.2-29,18.57-45.4.59-7.18-.25-14.44.41-21.62,1.18-13,7.11-24.95,11.45-37.24a156.34,156.34,0,0,0,8.83-56.88c-.11-3.31-.3-6.73.84-9.85,1.29-3.53,4.13-6.22,6.61-9.06,11.38-13,16.34-31.05,29-42.79a10.85,10.85,0,0,1,4.8-2.94c3.88-.85,7.54,2.14,9.86,5.35s4.14,7,7.52,9.09c4.36,2.68,10.12,1.68,14.65-.69a55.9,55.9,0,0,0,6.65-3.79Z"/>
      <path class="cls-1" d="M789.65,124.16c-26,14.43-41.91,45.28-38.56,74.85.75,6.63,2.46,13.33,6.34,18.76,4.42,6.16,11.8,11.26,11.85,18.84a21.51,21.51,0,0,1-1.81,7.6,746.57,746.57,0,0,1-30.33,69.89,102.71,102.71,0,0,0-33.24-16.76c-3.17-.93-6.72-1.67-9.65-.16-3.21,1.66-4.78,5.59-8,7.18-3.6,1.75-8,0-11-2.62s-5.35-6-8.58-8.39c-6.56-4.81-15.4-4.44-23.41-5.84s-17-6.73-16.64-14.86c.28-6.68,6.64-11.2,10.4-16.73,5-7.3,5.69-17.14,11.73-23.57,5.14-5.47,13.44-7.63,17.48-14,3.42-5.37,3.21-13,8.1-17.06,3.16-2.62,7.65-3,11-5.3,7-4.7,7.19-15.52,13.73-20.84,2.64-2.14,6-3.12,9.26-4.1,10.14-3.06,20.33-6.75,28.64-13.32,7.39-5.84,12.93-13.69,19.83-20.11,9.89-9.2,19.61-13.87,33-15.88.74.81,3,.93,1.88.85Z"/>
      <g id="penghu">
        <path class="cls-4" d="M178.16,488.24a26.37,26.37,0,0,1,.82,4.95c.59,3.85,3.05,7.87,6.9,8.43,1.61.23,3.36-.15,4.81.6,1.23.63,1.93,1.93,2.8,3,1.47,1.82,3.52,3.09,5,4.91a7.27,7.27,0,0,1,1.39,2.76,2.81,2.81,0,0,1-3,3.41,20.25,20.25,0,0,0-8.81.68c-3.54,1.27-6.58,4.79-6,8.5a3.3,3.3,0,0,1,0,1.94,2.26,2.26,0,0,1-1.33,1,9.72,9.72,0,0,1-5,.59c-4.77-.71-8.34-3.67-11.83-6.58l-.49-.43a2.3,2.3,0,0,1,1.87-3.95l7.92,1a4.59,4.59,0,0,0,2.43-.34h0a1.56,1.56,0,0,0-.54-3l-.86,0a3.65,3.65,0,0,1-2.73-5.9,7.74,7.74,0,0,1,1.56-1.53,5.79,5.79,0,0,0,2.56-4.73c-.06-2.59-1.76-4-1.52-6a5.64,5.64,0,0,0-.92-4.06,25.77,25.77,0,0,1-4.24-9.68,2.08,2.08,0,0,1,3-2.19A13.25,13.25,0,0,1,178.16,488.24Z"/>
        <path class="cls-4" d="M154.55,495.46a32.41,32.41,0,0,1,3.55-1.61c.4-.18.86-.45.88-.89s-.34-.68-.68-.89c-2.8-1.4-5.44-1.07-8.46-.82a1.63,1.63,0,0,0-.9.26c-1.12.89.22,2.58.45,3.55.18.72.57,4.83-.11,5.27l-2.92,1.89c-.82.52-1.74,1.55-1.12,2.31.41.5,1.19.39,1.85.42s1.45.62,1.12,1.19c-.77,1.36-.14,2.65-1.31,3.54-1.32,1-2.91,1-4.1,2.46a.43.43,0,0,0-.13.27.41.41,0,0,0,.11.25c1.67,2.13,5.21.73,6.8-.63a14.48,14.48,0,0,0,4.92-9.36c.11-1.09.05-2.25.83-3.11A4.27,4.27,0,0,0,156.5,498C156.7,497.2,153.24,496.28,154.55,495.46Z"/>
        <path class="cls-4" d="M164,485.59c-.78-.55-2.92-2.27-3.63-1.51,1,1.34.71,3.33,1.91,4.53a1.9,1.9,0,0,0,2.58.24C165.8,488,165.07,486.34,164,485.59Z"/>
        <path class="cls-4" d="M175.44,461.84l.06-1.76a8.5,8.5,0,0,1,8.32,2.7c.3.36-3.37,1.56-3.73,1.58a4.31,4.31,0,0,1-3.29-1.31C176.38,462.69,175.82,462.24,175.44,461.84Z"/>
        <path class="cls-4" d="M147.27,566c-.48.95-1.28,2-.83,2.93s1.93,1,3.05.78c1.86-.35,3.72-.27,5.09-1.62,1.1-1.09.44-1.61-.27-2.6a22.22,22.22,0,0,0-1.81-2.66,5.7,5.7,0,0,0-4.14-1.62c-1.06.21-.89.53-.8,1.37A5.44,5.44,0,0,1,147.27,566Z"/>
        <path class="cls-4" d="M131.59,606.49a2.89,2.89,0,0,1,1.87.28c.8.54.48,1.33.23,2.11-.61,1.92-1.34,4-3.05,5.22s-4.82.76-5.3-1.34,1.6-3.68,3.46-4.62c.75-.38,1.31-1,2-1.39A2.43,2.43,0,0,1,131.59,606.49Z"/>
      </g>
      <g id="kingman">
        <path class="cls-4" d="M26.37,338.05c1.13,3.33,2,7,1,10.31a7.58,7.58,0,0,1-3,4c-.89.59-2.47.65-3,1.67-.83,1.52,1.07,2.84,2,3.69a25.71,25.71,0,0,0,9.72,5.42,3.22,3.22,0,0,0,1.86.15c1-.31,1.47-1.41,1.89-2.36a25.56,25.56,0,0,1,25.95-14.67A6.88,6.88,0,0,1,66,349.49a13.42,13.42,0,0,0,1,2.32c.9,1.21,1.52.74,2.62.07a34.19,34.19,0,0,0,6.2-4.85,9,9,0,0,0,2.5-3.63,9.38,9.38,0,0,0,0-4.12,46.06,46.06,0,0,0-13.52-25.87,8,8,0,0,0-3.15-2.12c-3.74-1.11-7.11,3-7.6,6.88s.62,7.84-.16,11.66a5.13,5.13,0,0,1-.83,2.07,5.36,5.36,0,0,1-2.69,1.69,14.88,14.88,0,0,1-15.67-4.49c-1.43-1.73-3.5-4.06-5.4-2.85A11.83,11.83,0,0,0,27,328.9c-.67.77-1.73,1.34-2.22,2.2C23.5,333.4,25.68,336,26.37,338.05Z"/>
        <path class="cls-4" d="M2.47,345.05a1.37,1.37,0,0,1,0-1.4A3.83,3.83,0,0,1,4.73,342c3.24-.95,7.36.15,8.63,3.28.46,1.13.36,2.68-.7,3.27-.48.27-1.06.29-1.55.51a4.38,4.38,0,0,0-1.79,2.07,11,11,0,0,1-2.84,3.64,4.38,4.38,0,0,1-4.38.65,2.77,2.77,0,0,1-1.18-3.9c.35-.46.86-.77,1.25-1.2a5.62,5.62,0,0,0,1-3.1A1.89,1.89,0,0,0,3.11,346C2.89,345.68,2.64,345.37,2.47,345.05Z"/>
        <path class="cls-4" d="M32.2,302.18c-.83-.77-1-2.47-1.86-3.15a4.64,4.64,0,0,0-2.58-.49c-1.14-.1-3.19-.05-2.19-1.69,1.17-1.91,5.74-1.08,7.6-1.45.78-.16,1.75-.28,2.25.35a2.21,2.21,0,0,1,.26,1.55l-.49,5.89A3.9,3.9,0,0,1,32.2,302.18Z"/>
      </g>
      <g id="mazhu">
        <path class="cls-4" d="M121.84,90a2.79,2.79,0,0,0,2.42-.81c.68-.92.24-2.32.88-3.27a3.31,3.31,0,0,1,2.77-1c1.47,0,3,0,4.42.07.63,0,3.45-.12,3.7.52.07.18.06.38.12.56.18.53.86.79.78,1.41s-1.21,1.28-1.64,1.64a31.38,31.38,0,0,1-4,2.86,6.05,6.05,0,0,0-1.79,1.37,11.7,11.7,0,0,0-.86,1.6c-1.24,2.34-3.93,3.46-6.45,4.27a73.33,73.33,0,0,1-7.71,2,16,16,0,0,1-4.08.69c-1-.1-1.37-1-2.15-1.49a4.64,4.64,0,0,0-1.14-.44l-1.2-.33c-2.25-.61-.37-5.18.27-6.34,2.07-3.72,2-5.1,2.32-9.19.16-2.33.39-6.11,3.44-6.45C116.71,77.13,113,89.62,121.84,90Z"/>
        <path class="cls-4" d="M132.67,67.31c-1,.44-2.26.54-3.15,1.24a3.9,3.9,0,0,0-1.19,3.77A11.51,11.51,0,0,0,130,76.09,6.43,6.43,0,0,0,137,71a9.28,9.28,0,0,1,.55-2.79c.66-1.27,2.2-1.77,3.58-2.16l11-3.06a4,4,0,0,1,1.83-.2c1.48.3,2.09,2.13,2,3.64s-.59,3-.18,4.5a3.87,3.87,0,0,0,4.87,2.48c1.85-1,2-3.65,1.39-5.67s-1.79-3.94-1.75-6a12,12,0,0,0,0-1.89c-.24-1.52-1.64-2.54-2.42-3.86a5.27,5.27,0,0,1,1.86-7c1.77-1,4.54-1.5,4.51-3.53A19.31,19.31,0,0,0,157.74,44a2.37,2.37,0,0,0-1.24.19,2.5,2.5,0,0,0-.89,1.06l-3.33,5.83c-1.26,2.22-2.64,4.56-4.89,5.77-2.92,1.57-7,.62-9.49,2.91S136.2,65.84,132.67,67.31Z"/>
        <path class="cls-4" d="M143.25,32.49a5,5,0,0,1,1.08,0c1,.2,1.41,1,1.35,2.15-.09,1.44-.88,2.75-1.17,4.16a20.61,20.61,0,0,1-.39,2.08,3.94,3.94,0,0,1-5.5,2.06c-.79-1,.64-2.17,1.23-3.28s.23-2.7.29-4.08c0-.71.29-2.21.94-2.65A5.32,5.32,0,0,1,143.25,32.49Z"/>
        <path class="cls-4" d="M190.14,3.82c-1,.93.34,3.12-.82,3.56a4.25,4.25,0,0,1-.77.23,15.56,15.56,0,0,1-3.2.11,3.33,3.33,0,0,1-2.56-1,5.5,5.5,0,0,1-.85-1.65C181.1,3,179.42.93,177.37.52a1.07,1.07,0,0,0-1.22,1.31c.49,2.16,2.34,4,4.21,5.29,2.25,1.59,4.82,3,6.11,5.44a7.48,7.48,0,0,0,1.08,1.83,1.86,1.86,0,0,0,.95.52,1,1,0,0,0,1.13-.72,12.37,12.37,0,0,1,8.48-7.63,1.06,1.06,0,0,0,.5-1.8c-1.45-1.29-4-1.56-6.06-1.55A3.51,3.51,0,0,0,190.14,3.82Z"/>
        <path class="cls-4" d="M123.76,169.74a4.93,4.93,0,0,1-3.71-2.3,7.24,7.24,0,0,1-.61-3.31,1.7,1.7,0,0,1,.3-1.24,1.77,1.77,0,0,1,1.3-.36,31,31,0,0,0,10.43-1.87,1.57,1.57,0,0,1,1.14-.11,1.33,1.33,0,0,1,.63,1,5.68,5.68,0,0,1-1,4.37c-.37.52-1.07.9-1.38,1.41-.84,1.36-.53,2.08-2.5,2.25A20.75,20.75,0,0,1,123.76,169.74Z"/>
        <path class="cls-4" d="M133.39,175.08a6.49,6.49,0,0,0-.31,6.22,1.73,1.73,0,0,0,1.22,1.08,1.76,1.76,0,0,0,1.09-.4c2.34-1.63,3.87-4.46,6.57-5.37a5.78,5.78,0,0,0,1.77-.69,3.74,3.74,0,0,0,1.12-2,7.29,7.29,0,0,0,.47-2.91c-.32-2.61-4-2.93-5.86-2A16.62,16.62,0,0,0,133.39,175.08Z"/>
      </g>
    </g>
  </g>
</svg>
