<svg xmlns="http://www.w3.org/2000/svg" width="200.44" height="615.27" viewBox="0 0 200.44 615.27">
  <defs>
    <style>
      .cls-1 {
        fill: none;
        stroke: #000;
        stroke-miterlimit: 10;
      }
    </style>
  </defs>
  <title>twallAsset 7</title>
  <g id="Layer_2" data-name="Layer 2">
    <g id="Layer_2-2" data-name="Layer 2">
      <g id="penghu">
        <path class="cls-1" d="M178.16,488.24a26.37,26.37,0,0,1,.82,4.95c.59,3.85,3.05,7.87,6.9,8.43,1.61.23,3.36-.15,4.81.6,1.23.63,1.93,1.93,2.8,3,1.47,1.82,3.52,3.09,5,4.91a7.27,7.27,0,0,1,1.39,2.76,2.81,2.81,0,0,1-3,3.41,20.25,20.25,0,0,0-8.81.68c-3.54,1.27-6.58,4.79-6,8.5a3.3,3.3,0,0,1,0,1.94,2.26,2.26,0,0,1-1.33,1,9.72,9.72,0,0,1-5,.59c-4.77-.71-8.34-3.67-11.83-6.58l-.49-.43a2.3,2.3,0,0,1,1.87-3.95l7.92,1a4.59,4.59,0,0,0,2.43-.34h0a1.56,1.56,0,0,0-.54-3l-.86,0a3.65,3.65,0,0,1-2.73-5.9,7.74,7.74,0,0,1,1.56-1.53,5.79,5.79,0,0,0,2.56-4.73c-.06-2.59-1.76-4-1.52-6a5.64,5.64,0,0,0-.92-4.06,25.77,25.77,0,0,1-4.24-9.68,2.08,2.08,0,0,1,3-2.19A13.25,13.25,0,0,1,178.16,488.24Z"/>
        <path class="cls-1" d="M154.55,495.46a32.41,32.41,0,0,1,3.55-1.61c.4-.18.86-.45.88-.89s-.34-.68-.68-.89c-2.8-1.4-5.44-1.07-8.46-.82a1.63,1.63,0,0,0-.9.26c-1.12.89.22,2.58.45,3.55.18.72.57,4.83-.11,5.27l-2.92,1.89c-.82.52-1.74,1.55-1.12,2.31.41.5,1.19.39,1.85.42s1.45.62,1.12,1.19c-.77,1.36-.14,2.65-1.31,3.54-1.32,1-2.91,1-4.1,2.46a.43.43,0,0,0-.13.27.41.41,0,0,0,.11.25c1.67,2.13,5.21.73,6.8-.63a14.48,14.48,0,0,0,4.92-9.36c.11-1.09.05-2.25.83-3.11A4.27,4.27,0,0,0,156.5,498C156.7,497.2,153.24,496.28,154.55,495.46Z"/>
        <path class="cls-1" d="M164,485.59c-.78-.55-2.92-2.27-3.63-1.51,1,1.34.71,3.33,1.91,4.53a1.9,1.9,0,0,0,2.58.24C165.8,488,165.07,486.34,164,485.59Z"/>
        <path class="cls-1" d="M175.44,461.84l.06-1.76a8.5,8.5,0,0,1,8.32,2.7c.3.36-3.37,1.56-3.73,1.58a4.31,4.31,0,0,1-3.29-1.31C176.38,462.69,175.82,462.24,175.44,461.84Z"/>
        <path class="cls-1" d="M147.27,566c-.48.95-1.28,2-.83,2.93s1.93,1,3.05.78c1.86-.35,3.72-.27,5.09-1.62,1.1-1.09.44-1.61-.27-2.6a22.22,22.22,0,0,0-1.81-2.66,5.7,5.7,0,0,0-4.14-1.62c-1.06.21-.89.53-.8,1.37A5.44,5.44,0,0,1,147.27,566Z"/>
        <path class="cls-1" d="M131.59,606.49a2.89,2.89,0,0,1,1.87.28c.8.54.48,1.33.23,2.11-.61,1.92-1.34,4-3.05,5.22s-4.82.76-5.3-1.34,1.6-3.68,3.46-4.62c.75-.38,1.31-1,2-1.39A2.43,2.43,0,0,1,131.59,606.49Z"/>
      </g>
      <g id="kingman">
        <path class="cls-1" d="M26.37,338.05c1.13,3.33,2,7,1,10.31a7.58,7.58,0,0,1-3,4c-.89.59-2.47.65-3,1.67-.83,1.52,1.07,2.84,2,3.69a25.71,25.71,0,0,0,9.72,5.42,3.22,3.22,0,0,0,1.86.15c1-.31,1.47-1.41,1.89-2.36a25.56,25.56,0,0,1,25.95-14.67A6.88,6.88,0,0,1,66,349.49a13.42,13.42,0,0,0,1,2.32c.9,1.21,1.52.74,2.62.07a34.19,34.19,0,0,0,6.2-4.85,9,9,0,0,0,2.5-3.63,9.38,9.38,0,0,0,0-4.12,46.06,46.06,0,0,0-13.52-25.87,8,8,0,0,0-3.15-2.12c-3.74-1.11-7.11,3-7.6,6.88s.62,7.84-.16,11.66a5.13,5.13,0,0,1-.83,2.07,5.36,5.36,0,0,1-2.69,1.69,14.88,14.88,0,0,1-15.67-4.49c-1.43-1.73-3.5-4.06-5.4-2.85A11.83,11.83,0,0,0,27,328.9c-.67.77-1.73,1.34-2.22,2.2C23.5,333.4,25.68,336,26.37,338.05Z"/>
        <path class="cls-1" d="M2.47,345.05a1.37,1.37,0,0,1,0-1.4A3.83,3.83,0,0,1,4.73,342c3.24-.95,7.36.15,8.63,3.28.46,1.13.36,2.68-.7,3.27-.48.27-1.06.29-1.55.51a4.38,4.38,0,0,0-1.79,2.07,11,11,0,0,1-2.84,3.64,4.38,4.38,0,0,1-4.38.65,2.77,2.77,0,0,1-1.18-3.9c.35-.46.86-.77,1.25-1.2a5.62,5.62,0,0,0,1-3.1A1.89,1.89,0,0,0,3.11,346C2.89,345.68,2.64,345.37,2.47,345.05Z"/>
        <path class="cls-1" d="M32.2,302.18c-.83-.77-1-2.47-1.86-3.15a4.64,4.64,0,0,0-2.58-.49c-1.14-.1-3.19-.05-2.19-1.69,1.17-1.91,5.74-1.08,7.6-1.45.78-.16,1.75-.28,2.25.35a2.21,2.21,0,0,1,.26,1.55l-.49,5.89A3.9,3.9,0,0,1,32.2,302.18Z"/>
      </g>
      <g id="mazhu">
        <path class="cls-1" d="M121.84,90a2.79,2.79,0,0,0,2.42-.81c.68-.92.24-2.32.88-3.27a3.31,3.31,0,0,1,2.77-1c1.47,0,3,0,4.42.07.63,0,3.45-.12,3.7.52.07.18.06.38.12.56.18.53.86.79.78,1.41s-1.21,1.28-1.64,1.64a31.38,31.38,0,0,1-4,2.86,6.05,6.05,0,0,0-1.79,1.37,11.7,11.7,0,0,0-.86,1.6c-1.24,2.34-3.93,3.46-6.45,4.27a73.33,73.33,0,0,1-7.71,2,16,16,0,0,1-4.08.69c-1-.1-1.37-1-2.15-1.49a4.64,4.64,0,0,0-1.14-.44l-1.2-.33c-2.25-.61-.37-5.18.27-6.34,2.07-3.72,2-5.1,2.32-9.19.16-2.33.39-6.11,3.44-6.45C116.71,77.13,113,89.62,121.84,90Z"/>
        <path class="cls-1" d="M132.67,67.31c-1,.44-2.26.54-3.15,1.24a3.9,3.9,0,0,0-1.19,3.77A11.51,11.51,0,0,0,130,76.09,6.43,6.43,0,0,0,137,71a9.28,9.28,0,0,1,.55-2.79c.66-1.27,2.2-1.77,3.58-2.16l11-3.06a4,4,0,0,1,1.83-.2c1.48.3,2.09,2.13,2,3.64s-.59,3-.18,4.5a3.87,3.87,0,0,0,4.87,2.48c1.85-1,2-3.65,1.39-5.67s-1.79-3.94-1.75-6a12,12,0,0,0,0-1.89c-.24-1.52-1.64-2.54-2.42-3.86a5.27,5.27,0,0,1,1.86-7c1.77-1,4.54-1.5,4.51-3.53A19.31,19.31,0,0,0,157.74,44a2.37,2.37,0,0,0-1.24.19,2.5,2.5,0,0,0-.89,1.06l-3.33,5.83c-1.26,2.22-2.64,4.56-4.89,5.77-2.92,1.57-7,.62-9.49,2.91S136.2,65.84,132.67,67.31Z"/>
        <path class="cls-1" d="M143.25,32.49a5,5,0,0,1,1.08,0c1,.2,1.41,1,1.35,2.15-.09,1.44-.88,2.75-1.17,4.16a20.61,20.61,0,0,1-.39,2.08,3.94,3.94,0,0,1-5.5,2.06c-.79-1,.64-2.17,1.23-3.28s.23-2.7.29-4.08c0-.71.29-2.21.94-2.65A5.32,5.32,0,0,1,143.25,32.49Z"/>
        <path class="cls-1" d="M190.14,3.82c-1,.93.34,3.12-.82,3.56a4.25,4.25,0,0,1-.77.23,15.56,15.56,0,0,1-3.2.11,3.33,3.33,0,0,1-2.56-1,5.5,5.5,0,0,1-.85-1.65C181.1,3,179.42.93,177.37.52a1.07,1.07,0,0,0-1.22,1.31c.49,2.16,2.34,4,4.21,5.29,2.25,1.59,4.82,3,6.11,5.44a7.48,7.48,0,0,0,1.08,1.83,1.86,1.86,0,0,0,.95.52,1,1,0,0,0,1.13-.72,12.37,12.37,0,0,1,8.48-7.63,1.06,1.06,0,0,0,.5-1.8c-1.45-1.29-4-1.56-6.06-1.55A3.51,3.51,0,0,0,190.14,3.82Z"/>
        <path class="cls-1" d="M123.76,169.74a4.93,4.93,0,0,1-3.71-2.3,7.24,7.24,0,0,1-.61-3.31,1.7,1.7,0,0,1,.3-1.24,1.77,1.77,0,0,1,1.3-.36,31,31,0,0,0,10.43-1.87,1.57,1.57,0,0,1,1.14-.11,1.33,1.33,0,0,1,.63,1,5.68,5.68,0,0,1-1,4.37c-.37.52-1.07.9-1.38,1.41-.84,1.36-.53,2.08-2.5,2.25A20.75,20.75,0,0,1,123.76,169.74Z"/>
        <path class="cls-1" d="M133.39,175.08a6.49,6.49,0,0,0-.31,6.22,1.73,1.73,0,0,0,1.22,1.08,1.76,1.76,0,0,0,1.09-.4c2.34-1.63,3.87-4.46,6.57-5.37a5.78,5.78,0,0,0,1.77-.69,3.74,3.74,0,0,0,1.12-2,7.29,7.29,0,0,0,.47-2.91c-.32-2.61-4-2.93-5.86-2A16.62,16.62,0,0,0,133.39,175.08Z"/>
      </g>
    </g>
  </g>
</svg>
