<svg xmlns="http://www.w3.org/2000/svg" width="450.2" height="820.82" viewBox="0 0 450.2 820.82">
  <defs>
    <style>
      .cls-1 {
        fill: none;
        stroke: #000;
        stroke-miterlimit: 10;
      }
    </style>
  </defs>
  <title>twAsset 5</title>
  <g id="Layer_2" data-name="Layer 2">
    <g id="Layer_3" data-name="Layer 3">
      <path class="cls-1" d="M304.72,26.84c8-7.53,13.51-18,23.2-23.22a27.26,27.26,0,0,1,25-.16c14.68,7.64,13.77,25.62,29,34.16,13,7.3,24.75,1,36.77,5.72,8.42,3.3,2.22,10.73,6.48,15.6,6.17,7,15.56,8.54,24.51,11.51.19,4.52-4.91,7.16-9.18,8.66C412.19,89,395,122.26,401.59,151.79c3,13.55,10.53,26.43,9.53,40.28-1.23,17.12-15,30.46-21.48,46.34-2.48,6.06-3.93,12.55-6.91,18.39-3.3,6.48-8.35,11.87-12.47,17.86-16.81,24.47-16.84,56.2-19.92,85.73a391.37,391.37,0,0,1-14.43,71.28c-14.35,48.08-37,93.21-59.53,138.05-7.46,14.84-15,29.78-25,43-16.57,21.75-39.78,38.45-52.81,62.49-21.19,39.11-10.63,86.95-14.18,131.28-.53,6.55-4.11,15.16-10.5,13.67-4.63-1.07-6.46-7.09-10.84-8.92-3.09-1.29-6.77-.21-9.89-1.42-6-2.33-6-10.61-5.56-17a112.68,112.68,0,0,0-33.79-88.15C93.3,685,65.12,672.87,50.05,648.81c-15.24-24.34-14.17-56.72-31.31-79.75-5.35-7.19-12.39-13.33-15.82-21.6-6-14.48.55-30.7,4.92-45.76,6.59-22.71,8.1-46.56,13-69.7C31,384.2,55.37,340.81,79.41,298.26l21.27-37.65c15.71-27.82,31.52-55.78,51.5-80.72C174,152.64,201.13,128.44,214,96c5-12.54,9-27.52,21.23-33.21,7.18-3.32,19.34-3.83,24.49-10.13,2.32-2.83,3.92-6.28,6.71-8.64,3.17-2.69,7.42-3.61,11.46-4.59,8.64-2.08,17.35-4.89,24.31-10.43C303.09,28.31,303.92,27.59,304.72,26.84Z"/>
    </g>
  </g>
</svg>
