<svg xmlns="http://www.w3.org/2000/svg" width="88.57" height="160.82" viewBox="0 0 88.57 160.82">
  <defs>
    <style>
      .cls-1 {
        fill: none;
        stroke: #000;
        stroke-miterlimit: 10;
      }
    </style>
  </defs>
  <title>twAsset 4</title>
  <g id="Layer_2" data-name="Layer 2">
    <g id="Layer_3" data-name="Layer 3">
      <path class="cls-1" d="M59.81,5.64c1.56-1.47,2.63-3.52,4.52-4.53a5.32,5.32,0,0,1,4.88,0c2.86,1.49,2.68,5,5.65,6.66,2.54,1.42,4.82.19,7.17,1.11,1.64.65.43,2.09,1.26,3,1.2,1.38,3,1.67,4.78,2.25,0,.88-1,1.39-1.79,1.68-5.52,1.94-8.87,8.42-7.59,14.17.59,2.64,2,5.16,1.86,7.86-.24,3.33-2.92,5.93-4.19,9-.48,1.18-.76,2.45-1.34,3.59A33,33,0,0,1,72.58,54c-3.27,4.77-3.28,11-3.88,16.71a76.36,76.36,0,0,1-2.81,13.89c-2.8,9.38-7.21,18.18-11.61,26.92a52.64,52.64,0,0,1-4.88,8.38c-3.23,4.24-7.76,7.5-10.3,12.18C35,139.66,37,149,36.34,157.63c-.1,1.27-.8,3-2.05,2.66-.9-.21-1.26-1.38-2.11-1.74-.6-.25-1.32,0-1.93-.28-1.17-.45-1.17-2.06-1.08-3.31a22,22,0,0,0-6.59-17.19c-4-3.84-9.48-6.19-12.42-10.88S7.4,115.83,4.05,111.34c-1-1.4-2.41-2.6-3.08-4.21-1.17-2.82.11-6,1-8.92,1.29-4.43,1.58-9.08,2.54-13.59,2-9.32,6.73-17.78,11.41-26.07L20,51.21a115.64,115.64,0,0,1,10-15.74c4.26-5.31,9.54-10,12.06-16.35,1-2.45,1.75-5.37,4.14-6.48,1.4-.64,3.77-.74,4.77-2A12.09,12.09,0,0,1,52.35,9a5.32,5.32,0,0,1,2.23-.89,12,12,0,0,0,4.74-2Z"/>
    </g>
  </g>
</svg>
