<?xml version="1.0" encoding="utf-8"?>
<!-- Generator: Adobe Illustrator 23.1.1, SVG Export Plug-In . SVG Version: 6.00 Build 0)  -->
<svg version="1.1" id="Layer_1" xmlns="http://www.w3.org/2000/svg" xmlns:xlink="http://www.w3.org/1999/xlink" x="0px" y="0px"
	 viewBox="0 0 512.2 939.6" style="enable-background:new 0 0 512.2 939.6;" xml:space="preserve">
<style type="text/css">
	.st0{fill:#FFFFFF;stroke:#000000;stroke-miterlimit:10;}
	.st1{fill:#FFFFFF;stroke:#1A1A1A;stroke-linejoin:round;}
	.st2{fill:#FFFFFF;}
</style>
<title>twAsset 1</title>
<g>
	<g id="Layer_2-2">
		<path class="st0" d="M325.5,48.3c9.1,6.1,17.8,12.8,26.1,20.1c2.1,1.9,4.2,3.8,5.4,6.4s1.2,5.9-0.8,7.9c-2.7,2.8-7.3,2-10.9,3.3
			c-4.6,1.7-7.2,6.8-7.5,11.7s1.4,9.7,3,14.3l3.2,9.1c0.4,1.5,1.1,2.9,2.1,4.2c3,3.6,8.6,3.1,13,4.7c6.5,2.3,10.3,10.3,8,16.9
			c-0.6,1.6-1.4,3.1-1.5,4.8c-0.1,2.1,1,4,2.1,5.8c3.4,5.6,7.2,10.9,11.2,16l19-10.7c3.3-1.8,6.8-4,8.1-7.5c1.1-3,0.3-6.5,1.2-9.6
			c1.1-4.1,4.8-7,8.5-9.2c12.6-7.5,27.6-10.9,38.7-20.5c2.2-1.9,4.3-4.1,6.9-5.6c4.1-2.4,9.7-3.3,11.4-7.7c0.8-2,0.5-4.4,1.5-6.3
			c1.6-3.2,5.8-4,9.3-4.7c10-1.8,19.5-5.6,28-11c-1-3.1-5.4-2.6-8.7-3.2c-4.7-0.7-8.3-5-9.9-9.5s-1.7-9.4-2.2-14.2
			c-0.2-1.8-0.5-3.8-1.9-5c-1.8-1.6-4.4-1.3-6.8-1.1c-7.3,0.5-14.6-1.1-21-4.7c-5.4-3-10.3-7.4-16.5-8.2c-3.1-0.4-7-0.1-8.7-2.8
			c-0.8-1.2-0.9-2.7-1.2-4.1c-1.1-4.1-4.5-7-7.9-9.6c-5.3-4.1-10.9-8.1-16.5-11.9c-3.3-2.2-6.8-4.4-10.7-5.4
			c-10.2-2.6-20.7,3.6-27.6,11.5s-11.6,17.6-18.8,25.3s-18.1,13.4-28,10"/>
		<path class="st1" d="M387,34.8l7.2-7.3c1.4-1.4,3-3,5.6-1.8c1.5,0.7,2.6,2,3.2,3.5c3.1,7.9,6.2,15.8,9.2,23.7c1,2.5,2,5.1,1.6,7.7
			c-0.3,2.2-1.5,4.2-1.2,6.4s2,2.9,4.1,3.3c1,0.2,1.7,1.1,1.5,2.2c-0.1,0.6-0.6,1.2-1.2,1.4c-2,0.8-3.9,1.9-5.7,3.2
			c-3.8,2.8-4.4,9.6-0.3,12.1c-2.3,3.5-7.8,2.7-11,0.1s-5.1-6.5-8.2-9.4s-8.2-4.4-11.2-1.5c-1.7-1.3-1.5-4-0.5-5.8s2.8-3.3,3.7-5.2
			c1.8-4,0.1-8.8-3.9-10.7c-2.8-1.2-6.3-1-7.7-4.5c-0.9-2.7,0-5.7,2.2-7.5c4-3.3,8.7-5.9,10.8-8L387,34.8z"/>
		<g>
			<path class="st2" d="M419.8,47.1c-1.4,0.2-2.7-0.9-2.9-2.3c-0.1-0.9,0.3-1.9,1.1-2.4c1-0.7,2.4-0.6,3.6-0.7
				c4.4-0.3,8.4-2.8,10.5-6.6c0.9-1.6,1.6-3.5,3.4-3.8s3.1,1.2,4.3,2.5c5.6,5.5,14.1,6.6,21.1,10.1c0.7,0.4,1.5,0.9,1.5,1.7
				c0,0.4-0.2,0.9-0.5,1.2c-2.2,2.8-6.8,0.7-10.2,1.9s-4.8,6.4-2.1,9c1,1.1,2.6,1.9,2.8,3.3s-1.2,2.5-2.5,3
				c-1.3,0.5-2.8,0.7-3.9,1.5s-2,2.3-3.4,2.3s-2.3-1.4-3.1-2.6c-1.4-2-3.4-3.6-5.6-4.6s-4.6-1.3-6.8-2.3c-4-2-6.6-6.1-6.6-10.6"/>
			<path d="M419.8,46.6c-1.1,0.2-2.2-0.6-2.4-1.7c-0.2-1.1,0.5-2.2,1.6-2.5c1.1-0.2,2.3-0.3,3.4-0.3c1-0.1,2-0.4,3-0.7
				c1.9-0.7,3.7-1.9,5.1-3.4c0.7-0.8,1.4-1.6,1.9-2.6c0.4-0.9,0.9-1.7,1.5-2.6c0.6-0.9,1.6-1.3,2.6-1c1,0.5,1.9,1.1,2.6,2
				c1.5,1.5,3.2,2.8,5.1,3.8c3.9,2.1,8.2,3.3,12.4,5c1,0.4,2.1,0.8,3.1,1.3c0.8,0.4,2.6,1,2.1,2.1c-0.8,1.9-3.4,1.8-5.1,1.8
				c-1.9,0-3.9-0.2-5.7,0.5c-1.4,0.7-2.5,2-3,3.5c-0.9,2.5-0.1,5.2,2,6.8c0.7,0.6,1.7,1.3,1.8,2.2s-0.9,2-1.7,2.4s-2.2,0.7-3.2,1.1
				c-0.9,0.4-1.8,1-2.5,1.8c-0.7,0.7-1.6,1.4-2.6,0.9c-0.9-0.6-1.6-1.4-2.1-2.3c-0.6-0.9-1.4-1.7-2.2-2.4c-1.8-1.5-3.9-2.5-6.1-3.1
				c-2.4-0.7-4.7-1.4-6.6-3.1c-1.6-1.4-2.8-3.3-3.4-5.3c-0.3-1-0.5-2.1-0.5-3.2c0-0.3-0.2-0.5-0.5-0.5s-0.5,0.2-0.5,0.5
				c0,4.7,2.7,8.9,6.8,11c2.5,1.2,5.3,1.5,7.7,2.8c1.1,0.6,2.2,1.4,3.1,2.2c0.8,0.9,1.5,1.8,2.2,2.7c0.5,0.9,1.4,1.5,2.4,1.8
				c1,0.1,1.9-0.3,2.6-1c0.8-0.8,1.7-1.5,2.8-2c1.2-0.3,2.3-0.7,3.4-1.3c0.9-0.5,1.6-1.4,1.9-2.4c0.2-1-0.2-2-0.9-2.7
				c-0.8-0.7-1.6-1.4-2.4-2.2c-0.5-0.7-0.8-1.6-0.9-2.5c-0.1-1.8,0.7-3.6,2.1-4.8c1.7-1.2,4-0.9,6-0.8s4,0,5.4-1.6
				c0.8-0.7,0.9-1.9,0.3-2.8c-0.8-0.8-1.8-1.4-2.8-1.7c-4.4-2-9.1-3.2-13.5-5.3c-2.1-1-4.1-2.3-5.9-3.9c-1.5-1.4-3.3-3.5-5.6-2.5
				c-2,0.9-2.6,3.3-3.7,5c-1.3,1.9-3.2,3.4-5.4,4.3c-1.1,0.5-2.3,0.8-3.5,0.9c-1.1,0-2.3,0.1-3.4,0.3c-1.7,0.5-2.6,2.2-2.2,3.8
				c0.4,1.5,1.8,2.4,3.3,2.3c0.6-0.1,0.6-1.1,0-1L419.8,46.6z"/>
		</g>
		<path class="st0" d="M251,98c5.6-1.5,8.4-7.8,10-13.4s3.5-11.9,8.6-14.6c2.8-1.5,6-1.6,9.2-1.9c9-0.9,17.7-4,25.3-8.9
			c6.8-4.4,14.4-10.6,22.1-8c3.4,1.1,6,3.8,8.9,6c4.8,3.8,10.6,6.4,15,10.7s7.4,11.1,4.6,16.6c-0.3,0.5-0.6,1-1,1.4
			c-1,0.8-2.2,1.4-3.5,1.6c-9.1,3.2-14.3,14.5-10.7,23.5c1.1,2.7,2.8,5.1,3.8,7.8s1.5,6.1,3.8,8.1s5.6,1.7,8.5,2.3
			c5.3,1.3,9.4,5.5,10.5,10.8c0.9,4.3-0.4,8.8,0.3,13.1c1.1,7.2,7.2,12.6,10.1,19.3c2,4.3,2.3,9.2,0.8,13.7s-5.3,7.9-10,8.8
			c-2.4,0.4-5,0-7.4,0.7c-1.7,0.5-3.2,1.6-5,1.4c-2.3-0.2-3.8-2.5-5-4.5l-15.3-26.9c-1.4-2.3-2.6-4.7-3.5-7.3
			c-1.4-4.2-1.5-9-4.2-12.5c-1.8-2.4-4.6-3.8-7.3-5.1l-24.8-12.4c-1.3-0.5-2.4-1.4-3-2.6c-0.6-1.3,0-2.9,0-4.3c0-4.9-5.4-7.8-10.1-9
			s-10.2-2.4-12.4-6.8c-0.9-1.9-1.2-4.3-2.9-5.5c-1.3-0.7-2.7-1-4.2-0.9l-12.7,0.1"/>
		<path class="st0" d="M249.7,101.1c-3.9,6-7.7,12.2-11.2,18.5c-1,1.7-2,3.8-1.3,5.6c0.5,1.4,1.8,1.5,3,2.3c4.9,3,9.6,6.2,14.2,9.6
			c4.4,3.5,8,8.4,8.3,14c-3.7,1.7-7.8-1.1-10.6-4c-0.7-0.7-1.6-1.5-2.5-1.3c-0.7,0.2-1.2,0.7-1.6,1.3l-9.2,12.3
			c-0.4,0.5-0.7,1-0.8,1.7c0,2.6,4.4,1.3,6.4,2.9c0.7,0.7,1.2,1.6,1.4,2.5c5.1,13.6,25,17.3,29.3,31.2c1.9,6.2,0.1,12.8-1.5,19
			c-0.3,0.9-0.4,1.8-0.2,2.7c0.6,2,3.1,2.6,5.2,2.6c10.3-0.1,20-5.9,30.3-5.4c1.9,0,3.8,0.5,5.5,1.6c6,4.2,1.7,14.5,6.1,20.3
			c0.6,0.9,1.4,1.5,2.4,1.8c1,0.1,2,0,3-0.3c18.3-5.7,31.9-24,32.1-43.2c-3.4,0-6.3-2.8-8-5.8s-2.5-6.4-4-9.5
			c-3-5.9-8.6-10.2-11.5-16.1c-2.5-5-2.9-10.8-5.5-15.7c-5.8-11-19.8-13.9-30.3-20.4c-2-1.1-3.7-2.6-5-4.4s-1.8-4.1-3-6
			c-1.8-3-4.9-4.8-7.9-6.6l-12.9-7.6c-5.8-3.4-11.9-6.9-18.6-7L249.7,101.1z"/>
		<path class="st0" d="M235,127.5c-3,1.9-2.5,4.6-3.4,8.1s-1,7-1.9,10.4c-1.3,5.1,0.6,4.3-3.5,7.7l13.4,8.9
			c-1.7-3.7,0.7-7.9,3.5-10.9c3.2-3.5,8.3-6.5,12.4-4.2c1.2,0.7,2.2,1.7,3.4,2.2s3,0.4,3.6-0.9c0.2-0.7,0.2-1.4,0-2.1
			c-0.4-1.7-1.2-3.2-2.2-4.6c-5.6-7.1-11.6-15.1-20.2-18c-0.9-0.3-2,0.1-2.4,1L235,127.5z"/>
		<path class="st0" d="M226.3,153.7c14.6,14.1,29.8,27.9,44.4,41.9c1.7,1.4,3.1,3.3,4.1,5.3c1.4,3.7-0.1,7.7-1,11.6s-0.5,8.7,3,10.5
			c1.6,0.7,3.4,0.9,5.2,0.5c3.7-0.4,7.2-1.5,10.6-3.2c2.6-1.3,5-2.9,7.8-3.7s6.1-0.4,8,1.8s1.8,5.3,3.2,7.8s4.1,4,6.4,5.7
			s4.5,4.4,3.9,7.2c-0.5,1.6-1.4,3-2.6,4.2l-7.7,8.5c-0.9,1-1.9,1.9-3,2.7c-1.4,0.7-2.9,1.2-4.5,1.6c-4,1.2-7.8,2.8-11.4,4.9
			c-8.1,4.3-15.9,9-23.4,14.3c-1.4,1.2-3.2,2-5,2.4c-3.2,0.4-5.9-2-8.4-3.9c-6-4.4-13.1-7-20.5-7.6c-1-0.2-2,0-2.9,0.5
			c-1.1,0.8-1.2,2.4-1.6,3.8c-1.3,5.3-6.9,8.6-12.3,8.8s-10.6-2.1-15.4-4.7c-17.6-9.7-31.8-24.3-45.9-38.7c7.5-5,13-12.4,15.8-21
			c2.3-7.2,2.5-15.2,6.6-21.5c4.4-6.9,12.4-10.4,19.5-14.6c10.1-5.7,18.7-13.6,25.3-23.2L226.3,153.7z"/>
		<path class="st0" d="M156.4,242.9c-12.2,18-21.8,31-34,49c-2.8,4.1-5.7,8.7-4.8,13.6c0.5,3.1,2.5,5.7,4.5,8.2
			c4.4,5.6,8.9,11.3,15.1,14.8c4.9,2.8,10.9,4.1,14.7,8.3c3.3,3.7,4.3,9,6.9,13.3c5,8,15.1,11,24.4,12.2c1.9,0.4,3.9,0.3,5.8-0.2
			c2.3-0.8,4-2.8,5.4-4.8c3.9-5.5,6.8-11.7,10.8-17.1s9.4-10.3,16.1-11.4c7.3-1.2,14.9,2.1,22.1,0.3c4.1-1.1,7.6-3.8,11.1-6.3
			c12.7-9,26.9-15.6,42-19.3c5.9-1.5,11.8-2.5,17.7-3.5c8.8-1.5,18.4-2.9,26.1,1.5c1.1,0.6,2.4,1.4,3.6,1s1.9-2.1,2.2-3.5
			c3.8-14.8,16.1-25.6,23.9-38.7c0.7-1.2,1.4-2.8,0.6-4c-1-1.3-3-0.9-4.6-0.5c-10,2.2-20.4-2.4-25.3-11.4c-1.4-2.7-2.4-5.9-5-7.5
			c-3-1.9-7.2-0.8-10,1.4s-4.8,5.3-7.2,8c-12.5,14-34.7,14.9-48.6,27.6c-2.4,2.2-5,4.9-8.2,4.8c-2.4-0.1-4.5-1.8-6.2-3.5
			c-3.6-3.6-6.9-7.8-11.6-9.8s-11.3-0.8-13,4c-0.5,1.5-0.5,3.2-1.2,4.6c-1.1,2.1-3.5,3.2-5.9,3.7c-8,1.7-16.4-1-23.3-5.3
			s-12.8-10.1-19-15.5c-7.6-6.5-15.8-12.3-24.4-17.4L156.4,242.9z"/>
		<path class="st0" d="M119.8,307.4c-21.4,30.3-40.6,62-57.4,95.1c-0.8,1.3-1.2,2.7-1.3,4.2c0.1,2.4,2.2,4.4,4.5,5.1
			c2.4,0.5,4.8,0.6,7.2,0.1l29-3.4c2.6-0.5,5.2-0.5,7.8,0c3.2,0.8,5.8,3,8.7,4.8c10.7,6.6,24,6.8,36.6,6.8c7,0,15.5-0.9,18.5-7.3
			c-3.6-3.1-9.6-1.6-13.2-4.7c-1.8-1.6-2.5-4-3.1-6.3c-2.9-12.5-1.5-25.7,3.8-37.4c0.9-2,2-4.1,2.1-6.4c-0.1-2.2-0.7-4.3-1.8-6.1
			c-4-8.5-8.3-17.5-16.1-22.8c-3.9-2.6-8.4-4.2-12.2-6.9c-5.6-4.1-9.1-10.4-12.4-16.5L119.8,307.4z"/>
		<path class="st0" d="M62.5,411.3c-6.8,1.1-12.5,5.9-16.2,11.7s-5.9,12.4-7.8,18.9c-4.7,15.9-8.8,31.9-12.3,48.2
			c-0.3,1-0.3,2.1,0,3.1c0.4,0.9,1.1,1.6,2,2c8,5.1,18.6,4.7,27.4,1s16-10.1,22.7-16.9c6.4-6.5,12.8-13.5,21.3-16.6
			c9.6-3.4,20.5-1,29.2,4.4c3.6,2.2,6.9,4.9,10.8,6.4c3.3,1.1,6.7,1.8,10.2,2.1l32,3.8c0.8,0.2,1.7,0.1,2.5-0.3
			c1.4-0.9,1.1-2.9,0.6-4.5c-0.9-3-2-6.2-4.7-7.9c-3.8-2.4-8.7-0.4-13.1,0.5s-10.5-0.8-10.4-5.2c0.1-0.9,0.3-1.8,0.6-2.7
			c3.2-9.9,5.1-20.1,5.7-30.4c0.3-2.2,0-4.4-0.6-6.5c-1.7-4.4-6.9-6.4-11.6-6.6s-9.4,0.9-14.1,0.6c-8.4-0.5-15.9-5.4-24.2-7.3
			c-8-1.8-16.3-0.6-24.4,0.6c-9.2,1.3-13.5-0.4-22.6,1L62.5,411.3z"/>
		<path class="st0" d="M29.2,498c-2.3-1.6-5.3-0.9-6,1.7s0.6,5.2,1.5,7.8c3.3,9.9,0.1,20.7-0.1,31.1c-0.1,3.3,0.2,6.8,2,9.6
			c3.3,5.5,10.7,6.9,17,5.8c12.2-2.1,21.7-11.4,31.5-18.9s22.6-14,34.2-9.6c7.1,2.7,12.3,9.2,14.9,16.4s2.8,15,2.3,22.6
			c-0.2,3.6-0.4,7.7,2.3,10.1c1.5,1.4,3.7,1.9,5.7,2.3c10.1,1.9,20.4,2.6,30.6,2.3l-0.4-13.7c-0.1-2.4-0.1-5.2,1.7-6.9
			c1.2-1,2.7-1.7,4.2-2c6-2,11.3-5.7,16.5-9.4c9.6-6.8,19.3-13.6,27.1-22.4c2.8-3.2,5.5-6.7,9.4-8.5s9.4-2.3,10.5-6.5
			c-7-1.7-14.9,0.1-21.3-3.2c-7.1-3.7-10-12.9-8.6-20.8c0.5-3,1.6-6.1,0.5-8.9c-0.9-1.8-2.3-3.4-3.9-4.6c-2.5-2.2-5.2-4.4-8.5-5
			s-7.2,1.1-7.8,4.4c-0.4,2,0.2,4.9-1.8,5.6c-0.5,0.1-1,0.2-1.5,0.1l-33.2-2.8c-4-0.3-8.2-0.7-11.9-2.3c-6.8-2.9-11.5-9.4-18.3-12.1
			c-10.2-4.1-21.8,1.3-29.9,8.6s-14.4,16.7-23.5,22.9c-10.5,7.2-21.6,10-33.8,6.4L29.2,498z"/>
		<path class="st0" d="M23,543.1c-5.2,4.8-4.5,13-5.2,20.1c-1.7,18.8-15,35-17.2,53.8c-0.3,1.7-0.2,3.5,0.4,5.2
			c0.8,2,2.7,3.4,4.4,4.7c8.8,6.9,16.4,15.1,22.5,24.5c2.4,3.6,4.6,7.5,8,10.2s8,3.8,12.4,4.6c12.8,2.2,25.9,2.2,38.7-0.1
			c4.6-0.8,9.4-2.1,12.6-5.4c2.3-2.3,3.6-5.4,5-8.3c13.2-26.1,43.6-40.2,56.7-66.4c0.7-1.2,1.1-2.7,1.1-4.1c-0.2-2.3-2.4-4-4.7-4.6
			s-4.6-0.2-7-0.1c-5.8,0.3-11.6-1-16.8-3.5c-1.7-0.7-3.2-1.9-4.2-3.5c-1.4-2.7-0.1-5.8,0.5-8.8c1.6-7.5-1.8-15.4-7-21.1
			s-12-9.6-18.6-13.5c-3-1.7-6.1-3.5-9.5-3.4c-2.5,0.2-4.9,0.8-7.1,2c-9.4,4.4-18,10.5-25.3,17.9c-6.4,6.5-13.7,14.7-22.6,13
			c-7.3-1.3-11.6-8.6-14.9-15.3L23,543.1z"/>
		<path class="st0" d="M250,538.6c-1.4-2.5,1.3-5.3,3.9-6.5c2.6-1.2,5.8-2,7-4.5c0.9-2.1,0.2-4.5-0.6-6.6
			c-1.9-5.3-4.3-11.2-9.5-13.3c-5.8-2.3-12.1,1.2-17.3,4.5c-18.4,11.7-37.1,23.7-50.9,40.5c-3.7,4.5-8.4,9.8-14,8.5
			c-2.4-0.5-5-2.2-7-0.8c-1.4,1.1-1.5,3.2-1.4,4.9c0.3,16.8-5.7,34-17.4,46.1c-4.4,4.5-9.4,8.4-14,12.7
			C117.5,635,109.6,648.7,99,660c-2.6,2.8-5.4,5.4-8.8,6.9c-6.1,2.7-13,1.5-19.6,0.5c-8.1-1.2-16.2-1.8-24.3-2
			c-3.9-0.1-8.8,0.6-10.1,4.2c-0.7,1.9-0.2,3.9,0.4,5.8c5.2,18,14,35.2,16.2,53.9c0.5,4.6,0.7,9.4,2.5,13.7c1.5,3.1,3.4,5.9,5.7,8.5
			c11.1,13.2,23.6,25.1,37.3,35.5c8.1-17.3,8-37.2,10.5-56.2c1.7-12.8,4.7-25.3,7.7-37.8c0.4-1.6,0.8-3.3,2.2-4.3
			c1.6-1.2,3.8-0.8,5.7-0.8c11.8,0.4,20.9-10.3,32.3-13.5c18.5-5.1,36.8,10.5,56,9.7c0.9,0,1.8-0.2,2.6-0.5c2.6-1.2,3-4.9,1.8-7.6
			s-3.4-4.6-5-7c-4-5.9-3.8-13.8-1.8-20.6s5.6-13.1,8.1-19.7c5-13,5.7-27.3,9.7-40.7s12.8-26.8,26.4-30c4.1-1,9.6-2,10-6.2
			c0.8-7.5-15.7-7.6-14.5-15.1"/>
		<path class="st0" d="M215.8,687c4.9,6.7,4.2,6.7,8,14.1c1.3,2.5,2.6,5.4,2.1,8.2c-0.5,2-1.6,3.9-3,5.4
			c-6.1,7.3-14.2,12.7-21.5,18.9s-14.1,13.6-16.3,22.9c-3.5,14.7,5.3,29.9,3.2,44.9c-0.5,3.5-1.6,7-1.4,10.5
			c0.3,2.8,1.1,5.6,2.3,8.2l5.4,13.9c2,5.1,4.3,10.5,9,13.2c4,2.2,9.1,2,12.9,4.4c5.6,3.6,6.5,11.2,6.9,17.8
			c0.8,13.4,1.6,27.2-3.4,39.7c-3.9,9.8-11.4,18.5-11.7,29.1c-2.7,1.8-6.4,1-9.1-0.7s-5.2-3.9-8.1-5.3c-3.6-1.6-7.6-1.8-11.3-0.4
			c-1,0.4-2.1,0.8-2.9,0.3c-0.6-0.5-1-1.3-1.1-2.1c-1.2-6.1-1.6-12.3-1.1-18.5c0.5-5.8,1.7-11.5,2-17.4c1.1-20.6-9.5-39.8-20.3-57.4
			c-10.6-17.3-23-35.5-42.3-41.9c-6.5-2.2-15-4.4-15.6-11.2c-0.3-3.2,1.4-6.1,2.6-9.1c3.8-9.2,2.8-19.6,3.3-29.5
			c0.8-18.5,6.7-36.3,12.4-53.9c0.9-2.6,1.8-5.4,4-7.2c4.2-3.4,10.2-1.4,15.6-1.3c7.2,0.1,13.8-3.6,20.8-5.3
			c17.3-4.2,35.3,4.2,53,2.3L215.8,687z"/>
		<path class="st0" d="M384.4,523.8c-1.5-5.3-8.6-7.2-13.7-5.2s-8.6,6.6-11.9,11c-1.3,1.7-2.6,3.6-2.8,5.8s0.9,4,1.4,6
			c1.6,5.9-0.8,12-3.2,17.6l-14.9,35.5c-2.7,6.5-6.8,14-13.8,14.4c-4.8,0.3-9.1-3-12.1-6.8s-5.2-8.2-8.7-11.4
			c-10.7-10.1-31.3-8.5-37-22c-1.1-2.6-1.5-5.5-3.2-7.8c-2.5-3.4-7.5-4.2-11.6-2.9s-7.3,4.2-10.2,7.4
			c-24.1,25.8-29.5,63.5-33.7,98.6c-0.8,6.6-1.6,13.5,0.9,19.6c4,9.9,15.9,18.1,12.6,28.2c-1,3.1-3.4,5.5-5.6,7.9
			c-7.4,7.8-14.3,16-20.8,24.6c-3.6,4.8-7.2,9.8-8.5,15.7c-2.1,9.7,2.3,19.5,3,29.4c0.6,9.2-2,18.4-0.9,27.5
			c2.2,17.7,17.6,30.3,31.8,41c1.7-9.4,3.4-18.8,5.7-28.1c6.9-28.5,18.7-55.6,30.4-82.5c3-6.8,6-13.7,11.2-19
			c9.7-9.9,25.7-13,32.6-25c4.6-8,3.9-18.5,9.2-26.1c2.7-3.9,6.8-6.7,10.4-9.9c9-8,15.1-18.7,21-29.2c5.7-10.2,11.5-20.4,15.1-31.5
			c2.9-8.8,4.4-17.9,6.5-26.9c4.6-20,10.3-35.6,20.3-53.5L384.4,523.8z"/>
		<path class="st0" d="M312.5,418.1c0-0.1,0.1-0.2,0.1-0.3c8-11.7,11.9-23.2,16.7-36.6c1.7-4.8,3.1-9.8,2.8-14.8
			c-0.4-5.8-3.3-11.6-1.9-17.2s7-9.8,8.2-15.6c0.9-4.2-0.6-8.3-3.1-12c-2.8-4.2-2.1-9.8,1.5-13.4l0,0c0.9-0.9,2.3-3.1,2.2-4.4
			c0-0.1,0-0.2-0.1-0.3c-0.6-1-4-4.4-4.7-4.8c-9.7-9.5-16.1-4.6-25.4-3.1s-16.7,7.3-25.2,11.1c-9.1,4.1-18.4,8.3-26.2,14.5
			c-4.5,3.6-9.2,8.1-15,7.7c-3.8-0.2-7.1-2.6-10.7-3.5c-7.8-2.1-16.1,2.2-21.7,8s-9.7,13-15.2,18.9s-13.4,10.7-21.4,9.2
			c-2.8-0.5-5.6-1.8-8.4-1.9c-4.8,0-9,3.4-11.2,7.6s-2.9,9-3.4,13.8c-0.8,6.8-1.6,13.7,0.2,20.3s-2.6,18,4.2,18.5
			c1.4,0.1,6.4,1,7.4,2.3c0.1,0.1,0.1,0.3,0.1,0.4c0.3,4.7,1.1,5.4,0.6,6.3c-5.8,10.6-3.9,12.5-3.8,24.6c0,4,0.5,8.2,2.9,11.3
			c7.4,9.8,24.7,1.8,34.5,9.3c9.1,7,5.8,23,14.4,30.6c11.4,10,33.1-2.7,42.8,8.9c1.5,1.8,2.7,4.2,4.9,5c3.1,1.1,6.4-1.6,7.7-4.7
			s1.5-6.5,3.1-9.5c4.7-9,18.6-8.8,24.4-17c1.6-2.3,2.4-5.1,3.6-7.7c1.6-3.4,3.8-6.4,5.8-9.6c9.5-15.3,13.3-33.1,8.9-50.5
			c0-0.1,0-0.3,0-0.5L312.5,418.1z"/>
		<path class="st0" d="M418.4,261.5l32.3,16.3c0.7,0.3,1.3,0.8,1.6,1.4c0.5,1.2-0.7,2.3-1.7,3.1c-16.9,13.2-25.9,33.8-34.2,53.5
			c-1.8,4.2-3.6,8.9-2,13.2c0.8,2.1,2.3,3.9,2.9,6.1c0.4,2.1,0.2,4.3-0.4,6.4c-11.1,50.9-22.1,101.9-33.2,152.8
			c-0.6,2.9-2.5,6.6-5.4,5.8c-0.7-0.3-1.4-0.7-2.1-1.2c-5.5-3.7-13.4,0.4-16.4,6.4s-2.7,12.9-3.2,19.5
			c-1.7,21.2-12.4,40.6-25.4,57.3c-3.8,4.9-10.5,10-15.5,6.3c-1.8-1.4-2.7-3.6-3.7-5.7c-5.1-11.1-14-20-25.1-25.2
			c-6.2-2.9-13.4-4.7-17.8-10.1c-2.4-3-3.7-6.7-5.2-10.2c-3.4-7.8-8.3-14.9-14.5-20.8c10.7-9.9,12-27.5,23.6-36.5
			c4.3-3.4,9.7-5.1,14-8.6c3.8-3.1,6.4-7.4,8.9-11.6c8.5-14.1,17.2-29,18.6-45.4c0.6-7.2-0.2-14.4,0.4-21.6c1.2-13,7.1-25,11.5-37.2
			c6.4-18.3,9.4-37.5,8.8-56.9c-0.1-3.3-0.3-6.7,0.8-9.8c1.3-3.5,4.1-6.2,6.6-9.1c11.4-13,16.3-31.1,29-42.8c1.3-1.4,3-2.4,4.8-2.9
			c3.9-0.9,7.5,2.1,9.9,5.4s4.1,7,7.5,9.1c4.4,2.7,10.1,1.7,14.7-0.7c2.3-1.1,4.5-2.4,6.6-3.8L418.4,261.5z"/>
		<path class="st0" d="M502.5,87.9c-26,14.4-41.9,45.3-38.6,74.8c0.8,6.6,2.5,13.3,6.4,18.8c4.4,6.2,11.8,11.3,11.9,18.8
			c-0.1,2.6-0.8,5.2-1.8,7.6c-8.9,23.8-19,47.1-30.3,69.9c-10-7.6-21.2-13.2-33.2-16.8c-3.2-0.9-6.7-1.7-9.6-0.2
			c-3.2,1.7-4.8,5.6-8,7.2c-3.6,1.8-8,0-11-2.6s-5.4-6-8.6-8.4c-6.6-4.8-15.4-4.4-23.4-5.8s-17-6.7-16.6-14.9
			c0.3-6.7,6.6-11.2,10.4-16.7c5-7.3,5.7-17.1,11.7-23.6c5.1-5.5,13.5-7.6,17.5-14c3.4-5.4,3.2-13,8.1-17.1c3.2-2.6,7.6-3,11-5.3
			c7-4.7,7.2-15.5,13.7-20.8c2.6-2.1,6-3.1,9.3-4.1c10.1-3.1,20.3-6.8,28.6-13.3c7.4-5.8,12.9-13.7,19.8-20.1
			c9.9-9.2,19.6-13.9,33-15.9c0.8,0.8,3,0.9,1.9,0.8L502.5,87.9z"/>
	</g>
</g>
</svg>
