<svg id="Layer_1" data-name="Layer 1" xmlns="http://www.w3.org/2000/svg" width="89.57" height="161.82" viewBox="0 0 89.57 161.82">
  <defs>
    <style>
      .cls-1 {
        fill: none;
        stroke: #000;
        stroke-linecap: round;
        stroke-linejoin: round;
        stroke-width: 2px;
      }
    </style>
  </defs>
  <title>twicon</title>
  <g id="Layer_3" data-name="Layer 3">
    <path class="cls-1" d="M59.81,5.64c1.56-1.47,2.63-3.52,4.52-4.53a5.32,5.32,0,0,1,4.88,0c2.86,1.49,2.68,5,5.65,6.66C77.4,9.19,79.68,8,82,8.88c1.64.65.43,2.09,1.26,3,1.2,1.38,3,1.67,4.78,2.25,0,.88-1,1.39-1.79,1.68-5.52,1.94-8.87,8.42-7.59,14.17.59,2.64,2,5.16,1.86,7.86-.24,3.33-2.92,5.93-4.19,9C75.88,48,75.6,49.29,75,50.43A33.1,33.1,0,0,1,72.58,54c-3.27,4.77-3.28,11-3.88,16.71A75.52,75.52,0,0,1,65.89,84.6c-2.8,9.38-7.21,18.18-11.61,26.92a53.09,53.09,0,0,1-4.88,8.38c-3.23,4.24-7.76,7.5-10.3,12.18C35,139.66,37,149,36.34,157.63c-.1,1.27-.8,3-2.05,2.66-.9-.21-1.26-1.38-2.11-1.74-.6-.25-1.32,0-1.93-.28-1.17-.45-1.17-2.06-1.08-3.31a22,22,0,0,0-6.59-17.19c-4-3.84-9.48-6.19-12.42-10.88S7.4,115.83,4.05,111.34c-1-1.4-2.41-2.6-3.08-4.21-1.17-2.82.11-6,1-8.92,1.29-4.43,1.58-9.08,2.54-13.59,2-9.32,6.73-17.78,11.41-26.07L20,51.21A115.3,115.3,0,0,1,30,35.47c4.26-5.31,9.54-10,12.06-16.35,1-2.45,1.75-5.37,4.14-6.48,1.4-.64,3.77-.74,4.77-2A11.41,11.41,0,0,1,52.35,9a5.35,5.35,0,0,1,2.23-.89,12.07,12.07,0,0,0,4.74-2Z" transform="translate(0.5 0.48)"/>
  </g>
</svg>
