<svg xmlns="http://www.w3.org/2000/svg" width="32.81" height="38.29" viewBox="0 0 32.81 38.29">
  <defs>
    <style>
      .cls-1 {
        fill: none;
        stroke: #000;
        stroke-miterlimit: 10;
      }
    </style>
  </defs>
  <title>yilanAsset 1</title>
  <g id="Layer_2" data-name="Layer 2">
    <g id="Layer_1-2" data-name="Layer 1">
      <g id="Layer_2-2" data-name="Layer 2-2">
        <path class="cls-1" d="M31.87,1a14.94,14.94,0,0,0-7.42,14.39A7.52,7.52,0,0,0,25.67,19c.85,1.18,2.27,2.17,2.28,3.62a4.28,4.28,0,0,1-.35,1.46,144.21,144.21,0,0,1-5.83,13.44,20,20,0,0,0-6.4-3.22,2.52,2.52,0,0,0-1.85,0c-.62.32-.92,1.07-1.54,1.38a2,2,0,0,1-2.11-.5c-.58-.51-1-1.16-1.65-1.62-1.26-.92-3-.85-4.51-1.12S.44,31.12.5,29.55c.06-1.28,1.28-2.15,2-3.21,1-1.41,1.09-3.3,2.26-4.54,1-1.05,2.58-1.46,3.36-2.69.66-1,.61-2.5,1.56-3.28.6-.5,1.47-.58,2.12-1,1.35-.9,1.38-3,2.64-4A4.91,4.91,0,0,1,16.22,10a16.27,16.27,0,0,0,5.51-2.57c1.42-1.12,2.48-2.63,3.81-3.86A11.05,11.05,0,0,1,31.89.53c.14.16.57.18.36.17Z"/>
      </g>
    </g>
  </g>
</svg>
