<?xml version="1.0" encoding="utf-8"?>
<!-- Generator: Adobe Illustrator 23.1.1, SVG Export Plug-In . SVG Version: 6.00 Build 0)  -->
<svg version="1.1" id="Layer_1" xmlns="http://www.w3.org/2000/svg" xmlns:xlink="http://www.w3.org/1999/xlink" x="0px" y="0px"
	 viewBox="0 0 166.4 193.6" style="enable-background:new 0 0 166.4 193.6;" xml:space="preserve">
<style type="text/css">
	.st0{fill:none;stroke:#000000;stroke-miterlimit:10;}
</style>
<title>yilanAsset 2</title>
<g>
	<g id="Layer_2-2">
		<path class="st0" d="M98.7,78.7c-5,2.8-8.1,8.7-7.4,14.4c0.1,1.3,0.5,2.6,1.2,3.6c0.8,1.2,2.3,2.2,2.3,3.6c0,0.5-0.1,1-0.3,1.5
			c-1.7,4.6-3.7,9.1-5.8,13.4c-1.9-1.5-4.1-2.5-6.4-3.2c-0.6-0.2-1.3-0.3-1.9,0c-0.6,0.3-0.9,1.1-1.5,1.4c-0.7,0.3-1.5,0-2.1-0.5
			c-0.6-0.5-1-1.2-1.6-1.6c-1.3-0.9-3-0.9-4.5-1.1c-1.5-0.3-3.3-1.3-3.2-2.9c0.1-1.3,1.3-2.2,2-3.2c1-1.4,1.1-3.3,2.3-4.5
			c1-1.1,2.6-1.5,3.4-2.7c0.7-1,0.6-2.5,1.6-3.3c0.6-0.5,1.5-0.6,2.1-1c1.3-0.9,1.4-3,2.6-4c0.5-0.4,1.2-0.6,1.8-0.8
			c1.9-0.6,3.9-1.3,5.5-2.6c1.4-1.1,2.5-2.6,3.8-3.9c1.9-1.8,3.8-2.7,6.3-3.1c0.1,0.2,0.6,0.2,0.4,0.2L98.7,78.7z"/>
	</g>
</g>
</svg>
