<?xml version="1.0" standalone="no"?>
<!DOCTYPE svg PUBLIC "-//W3C//DTD SVG 20010904//EN"
 "http://www.w3.org/TR/2001/REC-SVG-20010904/DTD/svg10.dtd">
<svg version="1.0" xmlns="http://www.w3.org/2000/svg"
 width="3328.000000pt" height="3328.000000pt" viewBox="0 0 3328.000000 3328.000000"
 preserveAspectRatio="xMidYMid meet">
<metadata>
Created by potrace 1.11, written by Peter Selinger 2001-2013
</metadata>
<g transform="translate(0.000000,3328.000000) scale(0.100000,-0.100000)"
fill="#000000" stroke="none">
<path d="M18735 20823 c-11 -10 -37 -29 -57 -43 -21 -14 -38 -28 -38 -32 0 -5
-6 -8 -12 -8 -7 0 -26 -11 -43 -25 -16 -13 -95 -72 -175 -130 -80 -57 -154
-112 -165 -120 -11 -9 -58 -43 -105 -77 -88 -64 -198 -144 -285 -208 -27 -20
-86 -63 -130 -95 -44 -32 -81 -62 -83 -67 -2 -4 -9 -8 -16 -8 -7 0 -28 -13
-47 -29 -19 -16 -110 -84 -204 -152 -93 -68 -174 -127 -180 -131 -66 -54 -192
-140 -315 -218 -115 -73 -144 -90 -160 -97 -8 -4 -17 -9 -20 -12 -3 -3 -14
-11 -25 -18 -110 -65 -211 -129 -213 -135 -2 -5 -8 -8 -14 -8 -5 0 -41 -20
-79 -45 -38 -24 -69 -42 -69 -39 0 3 -7 -1 -15 -8 -27 -24 -40 -34 -90 -63
-27 -16 -58 -34 -67 -40 -9 -5 -72 -44 -139 -85 -67 -41 -134 -82 -148 -90
-14 -8 -40 -25 -58 -37 -17 -13 -36 -23 -42 -23 -6 0 -11 -4 -11 -9 0 -5 -10
-13 -22 -17 -12 -3 -26 -11 -32 -16 -6 -5 -65 -42 -131 -82 -105 -65 -143 -81
-310 -136 -104 -34 -199 -66 -210 -71 -26 -11 -184 -62 -210 -66 -10 -2 -23
-9 -27 -16 -4 -6 -8 -9 -8 -5 0 3 -174 -52 -387 -123 -214 -72 -395 -132 -403
-134 -8 -3 -42 -14 -75 -25 -33 -11 -67 -22 -75 -24 -8 -2 -28 -9 -45 -15 -16
-7 -37 -14 -45 -16 -8 -3 -35 -11 -60 -20 -25 -9 -53 -17 -62 -18 -10 -1 -18
-4 -18 -8 0 -4 -15 -10 -32 -14 -18 -3 -42 -10 -53 -15 -19 -8 -358 -121 -380
-126 -33 -8 -351 -121 -407 -144 -36 -16 -69 -26 -72 -23 -3 4 -6 2 -6 -4 0
-5 -6 -10 -12 -10 -11 -1 -257 -98 -313 -123 -41 -19 -501 -201 -515 -204 -15
-3 -23 -6 -85 -29 -16 -6 -34 -12 -40 -13 -5 -1 -64 -21 -130 -43 -174 -61
-249 -85 -260 -86 -5 -1 -20 -6 -32 -13 -12 -7 -30 -13 -40 -15 -10 -1 -24 -6
-30 -10 -7 -5 -13 -6 -13 -2 0 3 -10 0 -22 -7 -13 -6 -29 -13 -36 -14 -15 -3
-108 -33 -137 -45 -22 -9 -362 -120 -379 -124 -6 -1 -18 -5 -26 -8 -21 -9
-420 -137 -445 -143 -19 -5 -220 -66 -235 -71 -18 -7 -13 -6 -70 -23 -25 -7
-49 -14 -55 -16 -5 -1 -46 -11 -90 -22 -44 -12 -100 -23 -125 -27 -51 -7 -83
-12 -90 -16 -3 -1 -9 -3 -15 -4 -5 -1 -27 -9 -49 -18 -21 -9 -42 -17 -46 -17
-8 0 -200 -96 -255 -128 -59 -33 -110 -66 -115 -72 -3 -4 -10 -9 -15 -11 -6
-2 -63 -40 -128 -83 l-117 -79 -209 0 c-115 0 -214 3 -220 7 -6 4 -11 4 -11
-1 0 -9 -920 -9 -944 0 -9 4 -16 3 -16 -1 0 -4 -64 -7 -142 -8 -79 -1 -150 -3
-158 -6 -8 -3 -24 -9 -35 -13 -117 -46 -204 -75 -219 -74 -5 0 -12 -3 -15 -8
-4 -7 -201 -82 -231 -89 -3 0 -18 -6 -35 -13 -16 -7 -52 -21 -80 -30 -27 -10
-130 -48 -228 -84 -98 -37 -179 -67 -181 -67 -2 0 -21 -8 -42 -17 -22 -9 -45
-18 -53 -19 -16 -3 -111 -40 -168 -65 -24 -11 -45 -19 -48 -19 -5 0 -336 -135
-380 -155 -16 -7 -55 -23 -85 -35 -30 -11 -71 -28 -90 -36 -58 -25 -70 -30
-205 -84 -119 -48 -219 -89 -270 -111 -11 -4 -60 -25 -109 -44 l-88 -36 -719
-1 c-396 0 -719 -3 -719 -7 0 -3 -19 -6 -43 -7 -47 0 -207 -14 -242 -20 -13
-2 -52 -6 -87 -9 -34 -2 -63 -5 -63 -5 0 -1 -49 -5 -170 -15 -44 -3 -87 -8
-95 -10 -8 -3 -46 -7 -85 -10 -38 -3 -92 -7 -120 -10 -96 -9 -160 -15 -205
-20 -25 -3 -72 -7 -105 -10 -33 -3 -83 -8 -111 -10 -157 -16 -258 -25 -324
-30 -30 -2 -64 -6 -75 -8 -11 -3 -60 -8 -110 -11 -93 -7 -141 -12 -210 -20
-50 -6 -187 -18 -240 -22 -22 -1 -40 -3 -40 -4 0 -2 -18 -3 -40 -5 -22 -1 -69
-5 -105 -9 -64 -7 -98 -10 -210 -22 -30 -3 -82 -7 -115 -9 -33 -2 -60 -5 -60
-5 0 -1 -22 -4 -50 -6 -46 -4 -110 -11 -126 -13 -4 -1 -5 -25 -2 -53 3 -29 6
-79 6 -110 1 -32 4 -58 7 -58 6 0 12 -67 14 -157 0 -35 4 -63 7 -63 3 0 6 -6
6 -12 0 -30 14 -199 18 -220 2 -13 7 -57 10 -98 4 -41 8 -93 9 -115 3 -34 13
-123 21 -190 1 -11 3 -25 4 -32 0 -7 11 -10 23 -8 13 3 54 7 93 10 38 3 81 8
95 10 14 2 63 7 110 10 47 4 99 8 115 10 42 5 140 15 202 20 100 9 158 15 213
20 30 4 75 8 100 10 25 2 68 6 95 9 91 10 179 18 215 21 37 2 169 15 210 20
56 7 178 18 225 21 28 1 50 3 50 4 0 1 15 3 140 14 39 4 88 9 110 12 22 2 69
7 105 10 36 3 85 7 110 10 25 2 68 6 95 9 28 2 68 6 90 9 22 2 78 7 124 10 46
4 100 9 120 12 20 4 56 8 81 9 83 6 175 15 220 22 25 3 408 7 851 8 710 1 811
3 840 17 19 9 120 51 224 93 105 42 196 82 202 87 7 6 13 8 13 5 0 -3 25 5 55
18 30 14 55 21 55 17 0 -4 4 -2 8 4 8 12 123 60 135 56 4 -1 7 3 7 10 0 6 3 9
6 6 3 -3 42 10 87 29 45 19 91 38 102 42 11 5 40 17 65 28 25 12 68 29 95 39
28 10 61 24 75 31 14 7 33 13 43 13 9 0 17 5 17 10 0 6 3 9 8 8 8 -1 30 7 99
38 28 13 56 24 61 24 4 0 28 9 51 21 24 11 51 22 60 24 14 3 154 54 206 75 78
31 129 50 139 50 6 0 22 6 36 13 14 7 61 25 105 41 44 15 87 30 95 34 8 3 18
4 23 4 4 -1 7 2 7 6 0 5 6 9 13 9 6 1 44 13 82 28 39 14 102 38 140 51 39 14
83 31 100 39 16 7 33 11 37 9 4 -3 8 0 8 7 0 7 3 10 6 7 3 -4 20 -1 37 6 25
10 237 13 956 12 866 -1 925 0 944 17 11 9 23 17 27 17 3 0 15 8 26 18 22 20
106 87 148 117 15 11 57 41 92 68 35 26 65 47 68 47 3 0 33 19 68 43 35 24 83
54 108 68 25 13 47 27 50 30 6 8 70 26 116 32 43 7 300 75 347 93 20 7 37 12
37 9 0 -2 16 3 35 11 19 8 35 12 35 10 0 -3 17 2 37 10 20 9 46 18 57 21 12 2
26 5 31 7 29 7 436 139 470 153 22 8 47 16 55 18 8 2 47 13 85 26 84 28 73 25
113 34 18 4 35 12 38 16 3 5 14 9 25 9 10 0 27 4 37 9 14 9 479 164 522 176 8
2 80 27 160 55 80 28 152 52 160 54 16 4 135 44 160 53 8 3 20 7 25 9 6 1 44
17 85 34 41 17 80 33 85 34 6 1 27 10 49 19 21 9 40 17 41 17 1 0 20 8 41 17
22 9 41 17 44 18 9 3 45 17 65 25 11 5 67 28 125 50 58 23 114 46 125 51 25
11 78 32 85 33 7 2 119 46 155 62 35 15 292 104 318 109 9 2 22 7 27 10 5 3
18 8 27 10 17 3 128 39 163 52 8 3 20 7 25 9 6 1 84 28 175 59 91 31 172 58
180 60 8 2 110 36 225 75 116 39 218 73 227 75 9 2 26 9 37 15 12 6 21 9 21 6
0 -3 17 2 37 11 21 8 49 17 62 20 14 2 29 7 35 11 6 3 20 8 30 9 11 2 25 8 33
14 7 6 13 8 13 4 0 -4 6 -3 13 3 12 10 76 27 90 24 4 -1 7 3 7 8 0 6 9 10 20
10 12 0 34 7 50 15 17 9 32 15 35 15 3 0 7 1 10 1 3 1 8 2 13 3 9 2 262 86
282 93 21 8 43 14 58 15 6 1 12 5 12 10 0 4 9 8 20 8 12 0 34 7 50 15 17 9 30
13 30 9 0 -4 6 -2 13 4 6 5 28 13 47 17 19 4 41 11 50 15 8 5 76 28 150 52 91
29 162 59 218 93 46 28 95 56 110 64 15 8 29 17 32 21 3 4 50 33 105 66 55 32
102 61 105 64 3 3 70 45 150 94 80 49 172 106 205 127 33 22 65 39 72 39 6 0
13 4 15 9 2 4 39 30 83 56 44 27 82 52 83 57 2 4 8 8 13 8 5 0 33 16 63 35 30
19 59 35 64 35 5 0 17 9 27 20 10 11 22 20 27 20 5 0 29 13 52 30 24 16 46 26
49 23 4 -3 9 2 13 11 3 9 10 16 16 16 5 0 29 14 53 30 24 17 48 30 54 30 6 0
11 3 11 8 0 4 9 12 20 17 78 38 356 225 465 313 6 4 50 37 100 72 49 36 97 70
105 77 8 7 40 30 70 52 30 22 60 45 67 51 7 5 15 10 18 10 8 0 97 71 107 85 5
7 8 7 8 0 0 -6 3 -6 8 0 6 9 62 52 161 122 14 10 43 32 65 48 23 17 156 114
296 217 254 185 255 185 305 184 28 -1 58 2 68 6 9 5 17 5 17 1 0 -10 132 -9
148 1 7 4 12 4 12 -1 0 -10 132 -9 148 1 7 4 12 4 12 -1 0 -10 121 -10 137 0
6 4 14 4 16 0 6 -10 1420 -9 1435 1 7 4 12 4 12 -1 0 -10 132 -9 148 1 7 4 12
4 12 -1 0 -10 132 -9 148 1 7 4 12 4 12 -1 0 -10 121 -10 136 0 6 3 14 4 17 0
4 -3 156 -7 339 -7 215 -1 347 -6 373 -13 22 -7 54 -14 70 -17 32 -5 206 -41
365 -76 52 -12 106 -23 120 -25 14 -2 34 -6 45 -9 11 -3 76 -16 145 -31 136
-28 132 -25 217 -131 17 -21 39 -49 50 -61 25 -30 84 -101 105 -127 10 -11 31
-37 47 -56 16 -19 66 -79 111 -134 45 -54 87 -105 93 -112 7 -7 17 -19 22 -26
6 -7 53 -65 105 -128 52 -63 102 -123 110 -134 8 -10 20 -24 27 -31 10 -11 27
-45 124 -252 16 -34 29 -65 29 -70 0 -5 6 -15 13 -21 6 -7 12 -16 13 -20 0 -7
11 -31 104 -227 59 -125 114 -241 168 -357 41 -87 55 -108 76 -114 14 -3 26
-9 26 -13 0 -4 15 -15 33 -25 17 -9 41 -22 52 -29 11 -7 117 -70 235 -141 118
-71 217 -131 220 -135 3 -3 28 -17 55 -31 28 -14 52 -28 53 -32 2 -5 10 -8 18
-8 8 0 14 -4 14 -8 0 -4 22 -19 50 -33 27 -13 50 -27 50 -31 0 -5 4 -8 10 -8
12 0 337 -197 359 -218 9 -9 46 -42 81 -72 35 -30 71 -62 80 -70 9 -8 45 -40
80 -70 36 -30 70 -59 76 -65 13 -12 108 -94 179 -155 28 -24 59 -51 70 -61 11
-10 29 -27 41 -36 35 -29 146 -125 189 -164 22 -20 55 -49 74 -65 19 -16 49
-42 67 -59 18 -16 45 -40 61 -52 25 -20 68 -57 128 -111 11 -10 49 -43 84 -73
35 -30 74 -63 85 -74 12 -11 48 -42 81 -70 32 -27 73 -63 91 -80 18 -16 52
-46 75 -65 24 -19 51 -42 59 -50 9 -8 63 -55 120 -105 58 -49 107 -93 110 -96
6 -8 662 -443 675 -448 6 -2 12 -7 15 -10 4 -5 158 -109 201 -136 9 -5 50 -32
90 -60 41 -27 79 -52 84 -55 6 -3 37 -24 71 -47 33 -23 119 -69 190 -103 193
-93 423 -202 614 -292 116 -55 299 -143 400 -191 36 -18 67 -32 70 -33 3 0 34
-14 70 -31 86 -41 234 -110 290 -135 25 -12 86 -40 135 -63 50 -23 92 -42 95
-42 3 0 16 -6 30 -13 14 -8 28 -13 33 -12 4 1 7 -3 7 -8 0 -6 4 -10 10 -10 5
0 39 -13 75 -30 36 -16 70 -30 75 -30 6 0 10 -4 10 -10 0 -5 6 -10 13 -10 7 0
32 -9 55 -20 22 -11 46 -20 52 -20 5 0 10 -4 10 -10 0 -5 6 -10 13 -10 8 0 42
-14 78 -31 57 -28 104 -49 119 -54 3 -1 41 -19 85 -39 44 -21 114 -54 155 -73
221 -104 266 -126 321 -163 33 -22 63 -40 67 -40 4 0 29 -16 56 -35 27 -19 55
-35 62 -35 7 0 17 -6 21 -13 4 -7 19 -18 33 -24 14 -7 42 -23 62 -35 21 -13
85 -52 143 -88 59 -36 119 -73 133 -83 15 -9 35 -20 45 -23 9 -4 17 -10 17
-14 0 -4 8 -10 18 -14 22 -7 78 -40 100 -58 9 -8 28 -19 42 -26 27 -13 62 -34
70 -42 3 -3 14 -10 25 -16 51 -28 72 -40 94 -57 23 -17 25 -17 43 2 10 11 18
22 18 25 0 5 179 301 273 451 27 44 58 94 67 110 10 17 61 101 114 188 53 87
94 162 92 166 -3 4 -61 41 -128 81 -68 41 -124 77 -126 82 -2 4 -8 8 -12 8 -5
0 -80 43 -167 97 -87 53 -174 105 -193 117 -19 11 -37 23 -40 26 -3 3 -16 11
-30 18 -29 14 -63 35 -70 43 -3 3 -12 9 -20 12 -8 4 -28 16 -45 27 -16 10 -45
27 -62 36 -18 9 -33 19 -33 23 0 4 -16 13 -35 20 -19 7 -35 17 -35 22 0 5 -7
9 -15 9 -8 0 -15 5 -15 10 0 6 -5 10 -11 10 -7 0 -40 18 -75 40 -35 22 -66 40
-68 40 -3 0 -49 21 -103 46 -54 25 -99 45 -101 44 -1 0 -24 10 -50 24 -26 13
-76 38 -112 54 -68 31 -189 87 -275 127 -148 68 -244 112 -395 182 -30 14 -75
35 -100 47 -24 11 -48 20 -52 18 -4 -1 -8 2 -8 8 0 5 -5 10 -10 10 -10 0 -77
30 -220 98 -30 15 -57 27 -60 28 -6 1 -91 41 -245 114 -60 28 -153 72 -205 97
-52 25 -135 65 -185 88 -87 42 -240 114 -355 168 -30 14 -66 31 -80 36 -14 6
-32 15 -40 21 -8 5 -58 29 -110 54 -52 24 -187 105 -299 180 -112 75 -207 136
-212 136 -5 0 -9 5 -9 10 0 6 -6 10 -14 10 -8 0 -16 3 -18 8 -4 10 -157 112
-168 112 -4 0 -10 3 -12 8 -3 6 -63 48 -110 77 -79 48 -325 216 -357 244 -10
9 -46 41 -81 71 -35 30 -79 69 -97 85 -18 17 -54 48 -80 70 -53 45 -209 181
-263 229 -19 17 -82 72 -140 121 -58 50 -117 101 -131 115 -15 14 -37 34 -50
44 -62 50 -246 211 -261 227 -9 11 -19 19 -22 19 -3 0 -14 8 -24 18 -20 19
-54 48 -157 137 -38 33 -77 67 -86 75 -9 8 -37 33 -63 55 -26 22 -67 58 -91
80 -24 22 -63 56 -86 75 -23 19 -47 40 -53 45 -6 6 -40 35 -75 65 -36 30 -73
63 -83 72 -9 10 -39 29 -65 43 -26 14 -92 52 -146 85 -55 33 -103 60 -107 60
-5 0 -10 3 -12 8 -2 6 -179 115 -213 132 -6 3 -49 29 -97 58 -47 28 -89 52
-92 52 -4 0 -12 5 -19 11 -7 6 -59 39 -117 74 -83 49 -109 71 -125 101 -11 22
-21 41 -22 44 0 3 -18 43 -40 90 -114 242 -133 283 -133 291 0 5 -4 9 -10 9
-5 0 -10 6 -10 14 0 12 -120 273 -157 341 -9 17 -28 44 -42 61 -14 18 -42 51
-61 74 -19 24 -40 48 -45 54 -6 6 -39 47 -75 91 -35 44 -67 82 -70 85 -3 3
-27 32 -55 65 -27 33 -52 62 -55 65 -3 3 -17 21 -32 40 -15 19 -37 47 -50 62
-13 14 -37 43 -55 65 -17 21 -39 48 -50 60 -10 12 -25 30 -33 40 -8 10 -35 43
-60 73 -25 30 -52 63 -60 74 -8 10 -22 26 -30 35 -9 9 -47 54 -85 101 -39 47
-74 90 -80 97 -5 6 -26 30 -45 54 -19 23 -51 61 -70 84 -19 24 -43 52 -52 64
-10 11 -26 21 -36 21 -10 0 -43 7 -75 15 -31 8 -71 17 -89 20 -84 14 -99 18
-104 26 -3 5 -9 7 -14 4 -4 -3 -52 5 -106 16 -55 11 -108 23 -119 25 -19 4
-30 6 -87 19 -13 3 -34 7 -48 10 -61 12 -79 16 -145 30 -177 39 -271 58 -287
59 -10 0 -18 3 -18 6 0 3 -10 6 -22 7 -13 1 -34 4 -48 8 -14 3 -34 8 -45 10
-42 7 -121 25 -145 32 -14 4 -858 9 -1875 10 -1756 3 -1852 2 -1870 -14z"/>
</g>
</svg>
